<svg width="213" height="201" viewBox="0 0 213 201" fill="none" xmlns="http://www.w3.org/2000/svg">
<path d="M59.6227 168.985C58.362 169.382 55.4253 168.985 55.4253 168.985C55.4253 168.985 56.2705 167.128 56.3374 167.018C57.13 165.738 59.4173 163.733 61.0552 164.153C61.3248 164.228 61.5756 164.36 61.7912 164.538C62.0069 164.717 62.1825 164.938 62.3068 165.189C62.4311 165.44 62.5012 165.714 62.5127 165.994C62.5241 166.274 62.4766 166.553 62.3732 166.813C61.9673 167.93 60.6971 168.651 59.6227 168.985Z" fill="#263238"/>
<path d="M32.2707 168.164C32.242 168.164 31.9508 166.154 31.946 166.02C31.903 164.516 32.7052 161.584 34.2954 161.02C34.5618 160.934 34.8436 160.905 35.1221 160.935C35.4006 160.965 35.6696 161.053 35.9116 161.194C36.1537 161.336 36.3632 161.526 36.5265 161.754C36.6899 161.981 36.8034 162.241 36.8596 162.515C37.1414 163.671 36.4776 164.974 35.7709 165.858C34.9352 166.87 32.2707 168.164 32.2707 168.164Z" fill="#263238"/>
<path d="M32.7818 189.839C33.7655 189.963 35.7138 189.409 36.2582 189.246C36.3489 190.087 36.4539 190.913 36.602 191.725C36.6688 192.073 36.7166 192.436 36.8025 192.766C36.8885 193.095 36.9649 193.434 37.0413 193.764C37.2275 194.437 37.3947 195.063 37.5857 195.674C37.6764 195.994 37.7719 196.285 37.8674 196.591C37.6334 196.113 37.2514 195.349 37.2084 195.282C36.4826 194.174 34.434 192.46 33.0063 192.852C32.771 192.923 32.5533 193.043 32.3673 193.203C32.1814 193.364 32.0313 193.562 31.9268 193.784C31.8223 194.007 31.7658 194.249 31.7609 194.494C31.756 194.74 31.8029 194.984 31.8984 195.211C32.2757 196.166 33.4122 196.796 34.3624 197.068C35.4082 197.369 37.705 197.039 37.9915 196.997C38.2303 197.741 38.4691 198.467 38.6983 199.141C38.8511 199.585 38.9991 200 39.1424 200.406H40.0974C39.9064 199.928 39.7106 199.398 39.5053 198.845C39.2999 198.291 39.0564 197.598 38.8272 196.934C39.0851 196.825 41.0811 195.979 41.8833 195.201C42.5187 195.595 43.1773 195.951 43.8555 196.266C43.6358 197.02 43.4352 197.756 43.2586 198.443C43.0819 199.131 42.9195 199.785 42.781 200.406H43.7361C43.8555 199.847 43.9844 199.274 44.1276 198.653C44.2709 198.033 44.4428 197.364 44.6052 196.686C44.8869 196.739 47.1742 197.164 48.2295 196.906C49.1845 196.672 50.3497 196.104 50.7603 195.144C50.8627 194.922 50.9176 194.682 50.9217 194.438C50.9258 194.194 50.8789 193.952 50.7841 193.727C50.6892 193.503 50.5485 193.3 50.3709 193.133C50.1933 192.966 49.9828 192.837 49.7528 192.756C48.3202 192.312 46.2239 193.94 45.4551 195.02C45.4074 195.091 44.9203 195.975 44.6816 196.424C44.7866 196.013 44.8964 195.607 45.0158 195.182C45.183 194.571 45.3787 193.926 45.5697 193.305L45.8992 192.35C46.0043 192.016 46.1475 191.715 46.2717 191.395C46.4627 190.918 46.6824 190.44 46.902 189.963C47.5132 190.168 49.323 190.751 50.2781 190.669C51.2331 190.588 52.4937 190.192 53.0476 189.313C53.1857 189.109 53.2792 188.878 53.3222 188.636C53.3652 188.393 53.3567 188.144 53.2973 187.905C53.2378 187.666 53.1288 187.442 52.9772 187.248C52.8256 187.054 52.6348 186.893 52.4173 186.778C51.0851 186.123 48.75 187.418 47.8284 188.368C47.795 188.396 47.6231 188.616 47.4177 188.884C47.6469 188.406 47.8952 187.967 48.1197 187.513C48.8169 186.224 49.5522 184.934 50.3163 183.636L50.7938 182.824C51.3095 183.001 53.2673 183.645 54.2653 183.559C55.2633 183.473 56.481 183.082 57.0349 182.203C57.1728 181.999 57.2663 181.769 57.3093 181.527C57.3523 181.284 57.3437 181.036 57.2843 180.797C57.2248 180.558 57.1158 180.335 56.9642 180.141C56.8126 179.947 56.622 179.787 56.4046 179.672C55.0723 179.018 52.7373 180.307 51.8157 181.258C51.7822 181.291 51.5721 181.558 51.3381 181.854C51.7345 181.143 52.1213 180.422 52.4842 179.71C53.111 178.475 53.6549 177.198 54.1125 175.89C54.294 175.957 56.5717 176.764 57.6796 176.664C58.668 176.578 59.8952 176.186 60.4539 175.308C60.5917 175.104 60.6849 174.873 60.7275 174.63C60.7701 174.388 60.7612 174.139 60.7013 173.901C60.6414 173.662 60.5318 173.438 60.3798 173.245C60.2277 173.051 60.0366 172.892 59.8188 172.777C58.4913 172.123 56.1515 173.412 55.2299 174.362C55.163 174.429 54.4229 175.389 54.1698 175.742V175.699C54.5905 174.407 54.8926 173.078 55.0723 171.731C55.2431 170.532 55.3419 169.323 55.3684 168.112C55.4066 166.985 55.3684 165.958 55.335 165.046C55.3111 164.568 55.2777 164.091 55.2442 163.68H55.2681C55.2681 163.68 55.8889 161.995 55.9127 161.885C56.204 160.595 56.0083 157.931 54.7333 157.172C54.518 157.053 54.2801 156.98 54.035 156.959C53.7899 156.938 53.5431 156.969 53.3106 157.049C53.0782 157.13 52.8654 157.259 52.686 157.427C52.5065 157.595 52.3646 157.8 52.2693 158.026C51.83 158.981 52.1786 160.213 52.6465 161.087C53.1145 161.961 54.7619 163.284 55.1726 163.604C55.2012 164.043 55.2251 164.511 55.2394 165.036C55.2394 165.948 55.2681 166.975 55.206 168.097C55.206 168.393 55.163 168.713 55.1392 169.024C55.0675 168.494 54.9625 167.763 54.9434 167.696C54.6091 166.416 53.2052 164.139 51.7297 164.057C51.4817 164.05 51.2349 164.095 51.0055 164.189C50.7762 164.284 50.5696 164.426 50.3995 164.607C50.2293 164.788 50.0994 165.002 50.0184 165.237C49.9373 165.471 49.907 165.72 49.9295 165.967C49.9772 167.013 50.8606 167.954 51.6772 168.513C52.4937 169.071 54.6378 169.501 55.101 169.582C55.0389 170.27 54.9577 170.977 54.8336 171.707C54.6331 173.035 54.3135 174.343 53.8785 175.613H53.7974C53.7974 175.136 53.7544 174.071 53.7448 173.985C53.549 172.672 52.4078 170.256 50.9466 170.012C50.7028 169.978 50.4546 169.997 50.2182 170.065C49.9819 170.134 49.7627 170.251 49.5748 170.411C49.387 170.57 49.2347 170.766 49.128 170.988C49.0212 171.21 48.9624 171.452 48.9553 171.698C48.8837 172.743 49.6621 173.77 50.3879 174.42C51.2522 175.16 53.6636 175.852 53.7544 175.886C53.2816 177.135 52.7281 178.352 52.0974 179.529C51.6199 180.403 51.1424 181.272 50.6171 182.136C50.6171 181.788 50.5741 180.412 50.5598 180.312C50.3688 179.004 49.2275 176.587 47.7663 176.344C47.5256 176.315 47.2816 176.337 47.0496 176.407C46.8177 176.478 46.6028 176.595 46.4184 176.753C46.2341 176.91 46.0843 177.104 45.9786 177.322C45.8728 177.54 45.8132 177.778 45.8037 178.02C45.7369 179.061 46.5105 180.092 47.2602 180.737C48.1006 181.463 50.4118 182.141 50.6028 182.198C50.3688 182.59 50.1253 182.986 49.896 183.378C49.1225 184.657 48.3393 185.932 47.6087 187.222C47.3557 187.666 47.1312 188.115 46.8829 188.564C46.8829 188.038 46.8447 187.083 46.8304 187.002C46.6394 185.694 45.4981 183.277 44.0369 183.029C43.7929 182.996 43.5445 183.014 43.3079 183.082C43.0712 183.151 42.8517 183.268 42.6635 183.427C42.4753 183.586 42.3226 183.783 42.2153 184.005C42.1081 184.227 42.0486 184.469 42.0409 184.715C41.974 185.761 42.7476 186.787 43.4734 187.437C44.1993 188.086 46.1523 188.693 46.6967 188.869C46.3099 189.619 45.9422 190.369 45.6175 191.123C45.479 191.453 45.3214 191.782 45.2116 192.107C45.1018 192.431 44.9776 192.751 44.8582 193.062C44.6434 193.726 44.438 194.342 44.2518 194.972C44.1563 195.287 44.0751 195.583 43.9844 195.893C44.056 195.359 44.1563 194.513 44.1563 194.437C44.1563 193.11 43.4018 190.55 41.9931 190.087C41.7574 190.016 41.5094 189.996 41.2654 190.028C41.0214 190.06 40.7868 190.143 40.5769 190.271C40.367 190.399 40.1865 190.57 40.0471 190.773C39.9077 190.976 39.8126 191.206 39.7679 191.448C39.7403 191.575 39.7243 191.704 39.7202 191.835C39.082 192.809 38.7024 193.93 38.6171 195.091C38.6171 195.172 38.6935 196.18 38.746 196.691C38.6075 196.29 38.4738 195.889 38.3401 195.468C38.1396 194.867 37.9533 194.222 37.7671 193.597L37.5093 192.608C37.4138 192.274 37.3612 191.94 37.2896 191.605C37.1893 191.128 37.1081 190.588 37.0317 190.073C37.6573 189.91 39.491 189.394 40.2407 188.802C40.9904 188.21 41.826 187.188 41.8021 186.143C41.8045 185.898 41.7555 185.655 41.6583 185.43C41.5611 185.206 41.418 185.004 41.238 184.838C41.058 184.672 40.8453 184.545 40.6135 184.467C40.3817 184.388 40.1359 184.359 39.8921 184.381C38.4213 184.562 37.1845 186.93 36.9362 188.234C36.9362 188.277 36.9076 188.554 36.8837 188.888C36.8216 188.382 36.7596 187.876 36.7118 187.36C36.5829 185.899 36.4969 184.409 36.4062 182.915C36.4062 182.604 36.3632 182.289 36.3441 181.96C36.8694 181.826 38.8606 181.286 39.6438 180.661C40.4269 180.035 41.2339 179.047 41.21 178.001C41.2116 177.756 41.1621 177.514 41.0647 177.29C40.9673 177.065 40.8241 176.864 40.6443 176.698C40.4645 176.532 40.2521 176.405 40.0206 176.326C39.7891 176.247 39.5436 176.218 39.2999 176.239C37.8292 176.425 36.5924 178.794 36.3441 180.092C36.3441 180.14 36.3107 180.474 36.282 180.852C36.22 180.04 36.1483 179.228 36.0528 178.431C35.8909 177.058 35.6389 175.697 35.2984 174.357C35.4846 174.31 37.8292 173.722 38.6983 173.03C39.4719 172.414 40.2884 171.416 40.2645 170.37C40.2661 170.126 40.2166 169.883 40.1192 169.659C40.0218 169.435 39.8786 169.233 39.6988 169.067C39.519 168.901 39.3066 168.775 39.0751 168.696C38.8436 168.617 38.5982 168.587 38.3545 168.608C36.8837 168.794 35.6469 171.163 35.3986 172.462C35.3986 172.557 35.2936 173.765 35.2745 174.2C35.2767 174.184 35.2767 174.168 35.2745 174.152C34.9137 172.838 34.4342 171.559 33.8419 170.332C33.3194 169.238 32.7342 168.174 32.0894 167.147C31.4973 166.192 30.9004 165.347 30.3656 164.607C30.0743 164.205 29.8021 163.847 29.5395 163.518H29.5682C29.5682 163.518 29.1527 161.775 29.0906 161.67C28.6131 160.433 26.9896 158.327 25.5093 158.389C25.2637 158.409 25.025 158.479 24.8085 158.597C24.592 158.714 24.4027 158.876 24.2527 159.071C24.1028 159.267 23.9956 159.492 23.9382 159.731C23.8807 159.971 23.8742 160.22 23.9191 160.462C24.0767 161.493 25.0556 162.334 25.9247 162.806C26.7938 163.279 28.9044 163.47 29.4201 163.508C29.6875 163.862 29.9645 164.239 30.2606 164.664C30.7763 165.414 31.3541 166.264 31.9223 167.228C32.0703 167.486 32.2231 167.772 32.376 168.045C32.0226 167.639 31.5355 167.09 31.4782 167.042C30.4945 166.158 28.0688 165.032 26.7938 165.781C26.5835 165.91 26.4027 166.081 26.263 166.284C26.1232 166.487 26.0277 166.717 25.9827 166.959C25.9377 167.202 25.9441 167.451 26.0016 167.69C26.059 167.93 26.1663 168.155 26.3163 168.35C26.9323 169.195 28.1881 169.492 29.1814 169.511C30.1746 169.53 32.1945 168.699 32.629 168.517C32.9585 169.124 33.2785 169.754 33.5841 170.427C34.143 171.658 34.5905 172.937 34.9211 174.248L34.8447 174.281C34.563 173.87 33.9565 173.016 33.8897 172.954C33.0063 171.965 30.7237 170.566 29.3676 171.182C29.1459 171.289 28.9491 171.441 28.7901 171.629C28.631 171.817 28.5133 172.036 28.4444 172.273C28.3755 172.509 28.3571 172.757 28.3902 173.001C28.4234 173.245 28.5075 173.48 28.637 173.689C29.1527 174.596 30.3704 175.031 31.3493 175.155C32.481 175.298 34.8734 174.548 34.9641 174.52C35.2673 175.83 35.4842 177.159 35.6135 178.498C35.709 179.486 35.7663 180.484 35.8141 181.492C35.6278 181.195 34.8304 180.059 34.7635 180.002C33.8801 179.013 31.5976 177.614 30.2415 178.23C30.0197 178.337 29.823 178.49 29.6639 178.677C29.5049 178.865 29.3871 179.085 29.3182 179.321C29.2494 179.557 29.2309 179.806 29.2641 180.05C29.2973 180.293 29.3813 180.528 29.5109 180.737C30.0266 181.644 31.2442 182.079 32.2231 182.203C33.3262 182.346 35.6278 181.635 35.8188 181.573C35.8188 182.05 35.8666 182.485 35.8809 182.943C35.943 184.438 35.9955 185.937 36.091 187.413C36.1245 187.928 36.177 188.43 36.2295 188.936C35.9335 188.501 35.3795 187.723 35.3222 187.661C34.4388 186.673 32.1563 185.273 30.8002 185.894C30.5781 186 30.3808 186.152 30.2214 186.339C30.0619 186.527 29.9439 186.746 29.8749 186.982C29.8059 187.218 29.7876 187.466 29.8212 187.71C29.8547 187.954 29.9394 188.188 30.0696 188.396C30.5853 189.28 31.8029 189.714 32.7818 189.839Z" fill="#263238"/>
<path d="M131.117 48.0304C129.843 47.3618 128.653 46.1521 127.545 44.4012C126.394 42.5392 125.811 40.3818 125.869 38.1935C125.869 35.8887 126.483 34.1585 127.712 33.0029C128.941 31.8473 130.746 30.9719 133.127 30.3766L141.832 28.2707C145.557 27.3157 147.418 25.5298 147.414 22.913C147.414 21.4995 146.727 20.2707 145.351 19.2266C143.976 18.1824 141.612 17.6619 138.26 17.6651C135.354 17.6459 132.46 18.0398 129.665 18.835C127.391 19.4433 125.211 20.3641 123.19 21.5712C121.914 20.5954 120.819 19.4044 119.952 18.0519C119.027 16.5622 118.561 14.8336 118.611 13.0809C118.587 11.2536 119.181 9.47186 120.296 8.02401C121.532 6.47991 123.121 5.255 124.928 4.45219C127.166 3.4424 129.533 2.74661 131.962 2.38454C134.935 1.92007 137.94 1.69651 140.949 1.71602C149.726 1.70328 156.371 3.64678 160.885 7.5465C165.399 11.4462 167.65 16.5636 167.637 22.8987C167.637 34.8079 159.226 42.437 142.405 45.786L131.117 48.0304ZM127.43 62.6567C127.43 59.607 128.385 57.0952 130.295 55.1215C132.205 53.1477 134.83 52.1609 138.17 52.1609C141.515 52.1609 144.139 53.1477 146.039 55.1215C147.94 57.0952 148.895 59.607 148.904 62.6567C148.904 65.7128 147.949 68.2245 146.039 70.1919C144.129 72.1593 141.506 73.1461 138.17 73.1525C134.817 73.1525 132.193 72.1656 130.295 70.1919C128.398 68.2182 127.443 65.7064 127.43 62.6567Z" fill="#263238"/>
<path d="M138.151 73.3913C134.751 73.3913 132.043 72.3694 130.105 70.3591C128.166 68.3487 127.192 65.7606 127.192 62.6567C127.192 59.5529 128.171 56.9647 130.105 54.9544C132.039 52.944 134.751 51.9221 138.151 51.9221C141.551 51.9221 144.258 52.944 146.192 54.9544C148.126 56.9647 149.105 59.5576 149.105 62.6567C149.105 65.7558 148.126 68.3535 146.192 70.3591C144.258 72.3646 141.551 73.3913 138.151 73.3913ZM138.151 52.3806C134.885 52.3806 132.292 53.3356 130.448 55.2457C128.605 57.1557 127.669 59.6436 127.669 62.6137C127.669 65.5839 128.624 68.067 130.448 69.9866C132.273 71.9062 134.885 72.8517 138.151 72.8517C141.417 72.8517 144.005 71.8967 145.848 69.9866C147.692 68.0765 148.628 65.5887 148.628 62.6137C148.628 59.6388 147.696 57.2082 145.848 55.2982C144 53.3881 141.417 52.3996 138.151 52.3996V52.3806ZM131.117 48.25C131.077 48.2497 131.038 48.2398 131.002 48.2214C129.708 47.5385 128.476 46.3113 127.34 44.5111C126.173 42.6122 125.58 40.4168 125.63 38.1888C125.63 35.825 126.275 34.02 127.54 32.8215C128.806 31.6229 130.654 30.7443 133.065 30.1426L141.785 28.0368C145.414 27.0817 147.181 25.4152 147.181 22.913C147.181 21.5855 146.522 20.406 145.213 19.4176C143.905 18.4291 141.546 17.9038 138.265 17.9038C135.382 17.8864 132.511 18.277 129.737 19.0642C127.485 19.669 125.328 20.58 123.324 21.7717C123.283 21.7986 123.235 21.813 123.185 21.813C123.136 21.813 123.088 21.7986 123.047 21.7717C121.753 20.7776 120.64 19.5677 119.757 18.1951C118.809 16.6631 118.333 14.8863 118.386 13.0857C118.356 11.1999 118.964 9.35909 120.11 7.86167C121.365 6.28388 122.98 5.02962 124.819 4.20389C127.077 3.18556 129.465 2.48337 131.914 2.11714C134.9 1.65125 137.918 1.42609 140.94 1.44384C149.74 1.44384 156.497 3.43509 161.029 7.36505C165.56 11.295 167.862 16.5286 167.862 22.8987C167.862 34.8796 159.31 42.6583 142.439 46.02L131.16 48.25H131.117ZM138.28 17.4072C141.665 17.4072 144.101 17.9468 145.514 19.0165C146.928 20.0861 147.673 21.404 147.673 22.8939C147.673 25.6062 145.739 27.4876 141.914 28.4808L133.189 30.6249C130.859 31.2075 129.068 32.0574 127.879 33.1892C126.69 34.3209 126.113 35.9779 126.113 38.2079C126.061 40.3467 126.63 42.4547 127.751 44.2771C128.815 45.9484 129.961 47.1422 131.16 47.7821L142.353 45.5664C158.966 42.2572 167.389 34.636 167.389 22.913C167.389 16.7053 165.145 11.5815 160.704 7.73751C156.263 3.8935 149.611 1.93569 140.93 1.93569C137.934 1.91631 134.941 2.13989 131.981 2.60421C129.575 2.96267 127.229 3.65037 125.01 4.64798C123.238 5.43718 121.681 6.63899 120.468 8.15295C119.392 9.56915 118.827 11.3075 118.864 13.0857C118.816 14.791 119.269 16.4729 120.168 17.9229C120.991 19.1998 122.022 20.3297 123.219 21.2656C125.222 20.0952 127.373 19.196 129.613 18.5915C132.426 17.7969 135.338 17.4047 138.261 17.4263L138.28 17.4072Z" fill="#263238"/>
<path d="M91.6885 124.022L92.634 200.492H130.038L126.963 124.968L91.6885 124.022Z" fill="#263238"/>
<path d="M130.038 200.731H92.6337C92.5704 200.731 92.5097 200.705 92.4649 200.661C92.4201 200.616 92.395 200.555 92.395 200.492L91.4399 124.022C91.442 123.958 91.4675 123.897 91.5116 123.85C91.5348 123.828 91.5624 123.81 91.5929 123.798C91.6233 123.787 91.6558 123.782 91.6882 123.784L126.962 124.739C127.023 124.741 127.08 124.766 127.124 124.808C127.167 124.85 127.193 124.907 127.196 124.968L130.276 200.463C130.278 200.495 130.273 200.527 130.262 200.556C130.25 200.586 130.232 200.613 130.21 200.635C130.19 200.663 130.164 200.686 130.134 200.702C130.105 200.719 130.072 200.728 130.038 200.731ZM92.8677 200.253H129.789L126.733 125.202L91.927 124.247L92.8677 200.253Z" fill="#263238"/>
<path d="M91.6885 96.7034L92.634 173.173H130.038L126.963 97.6489L91.6885 96.7034Z" fill="white"/>
<path d="M130.038 173.412H92.6337C92.5704 173.412 92.5097 173.386 92.4649 173.342C92.4201 173.297 92.395 173.236 92.395 173.173L91.4399 96.7081C91.4401 96.6436 91.4659 96.5817 91.5116 96.5362C91.5337 96.5117 91.5611 96.4926 91.5917 96.4802C91.6223 96.4678 91.6553 96.4625 91.6882 96.4646L126.962 97.4196C127.023 97.4195 127.081 97.4429 127.125 97.4847C127.168 97.5265 127.194 97.5836 127.196 97.644L130.272 173.168C130.274 173.201 130.269 173.233 130.257 173.264C130.246 173.294 130.228 173.322 130.205 173.345C130.16 173.388 130.1 173.411 130.038 173.412ZM92.8677 172.934H129.789L126.733 97.8828L91.927 96.9277L92.8677 172.934Z" fill="#263238"/>
<path d="M104.701 104.95L108.597 111.445L101.783 160.457L112.059 170.738L118.768 157.864L111.085 111.769L114.982 106.469L110.655 99.54L104.701 104.95Z" fill="#263238"/>
<path d="M112.059 170.976C112.028 170.977 111.997 170.971 111.968 170.958C111.939 170.946 111.913 170.928 111.892 170.905L101.611 160.629C101.585 160.602 101.566 160.569 101.554 160.534C101.543 160.498 101.539 160.46 101.544 160.423L108.358 111.492L104.51 105.074C104.48 105.027 104.468 104.971 104.476 104.916C104.484 104.861 104.511 104.81 104.553 104.773L110.502 99.3632C110.529 99.3408 110.561 99.3242 110.594 99.3143C110.628 99.3045 110.663 99.3016 110.698 99.3059C110.732 99.3107 110.765 99.323 110.794 99.342C110.823 99.361 110.847 99.3862 110.865 99.4157L115.192 106.34C115.218 106.379 115.233 106.426 115.233 106.473C115.233 106.521 115.218 106.568 115.192 106.607L111.372 111.826L119.036 157.821C119.045 157.873 119.036 157.927 119.012 157.974L112.327 170.867C112.309 170.9 112.284 170.928 112.253 170.95C112.222 170.971 112.187 170.985 112.15 170.991L112.059 170.976ZM102.031 160.375L111.992 170.336L118.515 157.821L110.846 111.807C110.836 111.743 110.852 111.678 110.889 111.626L114.709 106.454L110.617 99.9123L105.016 104.998L108.836 111.32C108.863 111.368 108.875 111.423 108.869 111.478L102.031 160.375Z" fill="#263238"/>
<path d="M108.597 111.444L108.449 112.519L112.794 109.444L114.981 106.469L112.895 103.126L106.376 107.739L108.597 111.444Z" fill="#FFFD00"/>
<path d="M108.449 112.758C108.405 112.757 108.362 112.743 108.325 112.719C108.285 112.696 108.253 112.661 108.233 112.619C108.213 112.578 108.205 112.531 108.21 112.485L108.349 111.492L106.171 107.863C106.139 107.812 106.127 107.749 106.14 107.69C106.152 107.63 106.188 107.577 106.238 107.543L112.756 102.935C112.81 102.897 112.877 102.882 112.943 102.892C112.974 102.899 113.004 102.913 113.03 102.931C113.057 102.95 113.079 102.974 113.095 103.002L115.182 106.345C115.209 106.384 115.223 106.431 115.223 106.478C115.223 106.526 115.209 106.573 115.182 106.612L113 109.587C112.983 109.607 112.964 109.625 112.943 109.639L108.597 112.715C108.554 112.744 108.502 112.759 108.449 112.758ZM106.692 107.825L108.803 111.339C108.83 111.387 108.842 111.442 108.836 111.497L108.76 112.022L112.627 109.291L114.695 106.474L112.828 103.489L106.692 107.825Z" fill="#263238"/>
<path d="M106.343 127.666L112.957 122.986L112.026 117.399L107.303 120.737L106.343 127.666Z" fill="#FFFD00"/>
<path d="M106.343 127.881C106.3 127.881 106.256 127.87 106.219 127.847C106.18 127.823 106.148 127.788 106.128 127.747C106.108 127.705 106.099 127.659 106.104 127.613L107.06 120.684C107.064 120.652 107.075 120.621 107.093 120.593C107.11 120.565 107.133 120.541 107.16 120.522L111.878 117.179C111.911 117.156 111.949 117.141 111.989 117.137C112.029 117.133 112.07 117.139 112.107 117.155C112.144 117.171 112.176 117.196 112.201 117.228C112.226 117.26 112.243 117.297 112.25 117.337L113.181 122.924C113.188 122.968 113.183 123.013 113.166 123.054C113.149 123.095 113.122 123.131 113.086 123.158L106.482 127.881C106.436 127.894 106.388 127.894 106.343 127.881ZM107.527 120.856L106.654 127.131L112.694 122.833L111.854 117.771L107.527 120.856Z" fill="#263238"/>
<path d="M112.25 170.37L117.402 160.48L108.268 166.946L111.925 170.604L112.25 170.37Z" fill="#FFFD00"/>
<path d="M111.925 170.857C111.861 170.857 111.799 170.831 111.753 170.785L108.1 167.128C108.075 167.103 108.055 167.073 108.043 167.04C108.03 167.007 108.026 166.972 108.029 166.937C108.032 166.902 108.042 166.869 108.06 166.839C108.077 166.81 108.101 166.784 108.129 166.765L117.264 160.304C117.306 160.271 117.358 160.252 117.412 160.252C117.466 160.252 117.518 160.271 117.56 160.304C117.6 160.339 117.627 160.386 117.636 160.438C117.646 160.49 117.638 160.544 117.613 160.59L112.465 170.48C112.446 170.514 112.42 170.543 112.389 170.566L112.064 170.795C112.027 170.831 111.977 170.853 111.925 170.857ZM108.635 166.984L111.949 170.298L112.064 170.217L116.734 161.259L108.635 166.984Z" fill="#263238"/>
<path d="M114.06 129.614L105.197 135.884L104.237 142.808L114.991 135.201L114.06 129.614Z" fill="#FFFD00"/>
<path d="M104.238 143.046C104.194 143.047 104.151 143.036 104.114 143.013C104.073 142.989 104.04 142.953 104.02 142.911C104 142.868 103.992 142.821 103.999 142.774L104.954 135.85C104.963 135.786 104.998 135.727 105.049 135.688L113.912 129.423C113.945 129.399 113.984 129.383 114.024 129.378C114.065 129.373 114.106 129.378 114.144 129.394C114.181 129.409 114.215 129.434 114.24 129.466C114.266 129.498 114.283 129.535 114.289 129.576L115.216 135.163C115.225 135.207 115.221 135.253 115.204 135.294C115.187 135.336 115.158 135.372 115.12 135.397L104.367 143.003C104.328 143.029 104.284 143.044 104.238 143.046ZM105.422 135.998L104.539 142.297L114.724 135.091L113.879 130.029L105.422 135.998Z" fill="#263238"/>
<path d="M116.538 144.479L102.638 154.311L101.783 160.457L102.194 160.867L117.47 150.066L116.538 144.479Z" fill="#FFFD00"/>
<path d="M102.194 161.106C102.162 161.107 102.131 161.101 102.101 161.09C102.071 161.078 102.045 161.061 102.022 161.039L101.611 160.628C101.585 160.601 101.566 160.569 101.554 160.533C101.543 160.498 101.539 160.46 101.544 160.423L102.399 154.277C102.41 154.213 102.446 154.154 102.499 154.115L116.4 144.283C116.433 144.26 116.471 144.246 116.512 144.241C116.552 144.237 116.592 144.243 116.63 144.259C116.667 144.275 116.699 144.3 116.724 144.331C116.749 144.363 116.766 144.401 116.772 144.441L117.703 150.028C117.709 150.072 117.704 150.116 117.687 150.157C117.67 150.198 117.643 150.234 117.608 150.262L102.327 161.063C102.288 161.09 102.241 161.105 102.194 161.106ZM102.036 160.375L102.218 160.557L117.207 149.956L116.366 144.894L102.857 154.445L102.036 160.375Z" fill="#263238"/>
<path d="M110.221 101.813L100.699 112.094L97.4521 98.7855L98.4693 94.7075L110.221 101.813Z" fill="white"/>
<path d="M100.718 112.333H100.656C100.615 112.322 100.577 112.3 100.547 112.27C100.517 112.24 100.495 112.202 100.484 112.161L97.242 98.8523C97.2325 98.8147 97.2325 98.7754 97.242 98.7377L98.2591 94.6597C98.2687 94.6241 98.2861 94.591 98.31 94.5629C98.334 94.5349 98.3639 94.5125 98.3976 94.4974C98.431 94.481 98.4678 94.4724 98.505 94.4724C98.5423 94.4724 98.579 94.481 98.6125 94.4974L110.345 101.617C110.376 101.635 110.402 101.66 110.422 101.69C110.442 101.72 110.455 101.754 110.46 101.789C110.464 101.824 110.461 101.86 110.45 101.894C110.44 101.928 110.422 101.959 110.398 101.985L100.876 112.266C100.833 112.306 100.777 112.33 100.718 112.333ZM97.7195 98.7855L100.847 111.607L109.868 101.865L98.6459 95.08L97.7195 98.7855Z" fill="#263238"/>
<path d="M110.221 101.813L117.469 111.335L120.931 98.2459L119.742 95.2136L110.221 101.813Z" fill="white"/>
<path d="M117.469 111.574C117.433 111.573 117.397 111.565 117.364 111.549C117.331 111.533 117.302 111.511 117.278 111.483L110.03 101.932C110.01 101.907 109.995 101.878 109.988 101.847C109.98 101.815 109.98 101.783 109.987 101.751C109.991 101.719 110.003 101.689 110.02 101.662C110.037 101.634 110.06 101.611 110.087 101.593L119.604 94.9942C119.634 94.9737 119.669 94.9601 119.705 94.9543C119.741 94.9485 119.779 94.9507 119.814 94.9607C119.848 94.9731 119.879 94.9922 119.905 95.0168C119.931 95.0414 119.952 95.0711 119.967 95.104L121.156 98.1315C121.17 98.1798 121.17 98.2312 121.156 98.2795L117.694 111.373C117.683 111.417 117.66 111.456 117.626 111.487C117.593 111.518 117.552 111.538 117.507 111.545L117.469 111.574ZM110.564 101.87L117.364 110.805L120.683 98.2747L119.632 95.6006L110.564 101.87Z" fill="#263238"/>
<path d="M42.27 94.5834C42.27 94.5834 39.0229 87.9746 37.3993 85.8114C35.7757 83.6483 34.1474 82.3447 32.309 82.02C30.4705 81.6952 29.1669 81.8051 27.7582 81.2607C26.3496 80.7163 23.5322 79.9619 22.7777 78.9877C22.0233 78.0136 20.6098 78.663 21.2592 80.2866C21.9087 81.9101 24.1864 82.9941 24.1864 82.9941L26.0248 83.8584C26.0248 83.8584 20.0702 84.7275 19.6357 85.0522C19.2011 85.3769 14.001 85.8114 14.001 85.8114C14.001 85.8114 16.2787 89.8178 19.5258 91.661C22.773 93.5042 32.9584 91.9857 32.9584 91.9857L35.9906 98.3749L42.27 94.5834Z" fill="white"/>
<path d="M35.991 98.6135H35.9194C35.8879 98.6031 35.8589 98.5863 35.8342 98.5641C35.8095 98.5419 35.7898 98.5148 35.7762 98.4845L32.8156 92.2768C31.383 92.4774 22.4964 93.6473 19.4117 91.8996C16.1407 90.0134 13.8916 86.093 13.8104 85.9258C13.7916 85.8906 13.7817 85.8512 13.7817 85.8112C13.7817 85.7713 13.7916 85.7319 13.8104 85.6966C13.829 85.6614 13.8563 85.6315 13.8898 85.6097C13.9232 85.588 13.9616 85.5752 14.0014 85.5725C16.4797 85.3671 19.2207 85.0424 19.5167 84.861C19.894 84.5745 23.3368 84.0205 25.2469 83.7388L24.12 83.2088C24.0245 83.1658 21.7324 82.0675 21.0782 80.3771C20.6628 79.3361 21.0209 78.6771 21.4554 78.4288C21.7188 78.2956 22.0219 78.2639 22.3072 78.3396C22.5925 78.4153 22.8399 78.5932 23.0026 78.8395C23.547 79.5414 25.3902 80.1765 26.7559 80.6397C27.1761 80.783 27.5676 80.9167 27.8828 81.0361C28.7158 81.3287 29.585 81.5055 30.4662 81.5613C31.0487 81.6186 31.6552 81.6807 32.3476 81.8049C34.1813 82.1248 35.843 83.3616 37.6003 85.6871C39.2191 87.8454 42.3754 94.2251 42.4948 94.4973C42.5214 94.5509 42.5268 94.6126 42.51 94.6701C42.4932 94.7276 42.4554 94.7767 42.4041 94.8076L36.1247 98.5991C36.082 98.6146 36.0361 98.6195 35.991 98.6135ZM32.9588 91.7468C33.0037 91.7461 33.0478 91.7583 33.0859 91.7821C33.124 91.8058 33.1545 91.8399 33.1737 91.8805L36.0913 98.0309L41.9839 94.4925C41.43 93.3799 38.6413 87.8693 37.2087 85.9545C35.5374 83.7293 33.9711 82.5546 32.2664 82.2537C31.5883 82.1343 30.9914 82.077 30.4184 82.0197C29.4781 81.97 28.5492 81.79 27.6584 81.4849C27.348 81.3655 26.966 81.2318 26.5505 81.0934C25.0607 80.5824 23.2079 79.9473 22.5728 79.1355C22.4801 78.9815 22.3344 78.8665 22.163 78.812C21.9917 78.7575 21.8064 78.7673 21.6417 78.8395C21.3695 78.9971 21.1641 79.4412 21.4698 80.1956C22.0762 81.7189 24.2489 82.7694 24.2728 82.779L26.1112 83.6433C26.1578 83.6658 26.1962 83.7023 26.221 83.7477C26.2458 83.793 26.2559 83.845 26.2497 83.8964C26.2411 83.9473 26.2166 83.9941 26.1797 84.0301C26.1428 84.0662 26.0954 84.0896 26.0444 84.0969C23.2318 84.5076 20.0754 85.052 19.7602 85.243C19.3496 85.5534 15.9401 85.8829 14.393 86.0166C15.009 86.9716 17.0098 89.9656 19.6456 91.4507C22.7877 93.2318 32.8203 91.7611 32.9206 91.7468H32.9588Z" fill="#263238"/>
<path d="M11.9526 84.7416C11.9526 84.7416 10.2813 81.1841 10.4198 80.4153C10.5583 79.6465 12.0242 80.1384 12.5113 81.1841C12.9984 82.2299 14.6744 84.7416 14.6744 84.7416H11.9526Z" fill="white"/>
<path d="M14.6743 84.9803H11.9524C11.9073 84.9794 11.8633 84.966 11.8254 84.9416C11.7874 84.9171 11.757 84.8826 11.7376 84.8419C11.4511 84.2354 10.0376 81.1745 10.1856 80.3723C10.2079 80.2236 10.2801 80.0868 10.3903 79.9844C10.5004 79.8821 10.6421 79.8202 10.7921 79.8088C11.2027 79.8164 11.6028 79.9402 11.9459 80.1658C12.289 80.3915 12.5612 80.7098 12.7308 81.0838C13.2083 82.1057 14.8557 84.5888 14.8748 84.6127C14.8976 84.6491 14.9103 84.6909 14.9117 84.7338C14.9131 84.7768 14.9031 84.8193 14.8827 84.8571C14.8623 84.8949 14.8323 84.9267 14.7957 84.9492C14.7591 84.9717 14.7172 84.9841 14.6743 84.9851V84.9803ZM12.1053 84.5028H14.2302C13.5316 83.4634 12.8861 82.3892 12.2963 81.2844C12.1699 81.0037 11.97 80.7624 11.7179 80.5859C11.4658 80.4094 11.1706 80.3043 10.8637 80.2816C10.7109 80.2816 10.6775 80.3771 10.6632 80.4583C10.5676 80.9453 11.4749 83.1371 12.1053 84.5028Z" fill="#263238"/>
<path d="M8.98682 83.0466C8.98682 83.0466 11.5845 88.5715 13.3179 90.0852C15.0513 91.599 18.518 91.7136 18.518 91.7136C18.518 91.7136 14.4019 87.3777 13.5375 85.7542C12.6732 84.1306 9.51208 80.2293 8.98682 83.0466Z" fill="white"/>
<path d="M18.5184 91.952C18.3751 91.952 14.9466 91.8231 13.1702 90.2664C11.3938 88.7097 8.87255 83.3758 8.78182 83.1466C8.76543 83.1003 8.76543 83.0497 8.78182 83.0033C8.91553 82.2918 9.22591 81.8955 9.69865 81.8239C11.0452 81.6186 13.132 84.4359 13.7766 85.644C14.6171 87.2198 18.6807 91.5031 18.7189 91.5461C18.7498 91.5805 18.7702 91.623 18.7778 91.6686C18.7854 91.7142 18.7799 91.7611 18.7618 91.8036C18.7438 91.8462 18.714 91.8828 18.676 91.909C18.638 91.9353 18.5932 91.9502 18.547 91.952H18.5184ZM9.23546 83.0177C9.54585 83.6671 11.9048 88.533 13.4758 89.9082C14.6983 90.9779 16.871 91.3408 17.9215 91.4267C16.8423 90.2712 14.0393 87.2055 13.323 85.8684C12.6067 84.5314 10.6919 82.1486 9.74163 82.2966C9.51242 82.3348 9.33574 82.5736 9.23546 83.0177Z" fill="#263238"/>
<path d="M11.0786 83.5336C11.0786 83.5336 13.6763 89.0584 15.4097 90.5769C17.1431 92.0955 20.6098 92.2005 20.6098 92.2005C20.6098 92.2005 16.4937 87.8694 15.6293 86.2411C14.765 84.6128 11.6182 80.721 11.0786 83.5336Z" fill="white"/>
<path d="M20.6097 92.4394C20.4664 92.4394 17.0426 92.3105 15.2615 90.7538C13.4804 89.1971 10.9638 83.8632 10.8731 83.6388C10.8567 83.5908 10.8567 83.5387 10.8731 83.4908C11.01 82.7808 11.3156 82.3893 11.79 82.3161C13.1413 82.106 15.2233 84.9233 15.8679 86.1362C16.7084 87.712 20.772 91.9953 20.8102 92.0431C20.843 92.0764 20.8651 92.1187 20.8736 92.1647C20.8821 92.2107 20.8767 92.2581 20.858 92.3009C20.8363 92.3471 20.8007 92.3853 20.7561 92.4102C20.7116 92.435 20.6604 92.4453 20.6097 92.4394ZM11.3268 83.5051C11.6371 84.1545 13.9961 89.0204 15.5671 90.3957C16.7943 91.4653 18.9623 91.8282 20.0176 91.9142C18.9336 90.7586 16.1306 87.6977 15.4191 86.3559C14.7076 85.014 12.7832 82.6456 11.8329 82.7888C11.5942 82.8222 11.4223 83.0658 11.3268 83.5051Z" fill="#263238"/>
<path d="M34.5819 89.1681C34.5819 89.1681 34.0375 88.299 32.1943 87.11C30.3511 85.9209 20.605 88.9484 20.605 88.9484C20.605 88.9484 16.1641 83.4283 15.5147 82.8839C14.8652 82.3396 13.6715 82.0196 13.4566 83.1036C13.2417 84.1876 16.1641 88.8338 16.9233 89.6026C17.6826 90.3714 20.605 92.2003 20.605 92.2003C22.3814 92.8112 24.2517 93.1038 26.1299 93.0646C28.4309 92.8989 30.7137 92.5379 32.9536 91.9854" fill="white"/>
<path d="M25.6719 93.3132C23.9194 93.296 22.1812 92.9961 20.5243 92.425L20.4956 92.4011C20.3762 92.3247 17.5398 90.5388 16.7758 89.77C16.1025 89.0967 12.989 84.312 13.2421 83.0561C13.2653 82.8675 13.34 82.6889 13.4579 82.5398C13.5758 82.3907 13.7324 82.277 13.9107 82.2109C14.2234 82.1442 14.5475 82.1527 14.8563 82.2358C15.1652 82.3188 15.4499 82.4739 15.687 82.6885C16.2982 83.1994 20.0276 87.8122 20.7105 88.6622C22.2529 88.1847 30.5378 85.7255 32.3428 86.8954C34.1478 88.0653 34.7734 88.9917 34.7972 89.0251C34.8146 89.0515 34.8263 89.0812 34.8319 89.1123C34.8374 89.1435 34.8366 89.1754 34.8294 89.2062C34.8223 89.237 34.809 89.266 34.7903 89.2915C34.7717 89.317 34.748 89.3385 34.7208 89.3546C34.6948 89.3718 34.6655 89.3835 34.6347 89.389C34.6039 89.3945 34.5724 89.3936 34.542 89.3865C34.5116 89.3793 34.483 89.366 34.4579 89.3474C34.4328 89.3288 34.4118 89.3052 34.3961 89.2782C33.7505 88.4779 32.962 87.8044 32.0706 87.2917C30.6381 86.3606 23.3607 88.3232 20.6818 89.1588C20.6362 89.1734 20.5871 89.174 20.5411 89.1604C20.4951 89.1467 20.4543 89.1196 20.424 89.0824C18.8959 87.1723 15.8685 83.4668 15.3671 83.0514C15.1935 82.8881 14.9851 82.7663 14.7577 82.6951C14.5302 82.624 14.2896 82.6054 14.0539 82.6407C13.9567 82.6806 13.8721 82.746 13.809 82.8301C13.746 82.9142 13.7069 83.0137 13.6958 83.1182C13.5143 84.0159 16.2696 88.5715 17.0957 89.3976C17.7929 90.0947 20.4383 91.7851 20.7153 91.9523C22.4575 92.539 24.2874 92.8233 26.1255 92.7927C28.4125 92.6361 30.6823 92.2879 32.911 91.7517C32.9744 91.7365 33.0411 91.7471 33.0967 91.7811C33.1522 91.8152 33.1919 91.8699 33.2071 91.9332C33.2223 91.9965 33.2117 92.0633 33.1777 92.1188C33.1437 92.1743 33.089 92.214 33.0256 92.2292C30.77 92.7854 28.4713 93.1496 26.1542 93.318C25.9823 93.3132 25.8247 93.3132 25.6719 93.3132Z" fill="#263238"/>
<path d="M46.052 100.251L42.1507 93.3513L32.7007 99.0529L35.0978 104.907L46.052 100.251Z" fill="white"/>
<path d="M35.0979 105.146C35.0678 105.15 35.0372 105.15 35.0071 105.146C34.9491 105.121 34.9029 105.075 34.8782 105.017L32.4906 99.1627C32.4699 99.1094 32.4687 99.0506 32.487 98.9964C32.5053 98.9423 32.5421 98.8964 32.5909 98.8666L42.041 93.1651C42.0703 93.1523 42.102 93.1458 42.1341 93.1458C42.1661 93.1458 42.1978 93.1523 42.2272 93.1651C42.2888 93.1813 42.3418 93.2207 42.3752 93.2749L46.2813 100.137C46.2942 100.167 46.3008 100.2 46.3008 100.232C46.3008 100.265 46.2942 100.298 46.2813 100.328C46.2707 100.36 46.2533 100.389 46.2302 100.414C46.2071 100.439 46.1789 100.458 46.1476 100.471L35.1934 105.127C35.1627 105.138 35.1305 105.145 35.0979 105.146ZM32.9968 99.1531L35.2268 104.592L45.7322 100.137L42.0839 93.6808L32.9968 99.1531Z" fill="#263238"/>
<path d="M97.4519 98.7854L93.7702 200.497H67.0627L72.4634 128.019C72.4634 128.019 57.9087 143.925 56.2565 144.823C54.6043 145.721 52.508 142.875 52.508 142.875L32.8486 104.306L44.5526 97.8543L57.4455 118.865L59.3938 117.514L60.8932 118.263C60.8932 118.263 74.2637 94.7075 75.2999 94.1058C76.3361 93.5041 81.3022 93.8049 81.3022 93.8049L94.1952 94.8555L98.5645 93.9004L97.4519 98.7854Z" fill="#FFFD00"/>
<path d="M93.7697 200.73H67.0622C67.0291 200.73 66.9964 200.724 66.966 200.71C66.9356 200.697 66.9082 200.678 66.8855 200.654C66.861 200.629 66.8419 200.599 66.8296 200.566C66.8173 200.533 66.8119 200.498 66.8139 200.463L72.1621 128.673C69.6217 131.443 57.8795 144.193 56.361 145.019C54.5512 146.007 52.3929 143.109 52.3021 142.999L32.6332 104.415C32.6058 104.359 32.6009 104.295 32.6195 104.235C32.6382 104.176 32.679 104.126 32.7335 104.095L44.4374 97.6442C44.4912 97.6151 44.554 97.6073 44.6133 97.6223C44.6725 97.6373 44.724 97.6741 44.7574 97.7254L57.5262 118.521L59.2739 117.313C59.3102 117.292 59.3514 117.281 59.3933 117.281C59.4352 117.281 59.4764 117.292 59.5126 117.313L60.8115 117.963C62.6213 114.773 74.1438 94.5117 75.1943 93.9148C76.2448 93.3179 80.8147 93.5519 81.3304 93.5805L94.2233 94.631L98.5544 93.676C98.5933 93.6667 98.6339 93.6676 98.6723 93.6784C98.7108 93.6893 98.7458 93.7098 98.7741 93.7381C98.8023 93.7673 98.8228 93.8032 98.8337 93.8424C98.8445 93.8816 98.8454 93.9229 98.8361 93.9625L97.7092 98.8189L94.0323 200.496C94.0311 200.529 94.0233 200.562 94.0093 200.591C93.9954 200.621 93.9755 200.648 93.951 200.67C93.9264 200.691 93.8977 200.708 93.8666 200.719C93.8354 200.729 93.8025 200.733 93.7697 200.73ZM67.32 200.253H93.5548L97.2269 98.7759C97.2251 98.76 97.2251 98.744 97.2269 98.7281L98.2727 94.2156L94.2759 95.0847H94.2042L81.3113 94.0341C79.9599 93.953 76.2592 93.8384 75.4474 94.3016C74.6451 94.8459 66.4462 108.995 61.1219 118.373C61.0917 118.427 61.0421 118.466 60.9834 118.484C60.9247 118.502 60.8615 118.496 60.8067 118.469L59.4315 117.781L57.5978 119.051C57.5712 119.07 57.5408 119.084 57.5087 119.09C57.4767 119.097 57.4436 119.096 57.4116 119.089C57.38 119.082 57.3502 119.069 57.3239 119.05C57.2976 119.031 57.2755 119.007 57.2588 118.98L44.4661 98.1694L33.168 104.401L52.7176 142.76C52.7176 142.76 54.6945 145.401 56.1414 144.608C57.4211 143.911 67.2627 133.343 72.2862 127.852C72.3199 127.815 72.3643 127.79 72.4131 127.779C72.4619 127.769 72.5127 127.774 72.5584 127.795C72.6038 127.815 72.6419 127.849 72.6675 127.891C72.6931 127.934 72.705 127.984 72.7017 128.033L67.32 200.253Z" fill="#263238"/>
<path d="M72.6114 125.76L73.5426 116.497L66.5947 134.165L72.4634 128.014L72.6114 125.76Z" fill="#263238"/>
<path d="M66.5945 134.403C66.5487 134.403 66.504 134.39 66.4656 134.365C66.4191 134.336 66.3841 134.291 66.3667 134.239C66.3493 134.187 66.3505 134.13 66.3701 134.079L73.3227 116.41C73.344 116.357 73.3834 116.313 73.4341 116.286C73.4848 116.259 73.5434 116.25 73.5997 116.262C73.6561 116.276 73.7056 116.31 73.739 116.357C73.7724 116.405 73.7874 116.463 73.7811 116.52L72.8261 125.784L72.678 128.028C72.6737 128.084 72.6501 128.136 72.6112 128.176L66.7664 134.327C66.7448 134.351 66.7183 134.37 66.6886 134.384C66.659 134.397 66.6269 134.403 66.5945 134.403ZM73.1317 118.168L67.263 133.133L72.2292 127.923L72.3724 125.76L73.1317 118.168Z" fill="#263238"/>
<path d="M71.8617 119.4C71.8046 119.399 71.7496 119.378 71.7067 119.341C71.6638 119.303 71.6357 119.251 71.6278 119.195C71.475 118.149 70.4674 104.024 70.4244 103.436C70.4222 103.405 70.4262 103.374 70.4362 103.344C70.4462 103.314 70.4619 103.286 70.4825 103.263C70.5242 103.215 70.5831 103.185 70.6465 103.181C70.7098 103.177 70.7723 103.197 70.8202 103.239C70.8681 103.281 70.8975 103.34 70.9019 103.403C70.9019 103.551 71.9525 118.111 72.1005 119.161C72.1086 119.224 72.0916 119.287 72.0531 119.337C72.0146 119.387 71.9578 119.42 71.8952 119.429L71.8617 119.4Z" fill="#263238"/>
<path d="M70.6632 124.8C70.606 124.801 70.5504 124.781 70.5066 124.745C70.4627 124.708 70.4336 124.656 70.4244 124.6L68.777 114.095C68.7716 114.064 68.7723 114.032 68.7793 114.002C68.7862 113.971 68.7992 113.943 68.8175 113.917C68.8357 113.892 68.8589 113.87 68.8855 113.854C68.9122 113.838 68.9419 113.827 68.9728 113.822C69.0361 113.813 69.1006 113.828 69.1524 113.866C69.2042 113.903 69.2392 113.96 69.2498 114.023L70.8972 124.528C70.9026 124.559 70.9019 124.591 70.8949 124.621C70.888 124.652 70.875 124.68 70.8567 124.706C70.8385 124.731 70.8153 124.753 70.7887 124.769C70.762 124.785 70.7323 124.796 70.7014 124.8H70.6632Z" fill="#263238"/>
<path d="M53.4054 128.401C53.371 128.41 53.3348 128.41 53.3004 128.401C53.2445 128.373 53.2018 128.325 53.1813 128.266C53.1607 128.207 53.1641 128.142 53.1906 128.086L57.0919 119.968C57.1039 119.938 57.122 119.91 57.1452 119.887C57.1684 119.863 57.1961 119.845 57.2266 119.833C57.2571 119.821 57.2897 119.816 57.3225 119.817C57.3553 119.818 57.3874 119.826 57.417 119.84C57.4466 119.854 57.473 119.874 57.4945 119.899C57.516 119.924 57.5321 119.953 57.5419 119.984C57.5517 120.015 57.555 120.048 57.5515 120.081C57.548 120.113 57.5378 120.145 57.5216 120.173L53.6203 128.291C53.5983 128.328 53.5665 128.357 53.5285 128.377C53.4906 128.396 53.4479 128.405 53.4054 128.401Z" fill="#263238"/>
<path d="M57.6079 125.851C57.5716 125.85 57.5358 125.842 57.5028 125.827C57.4466 125.798 57.4038 125.749 57.3833 125.689C57.3628 125.63 57.3663 125.564 57.393 125.507L60.5446 119.204C60.5583 119.176 60.5775 119.15 60.6012 119.13C60.6248 119.109 60.6524 119.093 60.6823 119.083C60.7121 119.074 60.7437 119.07 60.775 119.073C60.8063 119.075 60.8368 119.084 60.8645 119.099C60.8928 119.113 60.9181 119.132 60.9389 119.155C60.9597 119.179 60.9757 119.206 60.9859 119.236C60.9961 119.266 61.0003 119.297 60.9984 119.329C60.9964 119.36 60.9882 119.391 60.9744 119.419L57.8228 125.717C57.8031 125.757 57.7725 125.791 57.7345 125.815C57.6965 125.839 57.6526 125.851 57.6079 125.851Z" fill="#263238"/>
<path d="M92.5715 145.806C92.5221 145.808 92.4736 145.793 92.4331 145.765C92.3927 145.737 92.3625 145.696 92.3471 145.649C90.0407 139.198 88.3025 129.203 87.2472 121.95C87.239 121.888 87.2554 121.825 87.2929 121.775C87.3304 121.725 87.386 121.692 87.4478 121.682C87.5103 121.674 87.5736 121.69 87.6243 121.728C87.6751 121.765 87.7094 121.821 87.7199 121.883C88.7705 129.112 90.5039 139.073 92.7959 145.491C92.8064 145.521 92.8109 145.552 92.8091 145.583C92.8072 145.614 92.7992 145.645 92.7854 145.673C92.7716 145.701 92.7523 145.726 92.7287 145.746C92.7051 145.767 92.6776 145.782 92.6479 145.792C92.6235 145.802 92.5976 145.806 92.5715 145.806Z" fill="#263238"/>
<path d="M87.0136 118.76C86.9559 118.76 86.9003 118.739 86.8566 118.701C86.8128 118.663 86.7839 118.612 86.7748 118.555C86.4883 116.377 86.3307 114.997 86.3307 114.988C86.3262 114.943 86.334 114.898 86.3534 114.857C86.3728 114.817 86.4029 114.783 86.4406 114.758L91.9225 111.191L85.1799 110.093C85.138 110.087 85.0984 110.069 85.0656 110.042C85.0328 110.015 85.008 109.98 84.9937 109.94C84.9794 109.9 84.9758 109.857 84.9833 109.815C84.9909 109.773 85.0093 109.734 85.0367 109.701C85.0367 109.701 86.5456 107.887 88.0212 105.671C89.4967 103.456 94.2719 96.1209 94.3196 96.0731C94.3547 96.0197 94.4095 95.9822 94.4721 95.9688C94.5346 95.9554 94.5999 95.9671 94.6539 96.0015C94.7062 96.0365 94.7426 96.0907 94.7551 96.1525C94.7676 96.2142 94.7553 96.2783 94.7207 96.331C94.673 96.4074 89.9026 103.713 88.4175 105.939C87.2953 107.619 86.1636 109.066 85.6622 109.687L92.6005 110.824C92.6482 110.831 92.6924 110.853 92.7273 110.886C92.7623 110.92 92.7863 110.963 92.7963 111.01C92.8052 111.057 92.8 111.106 92.7813 111.15C92.7626 111.194 92.7313 111.232 92.6913 111.258L86.813 115.078C86.8608 115.484 87.004 116.726 87.238 118.493C87.2462 118.555 87.2291 118.619 87.1906 118.669C87.1521 118.719 87.0953 118.752 87.0327 118.76H87.0136Z" fill="#263238"/>
<path d="M176.037 94.5834C176.037 94.5834 179.284 87.9746 180.913 85.8114C182.541 83.6483 184.16 82.3447 186.003 82.02C187.846 81.6952 189.14 81.8051 190.549 81.2607C191.958 80.7163 194.775 79.9619 195.534 78.9877C196.293 78.0136 197.697 78.663 197.048 80.2866C196.398 81.9101 194.125 82.9941 194.125 82.9941L192.282 83.8584C192.282 83.8584 198.242 84.7275 198.671 85.0522C199.101 85.3769 204.306 85.8114 204.306 85.8114C204.306 85.8114 202.028 89.8178 198.781 91.661C195.534 93.5042 185.353 91.9857 185.353 91.9857L182.321 98.3749L176.037 94.5834Z" fill="white"/>
<path d="M182.316 98.6136C182.274 98.6122 182.233 98.6007 182.197 98.5802L175.912 94.7887C175.862 94.7571 175.825 94.708 175.808 94.6508C175.791 94.5936 175.796 94.5322 175.822 94.4783C175.955 94.2062 179.102 87.8265 180.721 85.6682C182.464 83.3427 184.13 82.1059 185.974 81.786C186.666 81.6618 187.273 81.5997 187.855 81.5424C188.748 81.4967 189.631 81.3263 190.477 81.0363C190.797 80.9169 191.183 80.7832 191.604 80.6399C192.96 80.1624 194.813 79.5416 195.357 78.8397C195.519 78.5926 195.766 78.414 196.052 78.3382C196.337 78.2624 196.641 78.2948 196.904 78.429C197.339 78.6773 197.702 79.3363 197.286 80.3773C196.608 82.0677 194.335 83.166 194.24 83.209L193.113 83.739C194.984 84.0207 198.446 84.5747 198.843 84.8612C199.134 85.0426 201.875 85.3673 204.353 85.5727C204.393 85.5752 204.432 85.588 204.466 85.6097C204.499 85.6315 204.527 85.6616 204.546 85.6971C204.564 85.7326 204.574 85.7723 204.572 85.8123C204.571 85.8524 204.56 85.8916 204.54 85.926C204.449 86.0932 202.195 90.0136 198.929 91.8663C195.844 93.614 186.934 92.4441 185.52 92.2436L182.564 98.4513C182.55 98.4817 182.529 98.5088 182.504 98.531C182.478 98.5532 182.448 98.5699 182.416 98.5802L182.316 98.6136ZM176.347 94.4927L182.216 98.0311L185.133 91.8807C185.156 91.8345 185.193 91.7967 185.238 91.7727C185.284 91.7487 185.335 91.7397 185.386 91.747C185.487 91.747 195.524 93.232 198.661 91.4509C201.283 89.9658 203.288 86.9957 203.914 86.0168C202.381 85.883 198.957 85.5392 198.542 85.2432C198.236 85.0474 195.075 84.5078 192.263 84.0971C192.212 84.0903 192.165 84.0669 192.128 84.0307C192.092 83.9945 192.069 83.9474 192.062 83.8966C192.054 83.8456 192.063 83.7934 192.087 83.7478C192.111 83.7022 192.149 83.6656 192.196 83.6435L194.034 82.7792C194.058 82.7792 196.236 81.7143 196.842 80.1958C197.143 79.4413 196.937 78.9973 196.67 78.8397C196.503 78.7618 196.312 78.749 196.136 78.8037C195.959 78.8584 195.809 78.9767 195.715 79.1357C195.085 79.9475 193.227 80.5683 191.737 81.0936C191.327 81.232 190.945 81.3657 190.63 81.4851C189.743 81.7889 188.819 81.9689 187.884 82.0199C187.311 82.0772 186.714 82.1345 186.036 82.2539C184.336 82.5548 182.765 83.7294 181.098 85.9547C179.666 87.8695 176.901 93.3801 176.347 94.4927Z" fill="#263238"/>
<path d="M206.354 84.7416C206.354 84.7416 208.025 81.1841 207.887 80.4153C207.749 79.6465 206.283 80.1384 205.795 81.1841C205.308 82.2299 203.632 84.7416 203.632 84.7416H206.354Z" fill="white"/>
<path d="M206.354 84.9803H203.632C203.589 84.979 203.547 84.9664 203.51 84.9438C203.473 84.9212 203.443 84.8893 203.422 84.8514C203.399 84.8151 203.386 84.7728 203.386 84.7296C203.386 84.6864 203.399 84.6442 203.422 84.6079C203.422 84.6079 205.089 82.1009 205.566 81.079C205.733 80.7092 206.001 80.3939 206.339 80.1692C206.676 79.9445 207.071 79.8196 207.476 79.8088C207.626 79.8202 207.768 79.8821 207.878 79.9844C207.988 80.0868 208.06 80.2236 208.083 80.3723C208.231 81.1745 206.817 84.2354 206.531 84.8419C206.515 84.8774 206.49 84.9086 206.459 84.9327C206.429 84.9568 206.392 84.9731 206.354 84.9803ZM204.076 84.5028H206.201C206.836 83.1371 207.739 80.9453 207.634 80.4583C207.634 80.3771 207.586 80.3007 207.433 80.2816C207.126 80.3048 206.832 80.4101 206.58 80.5866C206.327 80.763 206.128 81.004 206.001 81.2844C205.414 82.389 204.772 83.4632 204.076 84.5028Z" fill="#263238"/>
<path d="M209.32 83.0466C209.32 83.0466 206.722 88.5715 204.989 90.0852C203.255 91.599 199.789 91.7136 199.789 91.7136C199.789 91.7136 203.905 87.3777 204.774 85.7542C205.643 84.1306 208.78 80.2293 209.32 83.0466Z" fill="white"/>
<path d="M199.788 91.9522C199.743 91.9515 199.698 91.9376 199.66 91.9122C199.622 91.8868 199.592 91.851 199.573 91.809C199.554 91.7658 199.548 91.7179 199.556 91.6713C199.564 91.6246 199.585 91.5812 199.616 91.5463C199.659 91.5034 203.723 87.22 204.564 85.6442C205.208 84.4361 207.295 81.614 208.642 81.8241C209.119 81.8957 209.42 82.3016 209.554 83.0036C209.568 83.0502 209.568 83.1002 209.554 83.1468C209.444 83.376 206.913 88.7338 205.16 90.2666C203.408 91.7994 199.956 91.9475 199.812 91.9522H199.788ZM208.484 82.2921C207.529 82.2921 205.662 84.5985 204.984 85.8687C204.306 87.1389 201.464 90.2714 200.385 91.427C201.436 91.3219 203.609 90.9781 204.831 89.9085C206.402 88.5332 208.761 83.6673 209.071 83.0179C208.976 82.5738 208.804 82.335 208.57 82.2968L208.484 82.2921Z" fill="#263238"/>
<path d="M207.228 83.5336C207.228 83.5336 204.631 89.0584 202.897 90.5769C201.164 92.0955 197.697 92.2005 197.697 92.2005C197.697 92.2005 201.813 87.8694 202.683 86.2411C203.552 84.6128 206.689 80.721 207.228 83.5336Z" fill="white"/>
<path d="M197.697 92.4393C197.651 92.4386 197.606 92.4246 197.568 92.3992C197.53 92.3738 197.5 92.338 197.482 92.2961C197.461 92.254 197.454 92.2065 197.462 92.1602C197.47 92.114 197.492 92.0713 197.525 92.0382C197.568 91.9904 201.627 87.7071 202.467 86.1313C203.112 84.9232 205.189 82.1059 206.545 82.3112C207.023 82.3828 207.328 82.7887 207.462 83.4859C207.478 83.5339 207.478 83.5859 207.462 83.6339C207.357 83.8583 204.821 89.2209 203.074 90.7489C201.326 92.277 197.869 92.4298 197.725 92.4345L197.697 92.4393ZM206.392 82.7792C205.414 82.7792 203.566 85.0856 202.892 86.3557C202.176 87.6976 199.373 90.7585 198.294 91.914C199.344 91.809 201.517 91.4652 202.739 90.3955C204.31 89.0203 206.669 84.1544 206.98 83.505C206.884 83.0657 206.712 82.8221 206.474 82.7887L206.392 82.7792Z" fill="#263238"/>
<path d="M183.725 89.1681C183.725 89.1681 184.269 88.299 186.112 87.11C187.955 85.9209 197.702 88.9484 197.702 88.9484C197.702 88.9484 202.142 83.4283 202.792 82.8839C203.441 82.3396 204.635 82.0196 204.85 83.1036C205.065 84.1876 202.142 88.8338 201.383 89.6026C200.624 90.3714 197.702 92.2003 197.702 92.2003C195.925 92.8112 194.055 93.1038 192.177 93.0646C189.877 92.8992 187.596 92.5381 185.358 91.9854" fill="white"/>
<path d="M192.64 93.3134C192.483 93.3134 192.325 93.3134 192.163 93.3134C189.846 93.1455 187.547 92.7813 185.291 92.2246C185.228 92.2094 185.173 92.1697 185.139 92.1142C185.105 92.0586 185.095 91.9919 185.11 91.9286C185.125 91.8652 185.165 91.8105 185.22 91.7765C185.276 91.7425 185.342 91.7319 185.406 91.7471C187.629 92.2947 189.894 92.6541 192.177 92.8215C194.015 92.8552 195.846 92.5709 197.587 91.9811C197.855 91.8092 200.51 90.1236 201.207 89.4264C202.033 88.6003 204.788 84.0448 204.607 83.147C204.597 83.0422 204.558 82.9422 204.495 82.858C204.432 82.7737 204.346 82.7085 204.249 82.6695C204.013 82.6346 203.772 82.6534 203.545 82.7245C203.318 82.7956 203.109 82.9172 202.935 83.0802C202.458 83.4956 199.411 87.2059 197.879 89.1112C197.848 89.1484 197.807 89.1755 197.761 89.1892C197.715 89.2028 197.666 89.2023 197.621 89.1876C194.942 88.3567 187.669 86.3941 186.232 87.3205C184.475 88.457 183.93 89.2974 183.926 89.3022C183.892 89.356 183.838 89.3943 183.777 89.4087C183.715 89.423 183.65 89.4122 183.596 89.3786C183.542 89.3451 183.504 89.2915 183.49 89.2297C183.475 89.1679 183.486 89.103 183.52 89.0491C183.52 89.0157 184.112 88.1275 185.974 86.9194C187.836 85.7113 196.064 88.2087 197.611 88.6862C198.294 87.8362 202.019 83.2234 202.63 82.7125C202.868 82.4993 203.153 82.345 203.461 82.262C203.77 82.1791 204.093 82.1698 204.406 82.235C204.585 82.3001 204.742 82.4136 204.86 82.5628C204.978 82.7121 205.053 82.8912 205.075 83.0802C205.328 84.336 202.21 89.1208 201.546 89.7941C200.777 90.5629 197.941 92.3488 197.821 92.4252L197.778 92.4491C196.123 93.0119 194.388 93.3037 192.64 93.3134Z" fill="#263238"/>
<path d="M172.255 100.251L176.156 93.3513L185.611 99.0529L183.209 104.907L172.255 100.251Z" fill="white"/>
<path d="M183.209 105.146C183.178 105.15 183.145 105.15 183.114 105.146L172.16 100.49C172.128 100.478 172.101 100.459 172.078 100.434C172.056 100.409 172.039 100.379 172.031 100.347C172.017 100.317 172.009 100.284 172.009 100.251C172.009 100.218 172.017 100.186 172.031 100.156L175.932 93.251C175.965 93.1967 176.018 93.1574 176.08 93.1411C176.109 93.1284 176.141 93.1218 176.173 93.1218C176.205 93.1218 176.237 93.1284 176.266 93.1411L185.716 98.8475C185.764 98.8779 185.8 98.9242 185.817 98.9783C185.835 99.0323 185.833 99.0908 185.812 99.1435L183.424 104.998C183.4 105.056 183.353 105.102 183.295 105.127C183.268 105.137 183.239 105.144 183.209 105.146ZM172.594 100.137L183.099 104.592L185.329 99.1531L176.257 93.6807L172.594 100.137Z" fill="#263238"/>
<path d="M120.855 98.7854L124.537 200.497H151.249L145.843 128.014C145.843 128.014 160.398 143.92 162.05 144.818C163.702 145.716 165.804 142.87 165.804 142.87L185.458 104.306L173.778 97.8543L160.885 118.865L158.932 117.514L157.433 118.263C157.433 118.263 144.062 94.7075 143.026 94.1058C141.99 93.5041 137.024 93.8049 137.024 93.8049L124.131 94.8555L119.355 93.9004L120.855 98.7854Z" fill="#FFFD00"/>
<path d="M151.249 200.73H124.537C124.474 200.729 124.415 200.704 124.371 200.661C124.326 200.617 124.3 200.559 124.298 200.496L120.616 98.8236L119.069 93.9768C119.057 93.9366 119.055 93.8939 119.065 93.8529C119.074 93.8119 119.093 93.774 119.122 93.7428C119.149 93.7117 119.184 93.6882 119.224 93.6748C119.263 93.6614 119.305 93.6585 119.346 93.6664L124.121 94.6215L136.99 93.5709C137.511 93.5423 142.052 93.2844 143.131 93.9052C144.21 94.526 155.704 114.763 157.514 117.953L158.813 117.304C158.85 117.283 158.892 117.272 158.935 117.272C158.977 117.272 159.019 117.283 159.056 117.304L160.799 118.512L173.573 97.7158C173.605 97.6649 173.656 97.6282 173.714 97.6132C173.773 97.5981 173.835 97.6058 173.888 97.6346L185.592 104.086C185.646 104.116 185.687 104.166 185.706 104.226C185.725 104.285 185.72 104.35 185.692 104.406L166.033 142.97C165.923 143.123 163.769 146.012 161.955 145.019C160.441 144.192 148.699 131.443 146.154 128.673L151.488 200.463C151.49 200.496 151.485 200.53 151.473 200.561C151.462 200.592 151.444 200.621 151.421 200.644C151.4 200.67 151.374 200.692 151.344 200.706C151.315 200.721 151.282 200.729 151.249 200.73ZM124.766 200.253H150.991L145.605 128.033C145.601 127.983 145.613 127.933 145.64 127.89C145.666 127.847 145.706 127.814 145.753 127.795C145.797 127.774 145.848 127.769 145.896 127.779C145.944 127.789 145.988 127.815 146.02 127.852C151.048 133.343 160.885 143.911 162.165 144.594C163.597 145.386 165.589 142.741 165.613 142.712L185.143 104.387L173.84 98.1551L161.052 118.97C161.036 118.998 161.014 119.022 160.988 119.041C160.961 119.06 160.931 119.073 160.9 119.08C160.868 119.087 160.834 119.087 160.802 119.081C160.77 119.074 160.74 119.061 160.713 119.042L158.88 117.771L157.504 118.459C157.45 118.486 157.388 118.492 157.33 118.474C157.272 118.456 157.223 118.417 157.194 118.364C151.874 108.985 143.675 94.8363 142.868 94.292C142.061 93.8145 138.361 93.9434 137 94.0246L124.107 95.0751H124.04L119.647 94.206L121.079 98.7042C121.082 98.7248 121.082 98.7457 121.079 98.7663L124.766 200.253Z" fill="#263238"/>
<path d="M145.844 128.014L145.662 120.694L151.454 133.73L145.844 128.014Z" fill="#263238"/>
<path d="M151.454 133.969C151.423 133.969 151.392 133.963 151.363 133.951C151.334 133.938 151.309 133.92 151.287 133.897L145.676 128.167C145.634 128.123 145.608 128.066 145.605 128.005L145.423 120.718C145.423 120.663 145.441 120.609 145.475 120.566C145.509 120.523 145.556 120.492 145.61 120.479C145.663 120.465 145.72 120.471 145.77 120.496C145.82 120.52 145.86 120.562 145.882 120.613L151.674 133.649C151.697 133.7 151.701 133.757 151.685 133.811C151.669 133.864 151.635 133.91 151.588 133.94C151.548 133.964 151.501 133.974 151.454 133.969ZM146.082 127.914L150.7 132.622L145.925 121.888L146.082 127.914Z" fill="#263238"/>
<path d="M145.695 125.999C145.635 125.999 145.577 125.977 145.533 125.936C145.489 125.895 145.461 125.839 145.456 125.78L144.105 105.972C144.103 105.941 144.107 105.909 144.117 105.879C144.127 105.85 144.143 105.822 144.163 105.798C144.184 105.775 144.209 105.755 144.237 105.741C144.265 105.727 144.296 105.719 144.327 105.717C144.358 105.714 144.39 105.718 144.42 105.728C144.45 105.738 144.477 105.754 144.501 105.775C144.525 105.795 144.544 105.82 144.558 105.849C144.572 105.877 144.58 105.907 144.583 105.939L145.934 125.746C145.936 125.777 145.932 125.809 145.921 125.839C145.911 125.868 145.895 125.896 145.874 125.919C145.853 125.943 145.828 125.962 145.8 125.976C145.772 125.989 145.741 125.997 145.71 125.999H145.695Z" fill="#263238"/>
<path d="M146.445 119.4H146.412C146.35 119.39 146.294 119.357 146.257 119.307C146.219 119.257 146.203 119.194 146.211 119.133C146.354 118.101 147.075 109.792 147.08 109.711C147.088 109.648 147.12 109.591 147.169 109.55C147.217 109.509 147.279 109.489 147.343 109.491C147.405 109.498 147.463 109.528 147.503 109.576C147.543 109.625 147.563 109.687 147.558 109.749C147.529 110.093 146.832 118.154 146.684 119.199C146.674 119.255 146.644 119.306 146.601 119.343C146.557 119.38 146.502 119.4 146.445 119.4Z" fill="#263238"/>
<path d="M147.648 124.801H147.61C147.579 124.797 147.549 124.786 147.522 124.77C147.494 124.754 147.471 124.733 147.452 124.707C147.433 124.682 147.42 124.653 147.412 124.622C147.405 124.591 147.404 124.559 147.41 124.528L149.062 114.023C149.067 113.992 149.077 113.962 149.094 113.934C149.11 113.907 149.132 113.884 149.157 113.865C149.183 113.846 149.212 113.832 149.242 113.825C149.273 113.817 149.305 113.815 149.336 113.82C149.368 113.825 149.398 113.836 149.425 113.852C149.452 113.868 149.476 113.89 149.495 113.915C149.514 113.941 149.527 113.97 149.535 114.001C149.543 114.031 149.544 114.063 149.539 114.095L147.887 124.6C147.879 124.657 147.85 124.709 147.806 124.746C147.762 124.783 147.706 124.802 147.648 124.801Z" fill="#263238"/>
<path d="M161.759 124.643C161.703 124.642 161.649 124.621 161.606 124.584C161.563 124.548 161.535 124.498 161.525 124.442L160.766 120.102C160.76 120.071 160.761 120.038 160.768 120.007C160.775 119.976 160.788 119.947 160.807 119.921C160.825 119.895 160.849 119.873 160.876 119.856C160.902 119.839 160.932 119.828 160.964 119.823C160.995 119.817 161.027 119.818 161.058 119.825C161.089 119.832 161.119 119.845 161.145 119.864C161.17 119.882 161.193 119.905 161.209 119.932C161.226 119.959 161.238 119.989 161.243 120.021L162.007 124.361C162.017 124.424 162.002 124.488 161.965 124.539C161.929 124.591 161.874 124.627 161.811 124.638L161.759 124.643Z" fill="#263238"/>
<path d="M157.5 122.513C157.437 122.51 157.378 122.483 157.335 122.437C157.291 122.392 157.267 122.332 157.266 122.27L157.313 119.304C157.32 119.243 157.348 119.186 157.393 119.143C157.437 119.1 157.495 119.074 157.557 119.07C157.588 119.071 157.619 119.078 157.648 119.09C157.677 119.103 157.703 119.121 157.724 119.144C157.746 119.166 157.763 119.193 157.775 119.222C157.786 119.251 157.792 119.282 157.791 119.314L157.743 122.274C157.743 122.306 157.737 122.338 157.725 122.367C157.712 122.396 157.694 122.423 157.672 122.445C157.649 122.467 157.622 122.485 157.592 122.496C157.563 122.508 157.531 122.514 157.5 122.513Z" fill="#263238"/>
<path d="M125.739 145.806C125.713 145.814 125.685 145.814 125.658 145.806C125.599 145.786 125.55 145.743 125.523 145.686C125.495 145.63 125.49 145.565 125.51 145.506C125.873 144.493 126.236 143.347 126.589 142.096C126.598 142.065 126.612 142.035 126.632 142.01C126.652 141.984 126.677 141.962 126.705 141.946C126.733 141.93 126.764 141.92 126.796 141.915C126.829 141.911 126.861 141.913 126.893 141.922C126.924 141.93 126.953 141.945 126.979 141.965C127.005 141.985 127.026 142.009 127.043 142.037C127.059 142.066 127.069 142.097 127.073 142.129C127.078 142.161 127.075 142.194 127.067 142.225C126.709 143.486 126.341 144.646 125.978 145.663C125.958 145.709 125.925 145.748 125.882 145.773C125.839 145.799 125.789 145.811 125.739 145.806Z" fill="#263238"/>
<path d="M127.459 140.1H127.397C127.337 140.085 127.285 140.046 127.253 139.992C127.22 139.939 127.211 139.875 127.225 139.814C129.766 129.786 131.332 116.621 131.523 115.088L125.645 111.268C125.604 111.242 125.573 111.204 125.555 111.159C125.537 111.115 125.534 111.066 125.544 111.02C125.553 110.972 125.576 110.929 125.61 110.896C125.644 110.862 125.688 110.841 125.735 110.833L132.683 109.697C132.206 109.076 131.05 107.629 129.928 105.948C128.443 103.723 123.672 96.398 123.625 96.3407C123.594 96.2876 123.586 96.2249 123.6 96.1655C123.615 96.1061 123.651 96.0546 123.703 96.0216C123.754 95.9885 123.816 95.9764 123.877 95.9878C123.937 95.9992 123.99 96.0332 124.026 96.0828C124.073 96.1545 128.844 103.46 130.324 105.681C131.804 107.901 133.299 109.697 133.313 109.711C133.339 109.745 133.356 109.784 133.363 109.826C133.37 109.867 133.366 109.91 133.352 109.95C133.337 109.99 133.313 110.025 133.28 110.052C133.247 110.079 133.207 110.097 133.165 110.103L126.423 111.201L131.91 114.768C131.947 114.793 131.976 114.827 131.995 114.868C132.013 114.908 132.02 114.953 132.015 114.997C132.015 115.136 130.401 129.275 127.717 139.928C127.701 139.983 127.667 140.03 127.62 140.062C127.572 140.093 127.515 140.107 127.459 140.1Z" fill="#263238"/>
<path d="M98.4263 84.503L98.4692 94.7075L110.221 101.813L119.743 95.2137L118.864 83.6387C118.864 83.6387 111.505 88.4138 110.531 88.6144C109.557 88.815 98.4263 84.503 98.4263 84.503Z" fill="white"/>
<path d="M110.22 102.052C110.177 102.053 110.134 102.041 110.096 102.018L98.3303 94.9319C98.2951 94.91 98.2659 94.8799 98.2451 94.8441C98.2242 94.8083 98.2125 94.7679 98.2109 94.7266L98.168 84.522C98.1688 84.4835 98.1787 84.4457 98.197 84.4118C98.2152 84.3779 98.2413 84.3487 98.273 84.3268C98.3047 84.3049 98.3411 84.2908 98.3793 84.2858C98.4175 84.2807 98.4564 84.2847 98.4927 84.2976C102.79 85.9593 109.791 88.5379 110.474 88.3995C111.156 88.261 115.784 85.3577 118.73 83.4572C118.765 83.4361 118.806 83.425 118.847 83.425C118.888 83.425 118.928 83.4361 118.964 83.4572C119.001 83.4757 119.033 83.5034 119.056 83.5377C119.08 83.5719 119.094 83.6116 119.098 83.6529L119.962 95.2279C119.965 95.2698 119.957 95.3118 119.938 95.3495C119.92 95.3872 119.892 95.4194 119.857 95.4428L110.34 102.042C110.301 102.055 110.26 102.058 110.22 102.052ZM98.7076 94.5737L110.211 101.531L119.494 95.0942L118.668 84.054C117.102 85.0664 111.505 88.6478 110.598 88.8292C109.69 89.0107 101.109 85.7779 98.6598 84.8324L98.7076 94.5737Z" fill="#263238"/>
<path d="M98.5881 92.7543L109.748 89.9895L98.4688 85.3862L98.5881 92.7543Z" fill="#263238"/>
<path d="M98.5886 92.9884C98.5353 92.9895 98.4832 92.9726 98.4406 92.9407C98.4122 92.9187 98.3892 92.8904 98.3735 92.8581C98.3578 92.8258 98.3497 92.7903 98.3498 92.7544L98.2305 85.3816C98.2304 85.3421 98.24 85.3033 98.2583 85.2683C98.2766 85.2334 98.3031 85.2034 98.3355 85.181C98.3699 85.1622 98.4085 85.1523 98.4477 85.1523C98.487 85.1523 98.5255 85.1622 98.56 85.181L109.839 89.7843C109.886 89.8033 109.925 89.8367 109.952 89.8796C109.978 89.9225 109.991 89.9727 109.987 90.023C109.982 90.073 109.962 90.1203 109.93 90.1586C109.897 90.197 109.854 90.2246 109.805 90.2379L98.6459 92.998L98.5886 92.9884ZM98.7175 85.7445L98.8226 92.4297L108.979 89.9132L98.7175 85.7445Z" fill="#263238"/>
<path d="M118.864 71.7341C118.864 71.7341 118.754 67.0831 120.053 64.4854C120.469 63.6443 120.685 62.7186 120.685 61.7803C120.685 60.8419 120.469 59.9162 120.053 59.0751L121.251 58.6406C120.599 58.0941 119.913 57.5886 119.198 57.1269C118.873 57.017 119.413 54.0994 118.439 52.5809C117.464 51.0624 116.49 50.7425 116.49 50.7425L115.951 52.6907C115.951 52.6907 113.028 49.2287 111.405 48.5793C109.781 47.9299 105.135 44.7926 105.016 46.4162C104.896 48.0397 105.56 48.6891 105.56 48.6891C105.56 48.6891 102.313 46.8459 99.8298 47.4954C97.3467 48.1448 94.9591 49.6633 95.4987 50.2029C96.0383 50.7425 98.4211 53.0154 98.4211 53.0154C98.4211 53.0154 92.9058 53.2303 92.2564 53.8797C91.8205 54.3845 91.4951 54.975 91.3013 55.6131L94.4386 57.2367C94.4386 57.2367 91.6261 57.017 90.5421 58.7504C89.4581 60.4838 89.2432 61.138 90.0025 61.4532C90.7527 61.8355 91.4755 62.2695 92.1656 62.752C92.1656 62.752 91.4064 64.0509 92.2755 66.214C93.1446 68.3772 95.1931 73.1428 95.1931 73.1428C95.1931 73.1428 95.9524 65.3497 96.4919 63.836C97.0315 62.3222 103.745 58.7504 104.715 58.4257C105.684 58.101 112.508 59.9394 112.942 59.9394C113.377 59.9394 116.185 70.8698 116.834 71.2996C117.484 71.7293 118.864 71.7341 118.864 71.7341Z" fill="#263238"/>
<path d="M95.179 73.3816C95.1327 73.3804 95.0877 73.3658 95.0496 73.3395C95.0114 73.3132 94.9817 73.2764 94.9641 73.2336C94.9641 73.1858 92.8965 68.4584 92.037 66.3048C91.3255 64.5284 91.6645 63.3012 91.8507 62.838C91.2265 62.4038 90.5723 62.0145 89.8929 61.6729C89.7655 61.6297 89.6496 61.5583 89.5537 61.4641C89.4578 61.3698 89.3844 61.2551 89.339 61.1285C89.1766 60.608 89.5443 59.8774 90.3275 58.6216C91.0628 57.4421 92.5097 57.1031 93.4791 57.0171L91.1679 55.8233C91.1178 55.7994 91.0782 55.7582 91.0562 55.7072C91.0343 55.6563 91.0315 55.5992 91.0485 55.5464C91.2573 54.8684 91.609 54.2431 92.0799 53.7127C92.6721 53.1206 96.2821 52.8818 97.8483 52.8006C97.1464 52.1273 95.7282 50.7712 95.3271 50.3701C95.2595 50.3068 95.2119 50.2253 95.1898 50.1354C95.1678 50.0456 95.1723 49.9512 95.2029 49.8639C95.4369 48.9996 97.8054 47.7772 99.7632 47.2662C101.635 46.7887 103.87 47.6196 104.982 48.1305C104.797 47.5744 104.727 46.9861 104.777 46.4019C104.778 46.2831 104.81 46.1666 104.871 46.0643C104.931 45.962 105.017 45.8775 105.121 45.8193C105.842 45.423 107.47 46.2396 109.691 47.4429C110.397 47.8249 111.066 48.1878 111.491 48.3597C112.861 48.9041 115.044 51.2965 115.836 52.1799L116.257 50.6614C116.266 50.63 116.281 50.6009 116.302 50.5755C116.322 50.5501 116.347 50.5289 116.376 50.5133C116.405 50.4994 116.437 50.4921 116.469 50.4921C116.501 50.4921 116.533 50.4994 116.562 50.5133C116.605 50.5133 117.627 50.881 118.635 52.4234C119.289 53.4405 119.298 55.0115 119.303 56.0525C119.296 56.3364 119.309 56.6204 119.341 56.9025C120.057 57.3687 120.744 57.8773 121.399 58.4258C121.432 58.4533 121.458 58.4889 121.473 58.5291C121.488 58.5692 121.492 58.6126 121.485 58.655C121.477 58.6963 121.458 58.7347 121.431 58.7665C121.403 58.7983 121.368 58.8224 121.328 58.8364L120.373 59.1803C120.754 60.0296 120.942 60.9532 120.922 61.884C120.902 62.8148 120.675 63.7295 120.258 64.5619C119.002 67.0784 119.093 71.653 119.093 71.7007C119.093 71.7653 119.067 71.8271 119.021 71.8727C119 71.8956 118.974 71.9138 118.945 71.9261C118.917 71.9385 118.886 71.9447 118.854 71.9443C118.792 71.9443 117.364 71.9443 116.667 71.4668C116.314 71.2328 115.798 69.6761 114.428 65.1158C113.812 63.0768 113.057 60.5603 112.799 60.1353C112.58 60.1066 112.097 59.992 111.066 59.7533C109.218 59.3187 105.374 58.4115 104.753 58.6168C103.741 58.9558 97.1703 62.5038 96.6784 63.8695C96.1579 65.3402 95.4035 73.0378 95.3939 73.1142C95.3892 73.1672 95.3669 73.2172 95.3306 73.2562C95.2943 73.2951 95.2459 73.3208 95.1933 73.3291L95.179 73.3816ZM94.138 57.466C93.4313 57.466 91.5356 57.5901 90.7286 58.8985C90.0935 59.9204 89.6876 60.6701 89.7735 61.0091C89.7735 61.0712 89.8452 61.1667 90.0648 61.2622C90.8289 61.6488 91.5645 62.0893 92.2662 62.5802C92.3167 62.6143 92.3523 62.6664 92.3656 62.7259C92.3789 62.7854 92.369 62.8477 92.3378 62.9001C92.3378 62.9001 91.6549 64.1369 92.462 66.152C93.097 67.7374 94.372 70.7553 95.0167 72.226C95.2363 70.1058 95.7998 65.006 96.2343 63.7787C96.8408 62.0836 103.817 58.4879 104.61 58.2252C105.298 57.9912 108.11 58.6216 111.176 59.3426C112.002 59.5384 112.785 59.7199 112.909 59.7246C113.224 59.7246 113.344 59.9061 114.886 65.0346C115.626 67.4843 116.634 70.8317 116.944 71.1325C117.467 71.3805 118.037 71.5109 118.616 71.5145C118.616 70.4974 118.682 66.7059 119.833 64.4043C120.228 63.596 120.433 62.7084 120.433 61.809C120.433 60.9095 120.228 60.022 119.833 59.2137C119.817 59.1834 119.807 59.15 119.805 59.1156C119.802 59.0812 119.807 59.0467 119.82 59.0145C119.832 58.9823 119.851 58.9531 119.876 58.929C119.9 58.9048 119.93 58.8863 119.962 58.8746L120.755 58.5881C120.233 58.1464 119.681 57.7411 119.103 57.3752C118.821 57.2845 118.821 56.9407 118.811 56.105C118.811 55.1214 118.811 53.6363 118.219 52.7338C117.825 52.0717 117.278 51.5134 116.624 51.1054L116.147 52.7768C116.136 52.8188 116.113 52.857 116.082 52.8873C116.051 52.9176 116.012 52.9388 115.97 52.9487C115.927 52.9573 115.883 52.9543 115.842 52.94C115.801 52.9258 115.764 52.9007 115.736 52.8675C115.707 52.8341 112.833 49.4437 111.286 48.8229C110.652 48.5362 110.034 48.2175 109.433 47.8679C108 47.0991 105.871 45.9578 105.321 46.2396C105.298 46.2396 105.236 46.2873 105.226 46.4353C105.13 47.9109 105.703 48.5173 105.703 48.5269C105.741 48.5697 105.762 48.6249 105.762 48.6821C105.762 48.7392 105.741 48.7944 105.703 48.8372C105.668 48.8825 105.618 48.9137 105.562 48.9251C105.506 48.9365 105.448 48.9273 105.398 48.8993C105.369 48.8993 102.208 47.1182 99.8396 47.7342C97.6239 48.312 95.752 49.5058 95.6183 49.9976C96.1532 50.5706 98.5169 52.8245 98.5407 52.8627C98.5746 52.8952 98.598 52.937 98.6082 52.9829C98.6184 53.0287 98.6149 53.0765 98.5981 53.1203C98.5813 53.1641 98.5519 53.202 98.5137 53.2292C98.4755 53.2565 98.4301 53.2718 98.3832 53.2734C96.1293 53.3593 92.7771 53.6649 92.376 54.0708C92.0008 54.4875 91.712 54.9744 91.526 55.5034L94.4818 57.0314C94.53 57.0575 94.5679 57.099 94.5896 57.1492C94.6112 57.1995 94.6153 57.2555 94.6012 57.3084C94.5854 57.3612 94.5523 57.4073 94.5074 57.4393C94.4624 57.4713 94.4081 57.4874 94.3529 57.4851C94.3529 57.4851 94.3004 57.466 94.138 57.466Z" fill="#263238"/>
<path d="M101.023 55.7231C101.023 55.7231 93.7747 62.8858 93.6648 64.0509C93.555 65.2161 96.8021 83.7437 97.0074 84.3932C97.2128 85.0426 104.906 89.9132 107.284 90.4528C109.662 90.9924 112.154 90.343 112.804 89.8034C113.453 89.2638 119.728 85.692 120.377 82.7696C121.027 79.8472 116.953 59.9395 116.476 59.1851C115.998 58.4306 105.894 53.5551 101.023 55.7231Z" fill="white"/>
<path d="M109.18 90.8921C108.529 90.8945 107.881 90.8257 107.246 90.6868C104.978 90.1711 97.0651 85.2861 96.7929 84.4791C96.4968 83.5909 93.3213 65.2256 93.4264 64.0414C93.5314 62.8571 99.6341 56.764 100.857 55.5607C100.876 55.5395 100.901 55.5232 100.928 55.5129C105.742 53.3737 116.137 58.082 116.686 59.0752C117.135 59.8583 121.27 79.8329 120.607 82.8317C120.053 85.3291 115.631 88.2228 113.745 89.4596C113.358 89.7127 113.057 89.9085 112.952 89.9992C112.412 90.4528 110.875 90.8921 109.18 90.8921ZM101.162 55.9236C98.3782 58.6645 93.9755 63.2726 93.9039 64.0748C93.8084 65.1492 96.9743 83.505 97.2465 84.3167C97.5808 84.9471 104.963 89.6793 107.351 90.2189C109.738 90.7584 112.088 90.1042 112.666 89.622C112.79 89.5169 113.071 89.3307 113.501 89.0489C115.34 87.8456 119.647 85.0282 120.158 82.7171C120.783 79.9093 116.72 60.1114 116.29 59.3187C115.889 58.7027 105.971 53.8655 101.162 55.9236Z" fill="#263238"/>
<path d="M101.024 55.7229C101.024 55.7229 103.536 56.9644 104.572 57.4276C105.608 57.8908 106.754 56.2768 106.754 56.2768C106.754 56.2768 115.65 59.3281 116.495 59.1849C117.341 59.0416 114.108 55.699 110.765 54.4336C107.423 53.1682 101.043 53.3258 101.024 55.7229Z" fill="#263238"/>
<path d="M116.447 59.4239C115.296 59.4239 108.597 57.1604 106.84 56.5588C106.505 56.9694 105.483 58.0916 104.452 57.6475C103.421 57.2034 100.923 55.9475 100.899 55.9332C100.859 55.9135 100.825 55.8829 100.802 55.845C100.778 55.807 100.766 55.7631 100.766 55.7183C100.775 55.4366 100.856 55.1618 101.001 54.9197C101.145 54.6776 101.348 54.4759 101.592 54.3335C103.502 53.0395 108.205 53.2066 110.851 54.2142C113.783 55.3268 116.934 58.2062 116.848 59.0705C116.842 59.1575 116.805 59.2395 116.745 59.303C116.685 59.3664 116.605 59.4074 116.519 59.4191L116.447 59.4239ZM106.754 56.0383C106.781 56.0337 106.808 56.0337 106.835 56.0383C110.134 57.17 115.507 58.9034 116.385 58.9368C116.185 58.2826 113.606 55.747 110.703 54.6391C108.181 53.6841 103.616 53.5265 101.888 54.7108C101.732 54.8011 101.596 54.9236 101.491 55.0701C101.386 55.2167 101.312 55.3839 101.277 55.5608C101.826 55.8282 103.793 56.8023 104.672 57.1891C105.374 57.4995 106.276 56.5206 106.582 56.1195C106.603 56.0944 106.629 56.0742 106.659 56.0602C106.689 56.0462 106.721 56.0387 106.754 56.0383Z" fill="#263238"/>
<path d="M107.661 76.2036C107.599 76.2087 107.537 76.2087 107.475 76.2036L106.868 76.1034C106.439 76.1735 106.005 76.2086 105.569 76.2084C105.282 76.1889 105.008 76.0763 104.79 75.8877C104.572 75.699 104.422 75.4445 104.361 75.1627C104.348 75.1013 104.359 75.0373 104.392 74.984C104.425 74.9306 104.477 74.892 104.538 74.8762C104.599 74.8616 104.663 74.8715 104.716 74.9036C104.77 74.9358 104.809 74.9876 104.825 75.0481C104.825 75.0767 105.011 75.7357 105.569 75.7357C105.989 75.7372 106.407 75.7021 106.821 75.6306H106.926L107.575 75.7357C108.153 75.836 109.399 75.2152 109.485 74.943C109.571 74.6708 108.945 71.906 108.53 69.9052C108.053 67.5558 107.747 66.0851 107.747 65.8033C107.747 65.0966 109.065 63.6497 109.327 63.368C109.373 63.3239 109.434 63.2993 109.497 63.2993C109.56 63.2993 109.621 63.3239 109.667 63.368C109.689 63.3902 109.707 63.4166 109.719 63.4457C109.731 63.4748 109.737 63.506 109.737 63.5375C109.737 63.569 109.731 63.6002 109.719 63.6293C109.707 63.6584 109.689 63.6848 109.667 63.707C109.065 64.3517 108.234 65.4356 108.234 65.8177C108.234 66.0851 108.645 68.0715 109.008 69.824C109.776 73.5439 110.02 74.8236 109.963 75.0767C109.791 75.5924 108.425 76.2036 107.661 76.2036Z" fill="#263238"/>
<path d="M110.063 75.2534C109.919 75.2522 109.775 75.2395 109.633 75.2152C109.603 75.209 109.574 75.1967 109.548 75.1792C109.522 75.1616 109.499 75.1391 109.482 75.113C109.465 75.0868 109.453 75.0575 109.447 75.0267C109.441 74.9959 109.441 74.9642 109.447 74.9335C109.453 74.9025 109.465 74.8729 109.482 74.8466C109.5 74.8203 109.522 74.7977 109.548 74.7803C109.575 74.7629 109.604 74.751 109.635 74.7454C109.666 74.7397 109.698 74.7403 109.729 74.7473C109.997 74.8067 110.278 74.7817 110.531 74.6757C110.587 74.6357 110.624 74.5758 110.636 74.5085L110.741 73.8591C110.753 73.7969 110.788 73.7416 110.84 73.7051C110.892 73.6685 110.956 73.6535 111.018 73.6633C111.049 73.6679 111.079 73.6787 111.105 73.695C111.132 73.7113 111.155 73.7327 111.174 73.7581C111.192 73.7835 111.205 73.8122 111.212 73.8427C111.219 73.8732 111.219 73.9047 111.214 73.9355L111.104 74.5849C111.088 74.6806 111.054 74.7721 111.002 74.8541C110.95 74.9361 110.883 75.007 110.803 75.0624C110.581 75.1973 110.323 75.2637 110.063 75.2534Z" fill="#263238"/>
<path d="M106.864 76.0841C106.816 76.0845 106.769 76.0694 106.73 76.0412C106.466 75.8368 106.273 75.5538 106.179 75.2329C106.086 74.912 106.096 74.5697 106.21 74.2553C106.217 74.2223 106.231 74.1911 106.251 74.1639C106.27 74.1367 106.296 74.114 106.325 74.0973C106.355 74.0806 106.387 74.0704 106.421 74.0672C106.454 74.064 106.488 74.068 106.52 74.0789C106.552 74.0898 106.581 74.1073 106.606 74.1303C106.631 74.1533 106.65 74.1813 106.663 74.2124C106.676 74.2435 106.683 74.277 106.682 74.3107C106.681 74.3445 106.673 74.3776 106.659 74.4081C106.578 74.626 106.568 74.8639 106.631 75.0877C106.693 75.3115 106.825 75.5099 107.007 75.6544C107.047 75.6845 107.077 75.7264 107.092 75.7742C107.107 75.822 107.106 75.8734 107.09 75.9209C107.075 75.9684 107.044 76.0098 107.003 76.0391C106.963 76.0684 106.914 76.0841 106.864 76.0841Z" fill="#263238"/>
<path d="M104.92 82.6838C104.861 82.6839 104.804 82.6636 104.758 82.6265C104.714 82.581 104.689 82.5202 104.689 82.457C104.689 82.3937 104.714 82.3329 104.758 82.2874C104.796 82.2445 108.487 78.176 112.708 79.8426C112.737 79.8542 112.764 79.8714 112.787 79.8933C112.809 79.9151 112.827 79.9412 112.839 79.9701C112.852 79.9989 112.858 80.0299 112.859 80.0612C112.859 80.0926 112.854 80.1238 112.842 80.1529C112.83 80.1821 112.813 80.2087 112.791 80.2312C112.769 80.2537 112.743 80.2717 112.715 80.2841C112.686 80.2965 112.655 80.3031 112.623 80.3036C112.592 80.304 112.561 80.2983 112.532 80.2867C108.621 78.7443 105.149 82.5644 105.116 82.6074C105.091 82.6342 105.061 82.655 105.027 82.6683C104.993 82.6815 104.956 82.6868 104.92 82.6838Z" fill="#263238"/>
<path d="M97.4517 67.7754C97.3942 67.776 97.3373 67.7646 97.2845 67.742C97.1673 67.697 97.0724 67.6076 97.0206 67.4932C96.9688 67.3788 96.9641 67.2486 97.0076 67.1308C97.5166 65.9022 98.3687 64.8462 99.462 64.089C101.286 62.8713 104.447 64.3134 104.581 64.3755C104.638 64.4022 104.689 64.4398 104.732 64.4863C104.774 64.5327 104.807 64.5871 104.829 64.6463C104.85 64.7055 104.86 64.7683 104.857 64.8313C104.854 64.8942 104.839 64.9559 104.813 65.013C104.786 65.0701 104.748 65.1213 104.702 65.1638C104.655 65.2064 104.601 65.2393 104.542 65.2608C104.483 65.2823 104.42 65.292 104.357 65.2892C104.294 65.2864 104.232 65.2712 104.175 65.2446C103.402 64.8817 101.133 64.1177 99.9921 64.8817C99.0679 65.5312 98.3435 66.4259 97.9005 67.465C97.8664 67.5564 97.8051 67.6352 97.7248 67.6907C97.6446 67.7462 97.5492 67.7757 97.4517 67.7754Z" fill="#263238"/>
<path d="M116.39 65.7223C116.303 65.7229 116.217 65.6997 116.142 65.655C116.067 65.6104 116.006 65.5461 115.965 65.4692C115.424 64.5476 114.598 63.8269 113.611 63.4159C113.185 63.2615 112.727 63.2217 112.281 63.3005C111.835 63.3793 111.418 63.5739 111.071 63.8647C111.024 63.9074 110.969 63.9403 110.91 63.9618C110.851 63.9832 110.788 63.9926 110.725 63.9895C110.662 63.9864 110.6 63.9708 110.543 63.9437C110.486 63.9165 110.435 63.8783 110.393 63.8313C110.308 63.7375 110.264 63.6139 110.27 63.4877C110.276 63.3615 110.332 63.243 110.426 63.158C110.903 62.7491 111.481 62.4748 112.099 62.3631C112.718 62.2515 113.355 62.3067 113.945 62.5229C115.15 63.0136 116.158 63.8903 116.81 65.0155C116.84 65.071 116.859 65.1318 116.866 65.1946C116.872 65.2573 116.866 65.3207 116.848 65.3811C116.83 65.4414 116.8 65.4976 116.76 65.5463C116.72 65.5951 116.67 65.6354 116.615 65.665C116.546 65.7022 116.469 65.7219 116.39 65.7223Z" fill="#263238"/>
<path d="M102.27 70.5452C102.719 70.5452 103.082 70.0364 103.082 69.4087C103.082 68.781 102.719 68.2722 102.27 68.2722C101.822 68.2722 101.458 68.781 101.458 69.4087C101.458 70.0364 101.822 70.5452 102.27 70.5452Z" fill="#263238"/>
<path d="M112.766 67.7849C112.766 68.4105 112.398 68.9214 111.954 68.9214C111.51 68.9214 111.142 68.4105 111.142 67.7849C111.142 67.1594 111.505 66.6484 111.954 66.6484C112.403 66.6484 112.766 67.1594 112.766 67.7849Z" fill="#263238"/>
<path d="M94.9876 71.9492C94.9876 71.9492 92.9343 69.0315 91.9601 71.2998C90.986 73.568 91.9601 75.4112 92.9152 76.9297C93.8702 78.4482 95.9426 79.2027 95.9426 79.2027L94.9876 71.9492Z" fill="white"/>
<path d="M95.9429 79.4412C95.916 79.4462 95.8885 79.4462 95.8617 79.4412C95.7757 79.4126 93.7176 78.639 92.7148 77.0536C91.6213 75.3537 90.7475 73.4723 91.7216 71.2041C91.7954 70.9503 91.9379 70.7218 92.1334 70.544C92.3289 70.3662 92.5698 70.2459 92.8294 70.1965C93.9134 70.0867 95.0403 71.6291 95.1645 71.8105C95.1884 71.8408 95.2033 71.8772 95.2075 71.9156L96.1625 79.1643C96.167 79.2056 96.161 79.2473 96.1451 79.2857C96.1293 79.324 96.1041 79.3578 96.0718 79.3839C96.0354 79.4153 95.9905 79.4353 95.9429 79.4412ZM92.9441 70.674H92.8772C92.5907 70.7027 92.3519 70.9462 92.1609 71.3903C91.2298 73.5582 92.1609 75.3155 93.116 76.7958C93.7707 77.6774 94.6449 78.3721 95.6516 78.8109L94.7395 72.035C94.4244 71.6147 93.5935 70.674 92.9393 70.674H92.9441Z" fill="#263238"/>
<path d="M119.092 68.3819C119.092 68.3819 119.307 66.3238 120.176 66.5387C121.046 66.7536 122.664 68.3819 121.69 70.6501C120.716 72.9183 119.742 75.3059 119.742 75.3059L118.863 70.8698L119.092 68.3819Z" fill="white"/>
<path d="M119.742 75.5447C119.691 75.5386 119.643 75.5163 119.605 75.4811C119.568 75.4459 119.542 75.3997 119.532 75.349L118.668 70.9128C118.665 70.8906 118.665 70.8682 118.668 70.846L118.883 68.3581C118.883 68.2053 119.06 66.8492 119.666 66.4242C119.751 66.3636 119.849 66.3224 119.952 66.3034C120.055 66.2844 120.161 66.2882 120.263 66.3144C120.626 66.4446 120.96 66.646 121.244 66.9068C121.529 67.1675 121.758 67.4823 121.92 67.8329C122.14 68.2875 122.255 68.7863 122.255 69.2917C122.255 69.797 122.14 70.2958 121.92 70.7505C120.965 72.9948 119.981 75.3776 119.972 75.4015C119.953 75.4462 119.921 75.4839 119.88 75.5096C119.839 75.5352 119.791 75.5475 119.742 75.5447ZM119.117 70.8555L119.824 74.4799C120.191 73.5965 120.831 72.0446 121.471 70.5595C121.659 70.1667 121.757 69.7367 121.757 69.3012C121.757 68.8657 121.659 68.4357 121.471 68.043C121.207 67.4588 120.723 67.0024 120.124 66.7728C120.089 66.762 120.051 66.7599 120.015 66.7665C119.978 66.7731 119.944 66.7884 119.914 66.811C119.594 67.0354 119.389 67.9045 119.336 68.4011L119.117 70.8555Z" fill="#263238"/>
<path d="M212.261 200.73H12.1103C12.047 200.73 11.9863 200.705 11.9415 200.661C11.8967 200.616 11.8716 200.555 11.8716 200.492C11.8716 200.428 11.8967 200.368 11.9415 200.323C11.9863 200.278 12.047 200.253 12.1103 200.253H212.261C212.325 200.253 212.385 200.278 212.43 200.323C212.475 200.368 212.5 200.428 212.5 200.492C212.499 200.555 212.473 200.615 212.429 200.659C212.384 200.704 212.324 200.729 212.261 200.73Z" fill="#263238"/>
</svg>
