<svg width="200" height="140" viewBox="0 0 200 140" fill="none" xmlns="http://www.w3.org/2000/svg">
<g clip-path="url(#clip0_720_1643)">
<path d="M71.7401 80.5713C78.5941 67.8715 91.6683 58.1201 105.508 59.0595C95.2996 70.7531 89.3465 85.8733 88.7027 101.745C88.4754 107.867 88.8278 114.701 84.9687 119.285C82.5676 122.138 78.8973 123.519 75.2887 123.809C71.6799 124.098 68.0719 123.412 64.5113 122.728L63.6476 123.007C63.3188 108.403 64.886 93.2711 71.7401 80.5713Z" fill="#F0F0F0"/>
<path d="M105.529 59.3653C95.2944 64.5549 86.5676 73.2221 81.2104 83.7925C80.0522 86.0777 79.0661 88.5021 78.636 91.0655C78.2056 93.6301 78.5062 96.0713 79.3378 98.507C80.0981 100.734 81.1205 102.919 81.3536 105.301C81.5994 107.813 80.7221 110.161 79.1429 112.025C77.2107 114.305 74.6159 115.718 72.0328 117.007C69.1648 118.438 66.1643 119.877 64.1329 122.548C63.8868 122.871 63.4245 122.45 63.6702 122.127C67.2045 117.48 73.2542 116.606 77.4494 112.863C79.4069 111.116 80.8766 108.738 80.7838 105.95C80.7027 103.513 79.6502 101.259 78.8619 99.0114C78.0342 96.6513 77.6214 94.2783 77.9183 91.7621C78.2219 89.1882 79.1201 86.7181 80.2177 84.4116C82.6932 79.21 86.081 74.4345 89.9619 70.3064C94.4222 65.5613 99.6202 61.6548 105.331 58.756C105.685 58.5767 105.88 59.1872 105.529 59.3653Z" fill="white"/>
<path d="M82.7796 80.2598C81.2106 79.0514 80.1005 77.2949 79.6476 75.304C79.1946 73.313 79.4283 71.2173 80.3069 69.3911C80.4858 69.0222 81.0384 69.2978 80.8592 69.6672C80.0381 71.3662 79.8206 73.3184 80.246 75.1714C80.6714 77.0245 81.7117 78.6563 83.179 79.7724C83.4976 80.0154 83.0964 80.5014 82.7796 80.2598Z" fill="white"/>
<path d="M78.8112 97.4314C82.7427 96.8263 86.3133 94.6826 88.8109 91.4278C89.0581 91.1051 89.5205 91.5262 89.2736 91.8485C86.6685 95.2305 82.9485 97.4534 78.8559 98.0736C78.4658 98.1324 78.4232 97.4899 78.8112 97.4314Z" fill="white"/>
<path d="M94.7241 66.3536C95.2387 66.9544 95.8869 67.4112 96.6105 67.6829C97.3341 67.9546 98.1104 68.0328 98.8698 67.9104C99.259 67.8464 99.3013 68.4889 98.9146 68.5525C98.075 68.6836 97.2177 68.5962 96.4176 68.2978C95.6175 67.9995 94.8989 67.4993 94.3247 66.841C94.2656 66.7837 94.2295 66.7049 94.2236 66.6205C94.2177 66.5362 94.2426 66.4527 94.2931 66.3869C94.3462 66.3227 94.4214 66.2831 94.5021 66.2769C94.5828 66.2706 94.6626 66.2982 94.7241 66.3536Z" fill="white"/>
<path d="M133.046 99.1227C132.804 99.1699 132.562 99.2172 132.318 99.2694C129.068 99.9223 125.874 100.852 122.767 102.05C122.526 102.139 122.282 102.232 122.044 102.328C114.588 105.298 107.72 109.7 101.79 115.311C99.4322 117.545 97.2393 119.966 95.2301 122.551C92.4556 126.122 89.717 130.226 86.0914 132.554C85.7158 132.801 85.3259 133.024 84.9241 133.22L64.038 124.095C64.0005 124.049 63.9607 124.009 63.9229 123.963L63.0731 123.638C63.1679 123.497 63.2691 123.353 63.3639 123.212C63.4185 123.13 63.4778 123.05 63.5325 122.968C63.5704 122.914 63.6086 122.861 63.6398 122.809C63.6524 122.791 63.6652 122.774 63.6758 122.76C63.707 122.709 63.7412 122.666 63.7705 122.62C64.334 121.813 64.9038 121.009 65.48 120.207C65.4819 120.202 65.4819 120.202 65.4886 120.199C69.8935 114.105 74.8201 108.345 80.4201 103.556C80.5886 103.412 80.7589 103.263 80.937 103.123C83.4726 100.979 86.1703 99.057 89.0032 97.3759C90.5572 96.4607 92.1542 95.6289 93.7881 94.8837C98.0132 92.9669 102.498 91.762 107.079 91.3132C116.211 90.4201 125.512 92.613 132.515 98.6555C132.694 98.8102 132.869 98.9629 133.046 99.1227Z" fill="#F0F0F0"/>
<path d="M132.889 99.3814C121.751 97.0346 109.829 98.4206 99.5097 103.463C97.2786 104.553 95.1055 105.864 93.2968 107.638C91.4874 109.412 90.332 111.552 89.6037 114.024C88.9379 116.284 88.5053 118.677 87.3296 120.728C86.0902 122.889 84.0475 124.207 81.7214 124.694C78.8753 125.289 75.9958 124.772 73.1966 124.163C70.0886 123.487 66.8706 122.733 63.7219 123.577C63.3404 123.679 63.212 123.05 63.5929 122.948C69.071 121.479 74.4007 124.618 79.8901 124.289C82.4515 124.136 84.9846 123.169 86.5037 120.884C87.832 118.887 88.2801 116.42 88.9354 114.125C89.6236 111.716 90.6504 109.559 92.3256 107.739C94.0393 105.876 96.1684 104.473 98.3632 103.328C103.313 100.745 108.748 99.0801 114.206 98.2452C120.479 97.285 126.863 97.4623 133.079 98.7694C133.464 98.8505 133.271 99.4619 132.889 99.3814Z" fill="white"/>
<path d="M102.782 101.638C102.22 99.6778 102.338 97.5713 103.114 95.6944C103.89 93.8175 105.275 92.2924 107.02 91.3914C107.374 91.2104 107.657 91.7809 107.303 91.9622C105.677 92.798 104.387 94.2188 103.667 95.9681C102.948 97.7174 102.846 99.6801 103.379 101.502C103.495 101.898 102.897 102.031 102.782 101.638Z" fill="white"/>
<path d="M89.798 112.831C93.283 114.842 97.3593 115.394 101.214 114.379C101.596 114.279 101.724 114.908 101.343 115.009C97.3298 116.057 93.0889 115.473 89.4667 113.373C89.1216 113.172 89.4548 112.632 89.798 112.831Z" fill="white"/>
<path d="M120.268 98.1091C120.335 98.9151 120.592 99.6909 121.014 100.367C121.436 101.043 122.012 101.597 122.688 101.981C123.035 102.177 122.702 102.717 122.357 102.522C121.611 102.094 120.977 101.481 120.508 100.735C120.04 99.9898 119.752 99.1347 119.67 98.2449C119.656 98.1617 119.672 98.0759 119.715 98.0048C119.759 97.9337 119.826 97.8828 119.904 97.8623C119.984 97.8447 120.066 97.8608 120.134 97.907C120.202 97.9532 120.25 98.0258 120.268 98.1091Z" fill="white"/>
<path d="M93.2596 114.177C90.3346 99.2803 86.6783 94.3135 86.6783 94.3135L85.2815 93.1726L83.6017 91.7983L83.6098 91.6216L83.2114 91.4789L83.1179 91.4023L82.9645 91.2783L82.9398 91.3062L82.8877 91.363L75.2866 88.6415L65.6433 85.1913L61.1778 79.0776C60.4505 78.082 59.5142 77.2772 58.4423 76.7264C57.3703 76.1757 56.1918 75.8939 54.9992 75.9032L40.7379 76.0144C38.8096 76.0294 36.9564 76.8037 35.5426 78.185L26.1689 87.3434L11.5628 94.691L11.5382 94.665L11.3848 94.7804L9.12803 95.9171L9.22116 96.4277L7.82436 97.4893C7.82436 97.4893 4.16806 102.111 1.24301 115.972C0.498911 119.499 0.132637 127.065 0.000432559 136.389C-0.00620808 136.86 0.0762324 137.328 0.242958 137.766C0.409684 138.204 0.657371 138.602 0.971615 138.939C1.28586 139.275 1.66039 139.541 2.07344 139.724C2.48648 139.906 2.9298 140 3.37761 140H81.3914L91.1286 140C91.576 140 92.019 139.906 92.4318 139.724C92.8446 139.542 93.219 139.275 93.5331 138.94C93.8473 138.604 94.0951 138.206 94.2621 137.769C94.429 137.331 94.5119 136.863 94.5058 136.392C94.3766 126.247 94.0105 118.002 93.2596 114.177Z" fill="#938C02"/>
<path d="M103.269 12.9915C100.234 12.9915 97.323 14.2615 95.1768 16.5221C93.0306 18.7827 91.8249 21.8488 91.8249 25.0458C91.8249 28.2428 93.0306 31.3089 95.1768 33.5695C97.323 35.8302 100.234 37.1002 103.269 37.1002H188.556C191.591 37.1002 194.502 35.8302 196.648 33.5695C198.794 31.3089 200 28.2428 200 25.0458C200 21.8488 198.794 18.7827 196.648 16.5221C194.502 14.2615 191.591 12.9915 188.556 12.9915H103.269Z" fill="#E5E5E5"/>
<path d="M103.269 15.431C100.848 15.431 98.5264 16.444 96.8146 18.2471C95.1027 20.0503 94.141 22.4958 94.141 25.0458C94.141 27.5958 95.1027 30.0414 96.8146 31.8445C98.5264 33.6476 100.848 34.6606 103.269 34.6606H188.556C190.977 34.6606 193.298 33.6476 195.01 31.8445C196.722 30.0414 197.684 27.5958 197.684 25.0458C197.684 22.4958 196.722 20.0503 195.01 18.2471C193.298 16.444 190.977 15.431 188.556 15.431H103.269Z" fill="white"/>
<path d="M50.1081 70.2599C60.4268 70.2599 68.7918 61.449 68.7918 50.5802C68.7918 39.7114 60.4268 30.9004 50.1081 30.9004C39.7894 30.9004 31.4244 39.7114 31.4244 50.5802C31.4244 61.449 39.7894 70.2599 50.1081 70.2599Z" fill="#9E616A"/>
<path d="M45.3284 69.2963C45.2486 69.1112 45.169 68.9255 45.0896 68.7391C45.1202 68.7401 45.1505 68.7448 45.1811 68.7456L45.3284 69.2963Z" fill="#2D2C2C"/>
<path d="M30.9049 31.7954C31.8498 31.0014 32.9543 30.2708 34.1625 30.3119C35.3706 30.3529 36.5958 31.5022 36.3455 32.7479C38.5646 28.6092 42.0968 25.4261 46.3221 23.7572C50.5474 22.0884 55.1958 22.0405 59.4513 23.6219C62.4541 24.7378 65.3988 26.9702 66.0885 30.2445C66.2656 31.0851 66.3036 32.0067 66.8019 32.6892C67.4301 33.5498 68.632 33.7444 69.6217 33.4417C69.6316 33.4387 69.6415 33.4356 69.6514 33.4325C69.8186 33.3724 69.9991 33.3665 70.1695 33.4156C70.3399 33.4646 70.4924 33.5664 70.6073 33.7078C70.7222 33.8492 70.7942 34.0236 70.8139 34.2086C70.8336 34.3935 70.8003 34.5804 70.718 34.7451L69.8684 36.4142C70.9394 36.6656 72.0523 36.6407 73.1122 36.3415C73.2883 36.2929 73.4743 36.3028 73.6448 36.3699C73.8153 36.4371 73.9619 36.5581 74.0645 36.7165C74.1671 36.8749 74.2207 37.0628 74.2179 37.2545C74.215 37.4462 74.156 37.6323 74.0488 37.7873C71.2472 41.8387 66.5667 44.4549 61.7904 44.4242C58.3957 44.4024 54.966 43.17 51.6621 43.9923C50.384 44.3104 49.1897 44.9259 48.1668 45.7936C47.144 46.6613 46.3186 47.7592 45.7511 49.0067C45.1836 50.2543 44.8885 51.6198 44.8874 53.0031C44.8863 54.3865 45.1793 55.7525 45.7448 57.001C44.7298 55.8317 42.7678 56.1085 41.7296 57.2551C40.6914 58.4016 40.4226 60.1128 40.5273 61.6933C40.6872 64.1108 41.5864 66.3887 42.5344 68.6057C34.5866 68.3421 27.0692 62.4696 24.5389 54.5269C21.9979 46.5509 24.661 37.0419 30.9049 31.7954Z" fill="#2D2C2C"/>
<path opacity="0.2" d="M18.3895 109.68L23.6299 139.712L26.7742 140L18.3895 109.68Z" fill="#7A7301"/>
<path opacity="0.2" d="M76.113 107.415L70.8727 139.69L67.7283 140L76.113 107.415Z" fill="#7A7301"/>
<path d="M35.3744 21.6882C34.3696 22.1301 33.3212 21.6458 32.8815 20.5367C32.4351 19.4106 32.8521 18.2675 33.8729 17.8185C34.8939 17.3694 35.9236 17.8549 36.3772 18.9992C36.8241 20.1262 36.4117 21.232 35.3744 21.6882ZM33.4497 15.602L32.6508 15.9534C32.4512 16.0401 32.228 16.0448 32.0253 15.9665C31.8226 15.8882 31.6552 15.7326 31.5562 15.5305L31.5167 15.4491C30.6571 13.8161 30.5587 11.8316 31.2257 9.55354C31.8436 7.51004 32.1003 6.07286 31.5841 4.77084C30.9874 3.26547 29.713 2.79392 28.088 3.47702C27.4577 3.75423 27.2571 3.74981 26.7611 4.26808C26.6533 4.38219 26.5246 4.47224 26.383 4.53287C26.2414 4.5935 26.0896 4.62346 25.9367 4.62097C25.7889 4.61914 25.643 4.58598 25.5076 4.52346C25.3723 4.46095 25.2503 4.37036 25.1489 4.25711C24.9535 4.03885 24.844 3.75064 24.8426 3.45067C24.8412 3.15071 24.9479 2.86135 25.1411 2.64102C25.9748 1.72179 26.9803 0.994556 28.0943 0.505217C31.5858 -1.03047 33.3435 1.23675 34.1478 3.26569C34.9346 5.25023 34.492 7.09155 33.7809 9.47625C33.185 11.4578 33.2198 12.9261 33.8966 14.386C33.9455 14.4964 33.9727 14.616 33.9766 14.7377C33.9805 14.8595 33.9609 14.9807 33.9192 15.0943C33.8775 15.2079 33.8143 15.3114 33.7337 15.3986C33.653 15.4859 33.5564 15.555 33.4497 15.602Z" fill="#938C02"/>
<path d="M122.108 30.7949H105.139C105.085 30.7953 105.032 30.7845 104.982 30.763C104.932 30.7415 104.886 30.7099 104.848 30.6699C104.81 30.6299 104.78 30.5823 104.759 30.5298C104.738 30.4774 104.727 30.4212 104.727 30.3644C104.727 30.3076 104.738 30.2514 104.759 30.199C104.78 30.1466 104.81 30.099 104.848 30.0589C104.886 30.0189 104.932 29.9873 104.982 29.9658C105.032 29.9444 105.085 29.9335 105.139 29.9339H122.108C122.216 29.9347 122.319 29.9804 122.395 30.061C122.471 30.1417 122.514 30.2507 122.514 30.3644C122.514 30.4781 122.471 30.5871 122.395 30.6678C122.319 30.7484 122.216 30.7941 122.108 30.7949Z" fill="#938C02"/>
<path d="M143.634 30.9384H126.665C126.611 30.9388 126.558 30.928 126.508 30.9065C126.458 30.885 126.412 30.8534 126.374 30.8134C126.336 30.7733 126.306 30.7258 126.285 30.6733C126.264 30.6209 126.253 30.5647 126.253 30.5079C126.253 30.4511 126.264 30.3949 126.285 30.3425C126.306 30.29 126.336 30.2425 126.374 30.2024C126.412 30.1624 126.458 30.1308 126.508 30.1093C126.558 30.0879 126.611 30.077 126.665 30.0774H143.634C143.688 30.077 143.741 30.0879 143.791 30.1093C143.841 30.1308 143.886 30.1624 143.925 30.2024C143.963 30.2425 143.993 30.29 144.014 30.3425C144.035 30.3949 144.045 30.4511 144.045 30.5079C144.045 30.5647 144.035 30.6209 144.014 30.6733C143.993 30.7258 143.963 30.7733 143.925 30.8134C143.886 30.8534 143.841 30.885 143.791 30.9065C143.741 30.928 143.688 30.9388 143.634 30.9384Z" fill="#938C02"/>
<path d="M165.16 31.0819H148.191C148.083 31.0811 147.98 31.0354 147.904 30.9548C147.828 30.8741 147.785 30.7651 147.785 30.6514C147.785 30.5377 147.828 30.4287 147.904 30.348C147.98 30.2674 148.083 30.2217 148.191 30.2209H165.16C165.214 30.2205 165.267 30.2314 165.317 30.2528C165.367 30.2743 165.412 30.3059 165.451 30.3459C165.489 30.386 165.519 30.4336 165.54 30.486C165.561 30.5384 165.571 30.5946 165.571 30.6514C165.571 30.7082 165.561 30.7644 165.54 30.8168C165.519 30.8693 165.489 30.9169 165.451 30.9569C165.412 30.9969 165.367 31.0285 165.317 31.05C165.267 31.0715 165.214 31.0823 165.16 31.0819Z" fill="#938C02"/>
<path d="M186.686 31.2254H169.717C169.609 31.2246 169.506 31.1789 169.43 31.0983C169.354 31.0176 169.311 30.9086 169.311 30.7949C169.311 30.6812 169.354 30.5722 169.43 30.4915C169.506 30.4109 169.609 30.3652 169.717 30.3644H186.686C186.794 30.3652 186.897 30.4109 186.973 30.4915C187.049 30.5722 187.092 30.6812 187.092 30.7949C187.092 30.9086 187.049 31.0176 186.973 31.0983C186.897 31.1789 186.794 31.2246 186.686 31.2254Z" fill="#938C02"/>
<path d="M113.586 26.8329C115.328 26.8329 116.74 25.3456 116.74 23.5109C116.74 21.6763 115.328 20.189 113.586 20.189C111.844 20.189 110.432 21.6763 110.432 23.5109C110.432 25.3456 111.844 26.8329 113.586 26.8329Z" fill="#938C02"/>
<path d="M135.242 26.8329C136.984 26.8329 138.396 25.3456 138.396 23.5109C138.396 21.6763 136.984 20.189 135.242 20.189C133.5 20.189 132.088 21.6763 132.088 23.5109C132.088 25.3456 133.5 26.8329 135.242 26.8329Z" fill="#938C02"/>
<path d="M156.898 26.8329C158.64 26.8329 160.052 25.3456 160.052 23.5109C160.052 21.6763 158.64 20.189 156.898 20.189C155.156 20.189 153.744 21.6763 153.744 23.5109C153.744 25.3456 155.156 26.8329 156.898 26.8329Z" fill="#938C02"/>
<path d="M178.554 26.8329C180.296 26.8329 181.708 25.3456 181.708 23.5109C181.708 21.6763 180.296 20.189 178.554 20.189C176.812 20.189 175.4 21.6763 175.4 23.5109C175.4 25.3456 176.812 26.8329 178.554 26.8329Z" fill="#938C02"/>
</g>
<defs>
<clipPath id="clip0_720_1643">
<rect width="200" height="140" fill="white"/>
</clipPath>
</defs>
</svg>
