<svg width="25" height="25" viewBox="0 0 25 25" fill="none" xmlns="http://www.w3.org/2000/svg">
<rect width="25" height="25" rx="8" fill="#FF998D"/>
<path d="M13.3332 11.3334H12.6665V10.6667C12.6665 10.4899 12.5963 10.3203 12.4713 10.1953C12.3462 10.0703 12.1767 10.0001 11.9999 10.0001C11.823 10.0001 11.6535 10.0703 11.5285 10.1953C11.4034 10.3203 11.3332 10.4899 11.3332 10.6667V11.3334H10.6665C10.4897 11.3334 10.3201 11.4036 10.1951 11.5287C10.0701 11.6537 9.99986 11.8232 9.99986 12.0001C9.99986 12.1769 10.0701 12.3464 10.1951 12.4715C10.3201 12.5965 10.4897 12.6667 10.6665 12.6667H11.3332V13.3334C11.3332 13.5102 11.4034 13.6798 11.5285 13.8048C11.6535 13.9298 11.823 14.0001 11.9999 14.0001C12.1767 14.0001 12.3462 13.9298 12.4713 13.8048C12.5963 13.6798 12.6665 13.5102 12.6665 13.3334V12.6667H13.3332C13.51 12.6667 13.6796 12.5965 13.8046 12.4715C13.9296 12.3464 13.9999 12.1769 13.9999 12.0001C13.9999 11.8232 13.9296 11.6537 13.8046 11.5287C13.6796 11.4036 13.51 11.3334 13.3332 11.3334ZM17.4399 7.33339C16.729 6.62986 15.7901 6.20358 14.7925 6.13145C13.795 6.05932 12.8045 6.34611 11.9999 6.94006C11.1516 6.30915 10.0959 6.02307 9.04514 6.13942C7.99442 6.25577 7.02682 6.76591 6.33717 7.56712C5.64753 8.36832 5.28707 9.40107 5.32839 10.4574C5.36971 11.5137 5.80974 12.5152 6.55986 13.2601L10.5599 17.2934C10.9349 17.6679 11.4432 17.8783 11.9732 17.8783C12.5032 17.8783 13.0115 17.6679 13.3865 17.2934L17.3865 13.2601C17.7805 12.8752 18.0945 12.4162 18.3105 11.9096C18.5265 11.4029 18.6402 10.8586 18.6452 10.3078C18.6502 9.75707 18.5462 9.21077 18.3394 8.70031C18.1325 8.18986 17.8268 7.72532 17.4399 7.33339ZM16.4999 12.3067L12.4999 16.3067C12.4379 16.3692 12.3641 16.4188 12.2829 16.4527C12.2017 16.4865 12.1145 16.5039 12.0265 16.5039C11.9385 16.5039 11.8514 16.4865 11.7701 16.4527C11.6889 16.4188 11.6152 16.3692 11.5532 16.3067L7.55319 12.3067C7.03036 11.7723 6.7376 11.0544 6.7376 10.3067C6.7376 9.55908 7.03036 8.84116 7.55319 8.30673C8.08596 7.78072 8.80451 7.48577 9.55319 7.48577C10.3019 7.48577 11.0204 7.78072 11.5532 8.30673C11.6152 8.36921 11.6889 8.41881 11.7701 8.45266C11.8514 8.4865 11.9385 8.50393 12.0265 8.50393C12.1145 8.50393 12.2017 8.4865 12.2829 8.45266C12.3641 8.41881 12.4379 8.36921 12.4999 8.30673C13.0326 7.78072 13.7512 7.48577 14.4999 7.48577C15.2485 7.48577 15.9671 7.78072 16.4999 8.30673C17.0267 8.84176 17.322 9.56252 17.322 10.3134C17.322 11.0643 17.0267 11.785 16.4999 12.3201V12.3067Z" fill="black"/>
</svg>
