<svg width="25" height="25" viewBox="0 0 25 25" fill="none" xmlns="http://www.w3.org/2000/svg">
<rect width="25" height="25" rx="8" fill="#FFB73E"/>
<path d="M16.0002 6C16.1635 6.00002 16.3211 6.05997 16.4431 6.16848C16.5651 6.27698 16.6431 6.4265 16.6622 6.58867L16.6668 6.66667V17.3333C16.6666 17.5033 16.6016 17.6667 16.4849 17.7902C16.3683 17.9138 16.2089 17.9882 16.0392 17.9981C15.8696 18.0081 15.7026 17.9529 15.5723 17.8438C15.442 17.7348 15.3582 17.5801 15.3382 17.4113L15.3335 17.3333V14H14.6668C14.5035 14 14.3459 13.94 14.2239 13.8315C14.1019 13.723 14.0239 13.5735 14.0048 13.4113L14.0002 13.3333V9.33333C14.0002 7.86 15.0002 6 16.0002 6ZM12.0002 6C12.1635 6.00002 12.3211 6.05997 12.4431 6.16848C12.5651 6.27698 12.6431 6.4265 12.6622 6.58867L12.6668 6.66667V10C12.6668 10.5912 12.4703 11.1657 12.1083 11.6332C11.7463 12.1007 11.2392 12.4346 10.6668 12.5827V17.3333C10.6666 17.5033 10.6016 17.6667 10.4849 17.7902C10.3683 17.9138 10.2089 17.9882 10.0392 17.9981C9.8696 18.0081 9.70258 17.9529 9.57227 17.8438C9.44197 17.7348 9.35823 17.5801 9.33816 17.4113L9.3335 17.3333V12.5827C8.7838 12.4406 8.29377 12.1268 7.93467 11.687C7.57558 11.2472 7.36614 10.7043 7.33683 10.1373L7.3335 10V6.66667C7.33368 6.49675 7.39875 6.33331 7.51539 6.20975C7.63204 6.0862 7.79146 6.01184 7.96109 6.00189C8.13072 5.99193 8.29775 6.04712 8.42805 6.15618C8.55835 6.26524 8.64209 6.41994 8.66216 6.58867L8.66683 6.66667V10C8.66684 10.234 8.72845 10.464 8.84547 10.6666C8.96249 10.8693 9.13081 11.0376 9.3335 11.1547V6.66667C9.33368 6.49675 9.39875 6.33331 9.51539 6.20975C9.63204 6.0862 9.79146 6.01184 9.96109 6.00189C10.1307 5.99193 10.2977 6.04712 10.4281 6.15618C10.5584 6.26524 10.6421 6.41994 10.6622 6.58867L10.6668 6.66667L10.6675 11.1547C10.8535 11.0471 11.0108 10.8962 11.126 10.7148C11.2411 10.5334 11.3107 10.3268 11.3288 10.1127L11.3335 10V6.66667C11.3335 6.48986 11.4037 6.32029 11.5288 6.19526C11.6538 6.07024 11.8234 6 12.0002 6Z" fill="#222121"/>
</svg>
