<svg width="25" height="25" viewBox="0 0 25 25" fill="none" xmlns="http://www.w3.org/2000/svg">
<rect width="25" height="25" rx="8" fill="#ABEA5D"/>
<path d="M14.6665 5.33325C12.8265 5.33325 11.3332 6.82659 11.3332 8.66659C11.3332 10.5066 12.8265 11.9999 14.6665 11.9999C16.5065 11.9999 17.9998 10.5066 17.9998 8.66659C17.9998 6.82659 16.5065 5.33325 14.6665 5.33325ZM14.6665 10.6666C13.5598 10.6666 12.6665 9.77325 12.6665 8.66659C12.6665 7.55992 13.5598 6.66659 14.6665 6.66659C15.7732 6.66659 16.6665 7.55992 16.6665 8.66659C16.6665 9.77325 15.7732 10.6666 14.6665 10.6666ZM16.6665 14.6666H15.3332C15.3332 13.8666 14.8332 13.1466 14.0865 12.8666L9.97984 11.3333H4.6665V18.6666H8.6665V17.7066L13.3332 18.9999L18.6665 17.3333V16.6666C18.6665 15.5599 17.7732 14.6666 16.6665 14.6666ZM7.33317 17.3333H5.99984V12.6666H7.33317V17.3333ZM13.3132 17.6066L8.6665 16.3333V12.6666H9.73984L13.6198 14.1133C13.8465 14.1999 13.9998 14.4199 13.9998 14.6666C13.9998 14.6666 12.6665 14.6333 12.4665 14.5666L10.8798 14.0399L10.4598 15.3066L12.0465 15.8333C12.3865 15.9466 12.7398 15.9999 13.0998 15.9999H16.6665C16.9265 15.9999 17.1598 16.1599 17.2665 16.3799L13.3132 17.6066Z" fill="#323232"/>
</svg>
