<svg width="327" height="297" viewBox="0 0 327 297" fill="none" xmlns="http://www.w3.org/2000/svg">
<path d="M187.22 138.593C183.378 140.005 174.237 139.272 174.23 139.272C174.223 139.272 176.558 133.395 176.755 133.042C179.015 128.97 185.788 122.407 190.912 123.418C194.61 124.144 196.456 127.999 195.404 131.454C194.353 134.908 190.491 137.392 187.22 138.593Z" fill="#FFC725"/>
<path d="M69.1722 100.201C74.3912 99.9566 80.1259 107.436 81.7683 111.799C81.904 112.179 83.4446 118.342 83.3496 118.335H83.2342C84.1504 119.509 85.1209 120.778 86.1457 122.19C88.0256 124.803 90.1227 127.775 92.1858 131.162C94.4551 134.786 96.5083 138.541 98.3346 142.407C100.405 146.724 102.086 151.216 103.357 155.831L103.397 156.001C103.459 154.474 103.784 150.205 103.845 149.893C104.728 145.312 109.112 136.998 114.297 136.32C118.036 135.858 120.989 138.939 121.084 142.55C121.179 146.16 118.281 149.75 115.546 151.915C112.464 154.352 104.185 156.388 103.526 156.551C104.705 161.279 105.567 166.081 106.105 170.925C106.438 173.748 106.682 176.599 106.886 179.463C106.988 178.105 107.083 176.958 107.117 176.795C107.992 172.214 112.383 163.901 117.568 163.222C121.307 162.761 124.26 165.849 124.355 169.459C124.45 173.07 121.552 176.653 118.824 178.818C116.095 180.983 109.03 182.89 107.164 183.365C107.232 184.464 107.313 185.557 107.374 186.656C107.687 191.93 107.972 197.196 108.413 202.347C108.569 204.159 108.786 205.944 108.996 207.729C109.085 206.555 109.173 205.571 109.2 205.422C110.076 200.841 114.467 192.527 119.652 191.848C123.384 191.387 126.343 194.468 126.438 198.078C126.533 201.689 123.635 205.279 120.9 207.444C118.165 209.609 111.793 211.333 109.58 211.903C109.852 213.722 110.123 215.547 110.469 217.298C110.727 218.493 110.904 219.653 111.229 220.841C111.555 222.029 111.833 223.182 112.132 224.336C112.811 226.535 113.449 228.809 114.134 230.94C114.609 232.426 115.084 233.831 115.559 235.249C115.383 233.444 115.118 229.901 115.125 229.603C115.432 225.51 116.78 221.565 119.041 218.14C119.057 217.683 119.113 217.229 119.21 216.783C119.998 213.253 123.5 210.81 127.076 211.998C132.037 213.647 134.698 222.687 134.657 227.349C134.657 227.628 134.29 230.607 134.033 232.487C134.358 231.408 134.65 230.356 134.996 229.243C135.675 227.044 136.354 224.872 137.154 222.531L138.41 219.138C138.804 217.997 139.36 216.85 139.842 215.69C141.002 213.023 142.305 210.376 143.683 207.743C141.756 207.159 134.962 204.981 132.315 202.687C129.669 200.393 126.968 196.762 127.212 193.083C127.456 189.405 130.551 186.534 134.263 187.165C139.414 188.041 143.419 196.572 144.084 201.187C144.124 201.479 144.226 204.845 144.253 206.698C145.088 205.116 145.916 203.542 146.819 201.947C149.418 197.413 152.187 192.914 154.963 188.407C155.804 187.05 156.625 185.645 157.453 184.268C156.775 184.064 148.631 181.655 145.672 179.083C143.038 176.795 140.317 173.158 140.568 169.479C140.819 165.801 143.9 162.93 147.613 163.561C152.764 164.437 156.768 172.968 157.433 177.583C157.487 177.936 157.63 182.781 157.603 184.01C159.428 180.969 161.213 177.902 162.856 174.834C165.094 170.687 167.06 166.397 168.74 161.994C168.421 161.899 159.917 159.422 156.883 156.788C154.25 154.508 151.535 150.864 151.78 147.185C152.024 143.507 155.119 140.636 158.831 141.267C163.982 142.143 167.98 150.673 168.651 155.295C168.699 155.655 168.855 160.867 168.814 161.817C168.909 161.559 169.038 161.308 169.133 161.05C170.695 156.588 171.858 151.996 172.608 147.328C173.056 144.756 173.334 142.272 173.558 139.862C171.929 139.564 164.491 138.111 161.498 136.041C158.627 134.06 155.526 130.741 155.39 127.056C155.254 123.371 157.99 120.181 161.743 120.398C166.962 120.704 171.875 128.746 173.042 133.293C173.11 133.537 173.477 136.102 173.721 137.982C173.802 136.883 173.911 135.756 173.972 134.704C174.203 130.761 174.169 127.137 174.115 123.92C174.067 122.095 173.993 120.446 173.904 118.905C172.459 117.772 166.683 113.15 165.007 110.001C163.331 106.852 162.157 102.536 163.711 99.1965C165.265 95.8575 169.188 94.2965 172.418 96.2171C176.911 98.9318 177.569 108.297 176.524 112.845C176.429 113.238 174.318 119.217 174.237 119.163L174.149 119.095C174.264 120.575 174.373 122.169 174.454 123.914C174.576 127.13 174.692 130.761 174.542 134.725C174.432 138.999 174.074 143.264 173.47 147.497C172.812 152.242 171.733 156.918 170.246 161.471C170.23 161.525 170.21 161.577 170.185 161.627C171.081 160.392 173.714 157.005 173.945 156.768C177.203 153.436 185.482 148.895 190.138 151.223C193.531 152.906 194.278 157.107 192.344 160.161C190.41 163.215 186.039 164.62 182.564 164.912C178.648 165.244 170.62 162.381 169.982 162.15C168.326 166.75 166.365 171.235 164.111 175.574C162.835 178.105 161.464 180.616 160.039 183.121C160.847 182.075 161.586 181.146 161.702 181.024C164.959 177.684 173.239 173.151 177.895 175.479C181.288 177.155 182.028 181.356 180.107 184.417C178.187 187.478 173.796 188.876 170.321 189.168C166.846 189.459 159.903 187.165 158.105 186.528C157.555 187.484 157.019 188.441 156.463 189.398C153.816 193.966 151.149 198.513 148.671 203.053C147.803 204.648 147.002 206.256 146.187 207.865C146.914 206.935 147.545 206.161 147.633 206.046C150.891 202.714 159.17 198.173 163.833 200.501C167.226 202.184 167.966 206.385 166.039 209.439C164.111 212.493 159.727 213.898 156.259 214.19C152.866 214.475 146.513 212.405 144.348 211.665C143.575 213.335 142.794 215.004 142.115 216.654C141.674 217.794 141.172 218.859 140.799 220.047C140.426 221.235 140.012 222.334 139.625 223.44C138.946 225.639 138.267 227.899 137.65 230.057C137.222 231.557 136.842 232.996 136.455 234.442C137.304 232.833 139.041 229.732 139.211 229.494C141.925 225.7 149.391 219.993 154.386 221.554C157.969 222.707 159.36 226.739 157.915 230.051C156.469 233.362 152.357 235.419 148.97 236.233C145.237 237.129 137.188 235.622 136.184 235.426C135.553 237.821 134.962 240.176 134.44 242.362C134.324 242.837 134.229 243.264 134.121 243.719H130.856C131.033 243.04 131.209 242.321 131.399 241.601C132.03 239.165 132.757 236.579 133.524 233.933C131.144 232.803 128.83 231.539 126.594 230.146C123.751 232.86 116.706 235.846 115.797 236.254C116.591 238.595 117.385 240.868 118.165 242.999L118.444 243.746H115.179C114.392 241.445 113.605 238.995 112.817 236.464C111.82 236.606 103.696 237.753 100.004 236.688C96.6583 235.717 92.6609 233.546 91.3443 230.098C90.0277 226.65 91.6361 222.755 95.267 221.778C100.31 220.42 107.517 226.481 110.062 230.397C110.211 230.627 111.555 233.315 112.376 235.025C112.044 233.946 111.698 232.901 111.385 231.788C110.707 229.589 110.137 227.377 109.492 225.001C109.214 223.841 108.942 222.667 108.664 221.486C108.386 220.305 108.196 219.049 107.951 217.814C107.449 214.95 107.083 212.025 106.77 209.073C104.85 209.643 97.9477 211.577 94.5069 211.109C91.066 210.641 86.7769 209.12 84.9512 205.91C83.1256 202.7 84.1233 198.608 87.5641 197.088C92.3148 194.977 100.391 199.884 103.492 203.372C103.689 203.589 105.63 206.338 106.669 207.872C106.499 206.094 106.322 204.315 106.207 202.51C105.875 197.305 105.705 192.018 105.528 186.745C105.474 185.129 105.393 183.521 105.325 181.913C104.646 182.123 96.5022 184.627 92.6338 184.091C89.1793 183.643 84.9037 182.103 83.0781 178.893C81.2525 175.682 82.2501 171.59 85.691 170.07C90.4756 167.959 98.5178 172.866 101.619 176.354C101.857 176.619 104.646 180.576 105.311 181.621C105.148 178.071 104.958 174.542 104.633 171.067C104.213 166.374 103.485 161.712 102.454 157.114C102.142 157.216 93.6789 159.829 89.6951 159.313C86.2407 158.858 81.9651 157.324 80.1463 154.114C78.3274 150.904 79.3115 146.812 82.7591 145.292C87.5098 143.181 95.5792 148.088 98.6875 151.576C98.925 151.848 101.932 156.11 102.42 156.924C102.359 156.659 102.325 156.374 102.257 156.11C101.103 151.525 99.5404 147.053 97.588 142.747C96.5429 140.358 95.4095 138.125 94.2558 135.96C92.7288 136.639 85.7249 139.509 82.094 139.435C78.6057 139.36 74.1876 138.301 72.0226 135.315C69.8577 132.329 70.4006 128.148 73.6514 126.262C78.1713 123.635 86.709 127.619 90.177 130.755C90.3602 130.924 92.0908 132.865 93.326 134.29C92.7899 133.334 92.2537 132.336 91.7243 131.426C89.7426 128.033 87.7134 124.999 85.9014 122.353C84.8562 120.853 83.8654 119.523 82.9492 118.281C81.1236 118.138 73.76 117.466 70.6178 115.763C67.4755 114.059 64.1297 111.114 63.58 107.469C63.0303 103.825 65.4124 100.357 69.1722 100.201Z" fill="#FFC725"/>
<path d="M94.5 135.023C94.4186 135.071 93.2038 128.841 93.1427 128.44C92.7762 123.785 94.8122 114.582 99.6444 112.6C103.126 111.168 106.791 113.36 107.788 116.822C108.786 120.283 106.988 124.511 104.924 127.314C102.549 130.612 94.5068 135.017 94.5 135.023Z" fill="#FFC725"/>
<path d="M91.609 232.372C91.609 232.372 71.0318 232.114 66.22 224.418H12.4695C12.4695 224.418 16.8401 232.304 23.6268 232.372H91.609Z" fill="white" stroke="#263238" stroke-miterlimit="10"/>
<path d="M64.6591 226.956H20.8714C20.8714 226.956 21.6858 228.734 19.453 229.711C20.8606 231.012 22.6271 231.858 24.5227 232.141H80.2685C80.2685 232.141 73.1696 231.462 69.3215 229.223C69.3215 229.223 64.8627 229.874 64.6591 226.956Z" fill="white" stroke="#263238" stroke-miterlimit="10"/>
<path d="M83.4921 293.893H207.023V278.609H83.4921V293.893Z" fill="#263238" stroke="#263238" stroke-miterlimit="10"/>
<path d="M15.5099 293.893H139.041V278.609H15.5099V293.893Z" fill="white" stroke="#263238" stroke-miterlimit="10"/>
<path d="M138.186 282.688H108.019" stroke="#263238" stroke-miterlimit="10"/>
<path d="M132.234 286.088H88.4735" stroke="#263238" stroke-miterlimit="10"/>
<path d="M114.813 289.142H122.461" stroke="#263238" stroke-miterlimit="10"/>
<path d="M125.441 289.142H137.758" stroke="#263238" stroke-miterlimit="10"/>
<path d="M16.2361 288.464H54.8998" stroke="#263238" stroke-miterlimit="10"/>
<path d="M19.6362 286.428H24.733" stroke="#263238" stroke-miterlimit="10"/>
<path d="M48.5272 286.088H31.5333" stroke="#263238" stroke-miterlimit="10"/>
<path d="M16.2361 282.009H31.1057" stroke="#263238" stroke-miterlimit="10"/>
<path d="M205.32 285.063H197.671" stroke="#8A8A8A" stroke-miterlimit="10"/>
<path d="M207.023 288.464H183.229" stroke="#8A8A8A" stroke-miterlimit="10"/>
<path d="M140.31 290.5H151.786" stroke="#8A8A8A" stroke-miterlimit="10"/>
<path d="M139.034 285.063H170.056" stroke="#8A8A8A" stroke-miterlimit="10"/>
<path d="M196.823 280.652H178.981" stroke="#8A8A8A" stroke-miterlimit="10"/>
<path d="M71.8937 293.554H86.3425V278.609H71.8937V293.554Z" fill="white" stroke="#263238" stroke-miterlimit="10"/>
<path d="M81.904 278.487H205.435V263.204H81.904V278.487Z" fill="#263238" stroke="#263238" stroke-miterlimit="10"/>
<path d="M13.9218 278.487H137.453V263.204H13.9218V278.487Z" fill="white" stroke="#263238" stroke-miterlimit="10"/>
<path d="M136.598 267.276H106.431" stroke="#263238" stroke-miterlimit="10"/>
<path d="M130.653 270.669H86.8855" stroke="#263238" stroke-miterlimit="10"/>
<path d="M113.231 273.73H120.88" stroke="#263238" stroke-miterlimit="10"/>
<path d="M123.853 273.73H136.177" stroke="#263238" stroke-miterlimit="10"/>
<path d="M14.6479 273.051H53.3185" stroke="#263238" stroke-miterlimit="10"/>
<path d="M18.0482 271.008H23.145" stroke="#263238" stroke-miterlimit="10"/>
<path d="M46.9458 270.669H29.9452" stroke="#263238" stroke-miterlimit="10"/>
<path d="M14.6479 266.597H29.5244" stroke="#263238" stroke-miterlimit="10"/>
<path d="M203.739 269.651H196.09" stroke="#8A8A8A" stroke-miterlimit="10"/>
<path d="M205.435 273.051H181.641" stroke="#8A8A8A" stroke-miterlimit="10"/>
<path d="M138.729 275.087H150.198" stroke="#8A8A8A" stroke-miterlimit="10"/>
<path d="M137.453 269.651H168.468" stroke="#8A8A8A" stroke-miterlimit="10"/>
<path d="M195.242 265.24H177.393" stroke="#8A8A8A" stroke-miterlimit="10"/>
<path d="M70.3124 278.148H84.7612V263.203H70.3124V278.148Z" fill="white" stroke="#263238" stroke-miterlimit="10"/>
<path d="M86.9262 263.075H210.457V247.791L86.9262 247.791V263.075Z" fill="#263238" stroke="#263238" stroke-miterlimit="10"/>
<path d="M18.944 263.075H142.475V247.791L18.944 247.791V263.075Z" fill="white" stroke="#263238" stroke-miterlimit="10"/>
<path d="M141.62 251.863H111.453" stroke="#263238" stroke-miterlimit="10"/>
<path d="M135.668 255.256H91.9076" stroke="#263238" stroke-miterlimit="10"/>
<path d="M118.247 258.317H125.895" stroke="#263238" stroke-miterlimit="10"/>
<path d="M128.875 258.317H141.193" stroke="#263238" stroke-miterlimit="10"/>
<path d="M19.6702 257.638H58.3339" stroke="#263238" stroke-miterlimit="10"/>
<path d="M23.0703 255.596H28.1671" stroke="#263238" stroke-miterlimit="10"/>
<path d="M51.9613 255.256H34.9674" stroke="#263238" stroke-miterlimit="10"/>
<path d="M19.6702 251.184H34.5398" stroke="#263238" stroke-miterlimit="10"/>
<path d="M208.754 254.238H201.105" stroke="#8A8A8A" stroke-miterlimit="10"/>
<path d="M210.457 257.638H186.663" stroke="#8A8A8A" stroke-miterlimit="10"/>
<path d="M143.744 259.674H155.221" stroke="#8A8A8A" stroke-miterlimit="10"/>
<path d="M142.468 254.238H173.49" stroke="#8A8A8A" stroke-miterlimit="10"/>
<path d="M200.257 249.827H182.415" stroke="#8A8A8A" stroke-miterlimit="10"/>
<path d="M75.3278 262.735H89.7766V247.791H75.3278V262.735Z" fill="white" stroke="#263238" stroke-miterlimit="10"/>
<path d="M83.0917 247.655L206.623 247.655V232.372L83.0917 232.372V247.655Z" fill="#263238" stroke="#263238" stroke-miterlimit="10"/>
<path d="M15.1096 247.655L138.641 247.655V232.372L15.1096 232.372V247.655Z" fill="white" stroke="#263238" stroke-miterlimit="10"/>
<path d="M137.792 236.45H107.619" stroke="#263238" stroke-miterlimit="10"/>
<path d="M131.84 239.844H88.0731" stroke="#263238" stroke-miterlimit="10"/>
<path d="M114.419 242.898H122.068" stroke="#263238" stroke-miterlimit="10"/>
<path d="M125.04 242.898H137.365" stroke="#263238" stroke-miterlimit="10"/>
<path d="M15.8357 242.219H54.5062" stroke="#263238" stroke-miterlimit="10"/>
<path d="M19.2358 240.183H24.3394" stroke="#263238" stroke-miterlimit="10"/>
<path d="M48.1336 239.844H31.1329" stroke="#263238" stroke-miterlimit="10"/>
<path d="M15.8357 235.772H30.7121" stroke="#263238" stroke-miterlimit="10"/>
<path d="M204.926 238.826H197.278" stroke="#8A8A8A" stroke-miterlimit="10"/>
<path d="M206.623 242.219H182.829" stroke="#8A8A8A" stroke-miterlimit="10"/>
<path d="M139.917 244.262H151.386" stroke="#8A8A8A" stroke-miterlimit="10"/>
<path d="M138.641 238.826H169.656" stroke="#8A8A8A" stroke-miterlimit="10"/>
<path d="M196.429 234.408H178.58" stroke="#8A8A8A" stroke-miterlimit="10"/>
<path d="M71.5 247.316H85.9489V232.372H71.5V247.316Z" fill="white" stroke="#263238" stroke-miterlimit="10"/>
<path d="M304.948 60.0577H186.697V293.9H304.948V60.0577Z" fill="#263238" stroke="#263238" stroke-miterlimit="10"/>
<path d="M292.162 61.1232V101.606" stroke="#8A8A8A" stroke-miterlimit="10"/>
<path d="M299.621 71.2422V88.2903" stroke="#8A8A8A" stroke-miterlimit="10"/>
<path d="M295.895 67.5163V128.237" stroke="#8A8A8A" stroke-miterlimit="10"/>
<path d="M302.288 60.0577V139.428" stroke="#8A8A8A" stroke-miterlimit="10"/>
<path d="M293.228 293.364V251.815" stroke="#8A8A8A" stroke-miterlimit="10"/>
<path d="M297.49 293.9V284.839" stroke="#8A8A8A" stroke-miterlimit="10"/>
<path d="M298.555 281.643V244.893" stroke="#8A8A8A" stroke-miterlimit="10"/>
<path d="M293.764 246.488V186.297" stroke="#8A8A8A" stroke-miterlimit="10"/>
<path d="M288.436 60.0577H170.185V293.9H288.436V60.0577Z" fill="#FFC725" stroke="#263238" stroke-miterlimit="10"/>
<path d="M278.317 76.6036C276.006 76.5984 273.785 75.7087 272.109 74.1173C270.433 72.5259 269.43 70.3534 269.305 68.0456H189.33C189.209 70.3569 188.204 72.5333 186.525 74.1257C184.845 75.7181 182.619 76.6051 180.304 76.6036C179.769 76.6023 179.235 76.5524 178.709 76.4543V272.739C179.236 272.644 179.769 272.594 180.304 272.589C181.868 272.589 183.405 272.994 184.765 273.765C186.126 274.535 187.264 275.645 188.068 276.986C188.873 278.326 189.316 279.853 189.355 281.416C189.394 282.979 189.028 284.525 188.292 285.905H270.33C269.591 284.526 269.223 282.979 269.262 281.415C269.3 279.851 269.743 278.324 270.548 276.982C271.353 275.641 272.491 274.531 273.853 273.761C275.215 272.991 276.753 272.587 278.317 272.589C278.852 272.594 279.386 272.644 279.912 272.739V76.4204C279.387 76.5298 278.854 76.5912 278.317 76.6036ZM226.915 212.398C208.231 212.398 193.09 195.947 193.09 175.648C193.09 155.35 208.231 138.892 226.915 138.892C245.599 138.892 260.74 155.35 260.74 175.648C260.74 195.947 245.592 212.398 226.915 212.398Z" fill="white" stroke="#263238" stroke-miterlimit="10"/>
<path d="M304.731 162.862H170.715V186.833H304.731V162.862Z" fill="white" stroke="#263238" stroke-miterlimit="10"/>
<path d="M304.731 162.862H288.694V186.833H304.731V162.862Z" fill="#3D3D3D" stroke="#8A8A8A" stroke-miterlimit="10"/>
<path d="M41.055 279.356L37.1051 285.281L29.3887 291.389V293.906H55.7821L54.8795 285.084V281.134C54.8795 281.134 44.109 276.478 41.055 279.356Z" fill="#263238" stroke="#263238" stroke-miterlimit="10"/>
<path d="M55.5445 291.565H29.3887V293.9H55.7821L55.5445 291.565Z" fill="white" stroke="#263238" stroke-miterlimit="10"/>
<path d="M84.639 279.356L88.8468 285.281L97.079 291.389V293.906H68.9482L69.9052 285.084V281.134C69.9052 281.134 81.3882 276.478 84.639 279.356Z" fill="#263238" stroke="#263238" stroke-miterlimit="10"/>
<path d="M69.1994 291.565H97.079V293.9H68.9482L69.1994 291.565Z" fill="white" stroke="#263238" stroke-miterlimit="10"/>
<path d="M29.2802 156.469C29.2802 156.469 35.4425 226.019 35.8836 239.226C36.3247 252.433 40.5053 270.262 40.5053 270.262L38.5575 273.343L40.5393 280.163C40.5393 280.163 45.161 279.064 47.5838 279.946C50.0067 280.828 54.3705 281.928 54.3705 281.928C54.3705 281.928 56.5762 275.983 56.7934 273.343C57.0105 270.703 54.1669 264.317 54.1669 264.317L53.7258 184.865H57.6892L67.8014 268.938L67.3602 274.001L69.3419 281.928C69.3419 281.928 81.0082 279.505 81.8837 279.281C82.5525 279.18 83.236 279.258 83.8654 279.505C83.8654 279.505 85.2228 276.641 85.2228 275.759C85.2228 274.877 83.4582 269.821 83.4582 269.821L83.0171 230.424V155.811L29.3141 154.712L29.2802 156.469Z" fill="#FFC725" stroke="#263238" stroke-miterlimit="10"/>
<path d="M81.1236 187.186L82.3249 213.498L77.2009 213.959V217.224L80.9268 217.454" stroke="#263238" stroke-linecap="round" stroke-linejoin="round"/>
<path d="M80.2278 167.613L81.0083 184.607" stroke="#263238" stroke-linecap="round" stroke-linejoin="round"/>
<path d="M77.9882 232.84C78.1578 237.543 78.5311 241.622 79.298 241.907C81.1643 242.586 81.6258 243.305 81.6258 243.305" stroke="#263238" stroke-linecap="round" stroke-linejoin="round"/>
<path d="M77.9203 218.154C77.9203 218.154 77.7981 224.099 77.9203 230.044" stroke="#263238" stroke-linecap="round" stroke-linejoin="round"/>
<path d="M48.3235 182.517L57.6348 183.216" stroke="#263238" stroke-linecap="round" stroke-linejoin="round"/>
<path d="M51.3503 160.161L51.5811 173.198L55.7753 176.232" stroke="#263238" stroke-linecap="round" stroke-linejoin="round"/>
<path d="M55.7753 164.817L56.4743 180.888" stroke="#263238" stroke-linecap="round" stroke-linejoin="round"/>
<path d="M52.8977 239.355L53.2099 255.419" stroke="#263238" stroke-linecap="round" stroke-linejoin="round"/>
<path d="M51.8119 183.446L52.8231 235.385" stroke="#263238" stroke-linecap="round" stroke-linejoin="round"/>
<path d="M70.6788 166.914C70.6788 166.914 73.9432 173.667 79.9969 171.57" stroke="#263238" stroke-linecap="round" stroke-linejoin="round"/>
<path d="M38.0756 166.914C38.0756 166.914 35.741 172.038 32.0151 172.737" stroke="#263238" stroke-linecap="round" stroke-linejoin="round"/>
<path d="M51.9069 78.8636L44.9098 80.9811L39.0461 156.178L69.9731 156.673L71.6019 79.3523L51.9069 78.8636Z" fill="white" stroke="#263238" stroke-miterlimit="10"/>
<path d="M49.4162 75.925H47.7738L46.9458 78.0696L47.2783 96.2239L57.5127 89.6273L67.5773 99.1965L68.9007 77.5741C68.9007 77.5741 69.3961 76.5833 67.9099 75.925C66.4236 75.2667 65.9282 75.097 65.9282 75.097L49.4162 75.925Z" fill="white" stroke="#263238" stroke-miterlimit="10"/>
<path d="M48.4321 70.6314L48.9275 78.0967C48.9275 78.0967 53.6782 88.4939 56.8476 89.9802C60.017 91.4665 67.2516 77.6013 67.2516 77.6013L66.7562 69.3487H48.2625L48.4321 70.6314Z" fill="white" stroke="#263238" stroke-miterlimit="10"/>
<path d="M48.4321 70.6314C48.4321 70.6314 54.3705 83.5261 57.8385 84.0079C61.3065 84.4898 66.9191 72.1176 66.9191 70.9639C66.9191 69.8102 48.4321 70.6314 48.4321 70.6314Z" fill="#263238" stroke="#263238" stroke-miterlimit="10"/>
<path d="M45.2966 59.5826C45.2966 59.5826 42.4326 57.2345 42.039 60.4921C41.6454 63.7497 45.8192 66.7494 45.8192 66.7494L45.2966 59.5826Z" fill="white" stroke="#263238" stroke-miterlimit="10"/>
<path d="M68.575 59.5826C68.575 59.5826 71.4458 57.2345 71.8394 60.4921C72.233 63.7497 68.0592 66.7494 68.0592 66.7494L68.575 59.5826Z" fill="white" stroke="#263238" stroke-miterlimit="10"/>
<path d="M44.7741 59.9695C44.7741 59.9695 46.3418 69.0976 47.6449 70.7875C48.9479 72.4773 52.986 78.3478 56.7662 79.393C60.5463 80.4381 66.4168 73.1357 67.5841 70.6585C68.7514 68.1814 69.1519 57.2345 69.1519 57.2345L69.0229 51.3708C69.0229 51.3708 68.6293 47.068 66.9326 44.7198C65.2359 42.3716 57.9403 40.8107 53.1217 42.6702C48.3032 44.5298 44.2583 52.9317 44.2583 54.6284C44.2583 56.325 44.7741 59.9695 44.7741 59.9695Z" fill="white" stroke="#263238" stroke-miterlimit="10"/>
<path d="M53.3796 49.803C53.3796 49.803 49.3076 54.4994 47.5159 55.4088C46.7018 55.784 45.9168 56.2196 45.1677 56.7119L45.4256 62.1887L43.3421 54.7234C43.3421 54.7234 40.736 46.8033 41.2721 43.2878C41.8083 39.7723 53.651 36.379 57.8249 35.0759C61.9987 33.7729 63.5596 36.379 66.2946 38.4693C69.0297 40.5596 71.9004 42.1205 71.5136 45.6428C71.1766 48.0928 70.5642 50.4969 69.688 52.8095C69.688 52.8095 69.0093 62.5824 69.0093 62.9896C69.0093 63.3968 67.8352 53.3457 67.8352 53.3457C67.1696 53.1707 66.5691 52.8063 66.1065 52.2967C65.6439 51.7871 65.3392 51.1543 65.2291 50.4749C64.8827 48.7553 64.6559 47.0137 64.5505 45.2627C64.5505 45.2627 62.8538 48.785 61.1571 50.4749C59.4605 52.1648 55.2934 53.7325 54.6419 53.6036C53.9904 53.4746 55.3206 50.346 55.3206 50.346L52.9724 52.5652L53.3796 49.803Z" fill="#263238" stroke="#263238" stroke-miterlimit="10"/>
<path d="M54.4248 68.0524C55.0703 68.6268 55.8219 69.0694 56.6373 69.3555C57.6824 69.6134 59.508 68.0524 60.0306 67.6588" stroke="#263238" stroke-miterlimit="10"/>
<path d="M54.0311 71.7037C54.0311 71.7037 57.0308 74.0451 61.0689 71.31L54.0311 71.7037Z" fill="white"/>
<path d="M54.0311 71.7037C54.0311 71.7037 57.0308 74.0451 61.0689 71.31" stroke="#263238" stroke-miterlimit="10"/>
<path d="M52.0087 63.356C52.4773 63.356 52.8571 62.7149 52.8571 61.9241C52.8571 61.1332 52.4773 60.4921 52.0087 60.4921C51.5402 60.4921 51.1604 61.1332 51.1604 61.9241C51.1604 62.7149 51.5402 63.356 52.0087 63.356Z" fill="#263238"/>
<path d="M61.9173 63.356C62.3858 63.356 62.7656 62.7149 62.7656 61.9241C62.7656 61.1332 62.3858 60.4921 61.9173 60.4921C61.4488 60.4921 61.069 61.1332 61.069 61.9241C61.069 62.7149 61.4488 63.356 61.9173 63.356Z" fill="#263238"/>
<path d="M59.8948 57.3634C60.735 56.9232 61.6935 56.7616 62.6316 56.9019C63.5698 57.0422 64.439 57.4771 65.1137 58.1439" stroke="#263238" stroke-miterlimit="10"/>
<path d="M52.986 57.2345C52.322 56.8412 51.541 56.6936 50.7793 56.8177C50.0177 56.9417 49.3238 57.3295 48.819 57.9131" stroke="#263238" stroke-miterlimit="10"/>
<path d="M62.2429 64.4012L65.1137 63.7497" stroke="#263238" stroke-miterlimit="10"/>
<path d="M49.0768 63.6207L51.425 64.4012" stroke="#263238" stroke-miterlimit="10"/>
<path d="M47.1087 94.9277L45.6224 166.188L28.6557 165.367L27.6309 163.405C27.6309 163.405 25.3234 163.405 24.9909 161.586C24.6583 159.768 27.2984 119.828 27.2984 119.828L12.7681 118.505L22.507 99.5019C22.507 99.5019 25.4795 86.295 26.1378 85.3042C26.7961 84.3133 47.4344 77.2144 47.4344 77.2144L47.1087 94.9277Z" fill="#263238" stroke="#263238" stroke-miterlimit="10"/>
<path d="M68.2424 76.7937L65.8196 166.378L87.6048 166.154L88.4871 162.856L90.686 161.315V154.27C90.686 150.748 86.5054 125.217 86.5054 125.217C86.5054 125.217 97.5134 123.676 97.7306 121.477C97.9477 119.278 93.1088 86.0439 90.4688 83.6211C87.8288 81.1982 68.2424 76.7937 68.2424 76.7937Z" fill="#263238" stroke="#263238" stroke-miterlimit="10"/>
<path d="M73.7058 127.877L76.6037 136.225C76.6037 136.225 78.28 132.193 78.0289 129.655C77.7778 127.117 77.771 126.35 77.0109 126.221C76.2508 126.092 73.8483 125.59 73.7058 127.877Z" fill="white" stroke="#263238" stroke-miterlimit="10"/>
<path d="M44.7469 106.187L54.0243 124.619L63.8107 119.787L55.5513 100.343L44.7469 106.187Z" fill="#FFC725" stroke="#263238" stroke-miterlimit="10"/>
<path d="M60.8382 119.048C60.7271 118.754 60.736 118.429 60.863 118.141C60.99 117.854 61.2249 117.629 61.5169 117.514C61.571 117.507 61.6256 117.507 61.6797 117.514L55.5717 103.201C55.5162 103.334 55.4312 103.454 55.3231 103.55C55.215 103.647 55.0866 103.717 54.9474 103.757C54.7387 103.806 54.5202 103.79 54.3204 103.713C54.1207 103.635 53.9489 103.499 53.8276 103.323L47.3802 106.791C47.4633 106.915 47.5253 107.053 47.5634 107.198C47.6534 107.458 47.6557 107.74 47.5698 108.001C47.484 108.262 47.3149 108.488 47.0884 108.644L53.5289 121.396C53.6441 121.268 53.7919 121.174 53.9565 121.124C54.2297 121.072 54.5125 121.12 54.7538 121.258C54.9952 121.396 55.1794 121.616 55.2731 121.878L60.8586 119.122L60.8382 119.048ZM55.3274 115.749C54.1397 116.082 52.8571 115.206 52.4566 113.788C52.0562 112.369 52.6874 110.944 53.8683 110.612C55.0492 110.279 56.3386 111.155 56.739 112.573C57.1395 113.991 56.5083 115.41 55.3274 115.749Z" fill="white" stroke="#263238" stroke-miterlimit="10"/>
<path d="M48.7172 103.92L53.6714 123.948L64.2858 121.409L60.5464 100.622L48.7172 103.92Z" fill="#FFC725" stroke="#263238" stroke-miterlimit="10"/>
<path d="M61.5508 120.038C61.5277 119.883 61.5356 119.724 61.574 119.572C61.6124 119.419 61.6805 119.276 61.7745 119.15C61.8684 119.024 61.9864 118.917 62.1215 118.837C62.2566 118.756 62.4063 118.703 62.562 118.681C62.6161 118.675 62.6708 118.675 62.7249 118.681L60.0102 103.377C59.9252 103.494 59.8155 103.592 59.6889 103.662C59.5623 103.732 59.4217 103.774 59.2772 103.784C59.0615 103.783 58.851 103.718 58.6723 103.597C58.4935 103.476 58.3545 103.305 58.2728 103.106L51.1739 105.108C51.23 105.248 51.2621 105.398 51.2689 105.549C51.2986 105.822 51.2376 106.098 51.0953 106.333C50.9531 106.569 50.7375 106.751 50.4817 106.852L53.909 120.717C54.0489 120.619 54.2135 120.563 54.384 120.554C54.6613 120.561 54.9268 120.667 55.1314 120.854C55.3361 121.042 55.4659 121.297 55.497 121.572L61.5576 120.127L61.5508 120.038ZM56.8815 115.586C55.6531 115.654 54.5944 114.514 54.5198 113.041C54.4451 111.569 55.3749 110.327 56.6033 110.259C57.8317 110.191 58.8836 111.338 58.965 112.811C59.0465 114.283 58.1371 115.525 56.8815 115.586Z" fill="white" stroke="#263238" stroke-miterlimit="10"/>
<path d="M54.5877 102.373L53.4475 122.97L64.3401 123.663L66.8648 102.685L54.5877 102.373Z" fill="#FFC725" stroke="#263238" stroke-miterlimit="10"/>
<path d="M62.1276 121.538C62.1777 121.228 62.3484 120.949 62.6025 120.764C62.8567 120.578 63.1738 120.5 63.4849 120.547C63.5416 120.561 63.5963 120.581 63.6478 120.608L65.5073 105.162C65.3924 105.251 65.259 105.313 65.1168 105.344C64.9747 105.374 64.8275 105.372 64.6862 105.338C64.4801 105.277 64.2975 105.154 64.1619 104.987C64.0264 104.82 63.9442 104.616 63.926 104.402L56.5896 104.219C56.6028 104.367 56.589 104.516 56.5489 104.66C56.4977 104.93 56.3591 105.176 56.1543 105.36C55.9495 105.544 55.6899 105.656 55.4155 105.678L54.6283 119.93C54.7946 119.882 54.971 119.882 55.1373 119.93C55.4007 120.02 55.6226 120.202 55.7623 120.443C55.902 120.683 55.95 120.966 55.8974 121.24L62.1208 121.633C62.115 121.602 62.1173 121.569 62.1276 121.538ZM58.9921 115.926C57.8045 115.627 57.1258 114.229 57.4855 112.797C57.8452 111.365 59.1007 110.449 60.2952 110.761C61.4896 111.073 62.1547 112.464 61.8018 113.896C61.4489 115.328 60.1866 116.224 58.9921 115.926Z" fill="white" stroke="#263238" stroke-miterlimit="10"/>
<path d="M77.0109 122.536C75.811 122.356 74.6233 122.102 73.4546 121.776C72.9456 121.525 69.2605 120.249 66.3354 118.729C63.4103 117.208 61.0011 118.729 56.834 119.489C52.667 120.249 51.4929 120.507 51.4929 121.525C51.4929 122.543 53.6579 122.794 53.6579 122.794C53.6579 122.794 51.6219 123.045 52.6399 124.443C53.2395 125.274 54.0845 125.896 55.0559 126.221C55.6188 127.154 56.3507 127.973 57.2141 128.637C58.4832 129.526 59.3723 130.293 59.3723 130.293C60.1681 131.284 61.2262 132.032 62.4263 132.451C64.2044 132.96 74.2419 129.906 74.2419 129.906C74.2419 129.906 77.2891 130.795 78.056 129.146C78.8229 127.497 77.0109 122.536 77.0109 122.536Z" fill="white" stroke="#263238" stroke-linecap="round" stroke-linejoin="round"/>
<path d="M53.6307 122.794C53.6307 122.794 61.2522 122.536 63.6682 121.776" stroke="#263238" stroke-linecap="round" stroke-linejoin="round"/>
<path d="M55.0288 126.221C57.1296 126.557 59.2536 126.728 61.3811 126.73C62.6339 126.705 63.8589 126.357 64.9374 125.719" stroke="#263238" stroke-linecap="round" stroke-linejoin="round"/>
<path d="M58.2389 129.404C58.2389 129.404 62.6842 130.761 65.7042 129.784" stroke="#263238" stroke-linecap="round" stroke-linejoin="round"/>
<path d="M80.7843 100.785L83.2072 119.713L76.3798 121.694C76.3798 121.694 77.486 127.416 77.0584 130.062C76.7715 132.104 76.6241 134.163 76.6173 136.225C76.6173 136.225 84.0826 133.802 88.9419 133.361C93.8012 132.92 97.9682 130.721 99.2848 127.198C100.601 123.676 96.4276 111.589 96.4276 111.589" fill="#263238"/>
<path d="M80.7843 100.785L83.2072 119.713L76.3798 121.694C76.3798 121.694 77.486 127.416 77.0584 130.062C76.7715 132.104 76.6241 134.163 76.6173 136.225C76.6173 136.225 84.0826 133.802 88.9419 133.361C93.8012 132.92 97.9682 130.721 99.2848 127.198C100.601 123.676 96.4276 111.589 96.4276 111.589" stroke="#263238" stroke-miterlimit="10"/>
<path d="M79.8816 121.138L83.2071 119.713L91.6226 117.453" stroke="#6B6B6B" stroke-miterlimit="10"/>
<path d="M83.2071 119.713L80.5942 97.3573" stroke="#6B6B6B" stroke-miterlimit="10"/>
<path d="M40.1728 119.278C40.1728 119.278 38.6526 112.546 38.0146 111.27C37.3767 109.994 33.9426 113.564 33.6915 114.704C33.4404 115.844 39.1548 119.407 40.1728 119.278Z" fill="white" stroke="#263238" stroke-miterlimit="10"/>
<path d="M36.8541 105.108L33.5693 108.963C33.5693 108.963 34.4855 114.609 35.2185 114.833C35.9515 115.057 41.1908 111.019 41.1908 111.019L36.8541 105.108Z" fill="white" stroke="#263238" stroke-miterlimit="10"/>
<path d="M42.9553 97.3777C42.9553 97.3777 37.2341 102.97 36.8473 105.128C36.4604 107.286 40.5325 111.358 41.0415 111.738C41.5505 112.118 45.2356 109.193 45.3578 108.684C45.4799 108.175 42.9485 104.239 42.9485 104.239C44.1146 104.81 45.2475 105.447 46.3419 106.146C46.7219 106.526 49.138 109.96 50.027 109.702C50.9161 109.444 50.536 107.795 50.027 106.275C49.518 104.755 44.0547 99.6648 44.0547 99.6648L47.7399 100.554C47.7399 100.554 52.063 104.748 53.081 104.748C54.099 104.748 53.59 103.73 52.9521 102.841C52.3141 101.952 49.2669 98.3957 48.5068 97.5066C47.7467 96.6176 44.8216 96.1086 44.4348 96.1086C44.048 96.1086 42.9553 97.3777 42.9553 97.3777Z" fill="white" stroke="#263238" stroke-linecap="round" stroke-linejoin="round"/>
<path d="M42.9552 104.239L41.1771 102.461" stroke="#263238" stroke-linecap="round" stroke-linejoin="round"/>
<path d="M38.89 104.619L43.4642 110.211" stroke="#263238" stroke-linecap="round" stroke-linejoin="round"/>
<path d="M33.4404 108.352C33.4404 108.352 34.3294 111.399 34.8384 113.306C35.3474 115.213 40.1728 119.278 40.1728 119.278C40.1728 119.278 33.3114 126.52 27.2102 129.696C21.109 132.872 13.9422 131.277 11.7841 128.739C9.62591 126.201 10.515 118.83 12.2931 117.303C14.0712 115.776 24.4141 113.815 26.9591 112.417C29.5041 111.019 33.4404 108.352 33.4404 108.352Z" fill="#263238" stroke="#263238" stroke-miterlimit="10"/>
<path d="M33.4404 108.352L16.718 116.523" stroke="#6B6B6B" stroke-miterlimit="10"/>
<path d="M31.2686 109.424V101.619" stroke="#6B6B6B" stroke-miterlimit="10"/>
<path d="M142.557 281.086C142.557 281.086 140.521 281.663 135.091 277.639C129.662 273.614 123.31 267.866 123.31 267.866C123.31 267.866 129.58 267.024 132.478 265.497C135.668 263.807 139.401 259.817 139.401 259.817C139.401 259.817 152.044 277.062 167.857 275.915C167.583 277.385 166.941 278.762 165.992 279.918C165.043 281.073 163.817 281.97 162.428 282.525C157.501 284.534 142.557 281.086 142.557 281.086Z" fill="#FFC725" stroke="#263238" stroke-linejoin="round"/>
<path d="M163.073 277.89C163.073 277.89 149.649 274.368 142.394 266.665C142.044 266.76 141.678 266.776 141.321 266.713C140.964 266.649 140.626 266.507 140.331 266.296C140.036 266.086 139.792 265.812 139.616 265.496C139.44 265.179 139.336 264.827 139.313 264.466C136.776 266.847 133.524 268.324 130.062 268.667C130.062 268.667 130.28 270.207 129.621 270.648C129.621 270.648 139.964 279.675 145.909 280.774C150.036 281.6 154.26 281.828 158.451 281.453C160.261 281.262 161.961 280.491 163.297 279.254C163.297 279.254 161.091 278.772 163.073 277.89ZM150.395 277.394C149.913 278.582 147.518 278.752 145.041 277.72C142.563 276.689 140.969 274.944 141.416 273.764C141.864 272.583 144.294 272.406 146.771 273.438C149.248 274.469 150.87 276.214 150.395 277.394Z" fill="white" stroke="#263238" stroke-miterlimit="10"/>
<path d="M140.521 280.727C140.521 280.727 147.443 283.577 152.906 283.577C156.103 283.595 159.292 283.242 162.408 282.525C162.408 282.525 160.541 283.543 157.508 281.595C155.777 280.482 154.664 278.005 154.664 278.005C150.098 279.563 145.338 280.479 140.521 280.727Z" fill="#FFC725" stroke="#263238" stroke-linejoin="round"/>
<path d="M218.282 251.741C218.282 251.741 230.885 247.594 238.256 242.674L246.094 255.568C246.094 255.568 227.349 270.167 222.429 266.325L218.282 251.741Z" fill="#FFC725" stroke="#263238" stroke-linejoin="round"/>
<path d="M240.719 254.815C240.735 254.443 240.872 254.087 241.108 253.799C241.344 253.511 241.667 253.308 242.029 253.22L238.547 247.445C238.257 247.544 237.952 247.594 237.645 247.594C237.272 247.614 236.9 247.543 236.56 247.387C236.221 247.231 235.925 246.994 235.697 246.698C229.189 251.252 219.205 253.587 219.205 253.587L221.201 261.425C221.201 261.425 220.895 265.728 226.27 264.649C230.437 263.814 238.276 258.541 241.608 256.24C241.346 256.104 241.126 255.899 240.97 255.649C240.813 255.398 240.727 255.11 240.719 254.815ZM227.288 260.584C224.933 261.12 222.741 260.319 222.388 258.792C222.035 257.265 223.664 255.582 226.019 255.039C228.374 254.496 230.573 255.304 230.926 256.831C231.279 258.358 229.65 260.041 227.288 260.584Z" fill="white" stroke="#263238" stroke-miterlimit="10"/>
<path d="M216.436 245.904L225.042 262.959C225.042 262.959 222.124 264.493 222.429 266.353L214.136 250.064C214.136 250.064 213.057 247.438 216.436 245.904Z" fill="#FFC725" stroke="#263238" stroke-linejoin="round"/>
<path d="M214.869 251.496L221.262 264.038C221.534 263.436 222.016 262.953 222.619 262.681L215.513 250.207L214.869 251.496Z" fill="white" stroke="#263238" stroke-miterlimit="10"/>
<path d="M123.045 156.544L123.181 189.235L140.242 189.161L140.297 155.804L123.045 156.544Z" fill="#FFC725" stroke="#263238" stroke-miterlimit="10"/>
<path d="M136.503 186.025C136.518 185.781 136.581 185.542 136.689 185.323C136.797 185.103 136.947 184.908 137.132 184.747C137.316 184.587 137.531 184.465 137.763 184.388C137.996 184.312 138.241 184.282 138.485 184.302C138.57 184.319 138.654 184.344 138.736 184.376L138.702 159.489C138.551 159.626 138.371 159.726 138.176 159.784C137.981 159.841 137.776 159.854 137.575 159.822C137.276 159.748 137.005 159.589 136.795 159.364C136.586 159.138 136.446 158.856 136.394 158.553L126.106 158.994C126.139 159.205 126.139 159.421 126.106 159.632C126.071 160.018 125.909 160.382 125.645 160.666C125.381 160.95 125.03 161.138 124.647 161.2V184.274C124.896 184.174 125.168 184.143 125.434 184.186C125.857 184.309 126.224 184.575 126.472 184.94C126.719 185.304 126.832 185.743 126.791 186.181L136.537 186.141C136.503 186.086 136.496 186.052 136.503 186.025ZM130.856 177.433C128.963 177.087 127.714 174.936 128.067 172.622C128.42 170.307 130.259 168.712 132.139 169.065C134.019 169.418 135.288 171.563 134.928 173.877C134.569 176.191 132.73 177.786 130.856 177.433Z" fill="white" stroke="#263238" stroke-miterlimit="10"/>
<path d="M282.579 18.2178L258.785 42.0119L271.205 54.4315L295.623 30.2981L282.579 18.2178Z" fill="#FFC725" stroke="#263238" stroke-miterlimit="10"/>
<path d="M270.784 49.4569C270.973 49.2877 271.195 49.1582 271.435 49.0762C271.676 48.9943 271.93 48.9615 272.183 48.9799C272.436 48.9982 272.683 49.0674 272.909 49.1831C273.136 49.2989 273.336 49.4589 273.499 49.6537C273.55 49.7306 273.593 49.8124 273.628 49.8981L291.782 31.8115C291.572 31.8007 291.367 31.7426 291.183 31.6415C290.998 31.5405 290.839 31.3991 290.717 31.2279C290.554 30.9555 290.474 30.6414 290.487 30.3243C290.501 30.0072 290.606 29.7009 290.791 29.443L283 22.2152C282.867 22.3926 282.709 22.5502 282.532 22.6835C282.224 22.9394 281.84 23.0846 281.44 23.0957C281.04 23.1067 280.648 22.9831 280.326 22.7445L263.448 39.4398C263.701 39.5449 263.92 39.7189 264.079 39.942C264.302 40.3396 264.378 40.8029 264.294 41.2509C264.209 41.6988 263.97 42.1028 263.617 42.392L270.71 49.4909L270.784 49.4569ZM272.956 39.0869C271.829 37.4513 272.501 34.9741 274.449 33.5557C276.397 32.1373 278.894 32.3273 280.014 33.9629C281.134 35.5985 280.462 38.0824 278.514 39.4941C276.566 40.9057 274.055 40.6953 272.956 39.0529V39.0869Z" fill="white" stroke="#263238" stroke-miterlimit="10"/>
<path d="M118.64 117.962L151.746 104.87L144.912 87.5913L111.053 100.751L118.64 117.962Z" fill="#FFC725" stroke="#263238" stroke-miterlimit="10"/>
<path d="M143.208 92.627C142.007 92.8917 140.873 92.3012 140.677 91.2697C140.67 91.1725 140.67 91.075 140.677 90.9778L115.437 100.873C115.636 100.972 115.811 101.115 115.947 101.292C116.083 101.468 116.178 101.673 116.224 101.891C116.267 102.223 116.212 102.56 116.066 102.861C115.92 103.163 115.69 103.415 115.403 103.587L119.916 113.93C120.129 113.814 120.358 113.73 120.595 113.679C121 113.56 121.434 113.58 121.826 113.736C122.219 113.892 122.548 114.176 122.76 114.541L146.167 105.433C145.964 105.226 145.825 104.965 145.767 104.68C145.714 104.2 145.833 103.716 146.104 103.315C146.376 102.915 146.78 102.624 147.246 102.495L143.337 92.6202L143.208 92.627ZM136.747 101.782C137.148 103.818 135.458 105.97 132.967 106.533C130.476 107.096 128.142 105.854 127.741 103.818C127.341 101.782 129.031 99.6376 131.521 99.0676C134.012 98.4975 136.347 99.7191 136.747 101.782Z" fill="white" stroke="#263238" stroke-miterlimit="10"/>
<path d="M235.487 18.1092C235.487 18.1092 237.523 18.6454 240.142 24.8959C242.762 31.1464 245.273 39.3176 245.273 39.3176C245.273 39.3176 239.45 36.8337 236.179 36.664C232.568 36.4808 227.322 38.0214 227.322 38.0214C227.322 38.0214 225.286 16.7315 211.109 9.63944C212.095 8.50488 213.354 7.63988 214.767 7.1258C216.18 6.61173 217.7 6.46548 219.185 6.70081C224.411 7.50164 235.487 18.1092 235.487 18.1092Z" fill="#FFC725" stroke="#263238" stroke-linejoin="round"/>
<path d="M216.226 10.3588C216.226 10.3588 225.958 20.2742 228.259 30.5832C228.607 30.6813 228.93 30.8555 229.203 31.0932C229.476 31.3309 229.693 31.6262 229.839 31.9578C229.984 32.2895 230.054 32.6492 230.044 33.0112C230.033 33.3731 229.943 33.7283 229.779 34.0511C233.176 33.3139 236.721 33.7195 239.864 35.2049C239.864 35.2049 240.461 33.7661 241.255 33.7254C241.255 33.7254 236.98 20.6814 232.433 16.6976C229.303 13.8809 225.785 11.527 221.988 9.70732C220.334 8.95105 218.48 8.74644 216.701 9.12366C216.701 9.12366 218.405 10.6167 216.226 10.3588ZM226.868 17.2677C227.879 16.5008 230.017 17.6002 231.618 19.7312C233.22 21.8623 233.722 24.2105 232.704 24.9841C231.686 25.7578 229.555 24.6516 227.953 22.5206C226.352 20.3896 225.87 18.0414 226.868 17.2677Z" fill="white" stroke="#263238" stroke-miterlimit="10"/>
<path d="M237.054 19.4598C237.054 19.4598 232.562 13.4875 227.865 10.671C225.134 9.01792 222.222 7.68569 219.185 6.70082C219.185 6.70082 221.309 6.78226 222.918 10.0059C223.834 11.8519 223.528 14.5462 223.528 14.5462C228.242 15.5511 232.794 17.2047 237.054 19.4598Z" fill="#FFC725" stroke="#263238" stroke-linejoin="round"/>
<path d="M59.8609 1L63.1388 13.0124C63.1388 13.0124 46.7558 25.147 22.0048 21.7469L23.3621 8.76397C23.3621 8.76397 33.0671 10.705 41.9237 8.88613C50.7803 7.06729 59.8609 1 59.8609 1Z" fill="#FFC725" stroke="#263238" stroke-miterlimit="10"/>
<path d="M57.9878 12.4831C58.0219 12.1877 58.1456 11.9098 58.3421 11.6866C58.5385 11.4635 58.7985 11.3056 59.0872 11.2343L57.153 5.89319C56.8708 5.98766 56.5751 6.03579 56.2775 6.03571C55.7655 6.04414 55.264 5.88966 54.8455 5.59457C52.1308 7.01978 47.034 9.5037 41.9508 10.5556C37.3206 11.3865 32.5983 11.5783 27.916 11.1257C27.7346 11.32 27.5115 11.4705 27.2634 11.5657C27.0153 11.661 26.7487 11.6985 26.484 11.6754L25.8392 18.9508C26.0021 18.9508 26.1718 18.9508 26.3414 18.9508C27.6988 18.9508 28.7643 19.358 28.7643 19.8602C28.7558 19.9408 28.7287 20.0183 28.6851 20.0866C28.6416 20.1549 28.5827 20.2122 28.5132 20.2538C44.2379 20.851 55.2459 15.4149 58.585 13.5146C58.4078 13.4056 58.2604 13.2543 58.1561 13.0742C58.0519 12.8942 57.994 12.691 57.9878 12.4831ZM42.4259 16.2768C40.0234 16.7587 37.9195 16.3515 37.7227 15.3674C37.5259 14.3833 39.3108 13.2024 41.7133 12.7206C44.1158 12.2387 46.2196 12.6459 46.4165 13.63C46.6133 14.6141 44.8284 15.795 42.4259 16.2768Z" fill="white" stroke="#263238" stroke-miterlimit="10"/>
<path d="M280.896 268.511L284.168 280.523C284.168 280.523 267.791 292.658 243.033 289.258L244.391 276.275C244.391 276.275 254.096 278.216 262.959 276.397C271.823 274.578 280.896 268.511 280.896 268.511Z" fill="#FFC725" stroke="#263238" stroke-miterlimit="10"/>
<path d="M279.016 280.001C279.049 279.704 279.172 279.425 279.369 279.2C279.566 278.976 279.826 278.817 280.116 278.745L278.182 273.417C277.898 273.506 277.603 273.552 277.306 273.553C276.784 273.567 276.271 273.415 275.84 273.119C273.187 274.537 268.063 277.021 262.986 278.073C258.356 278.904 253.634 279.096 248.951 278.643C248.77 278.837 248.547 278.988 248.299 279.083C248.051 279.178 247.784 279.216 247.519 279.193L246.909 286.468C247.072 286.468 247.241 286.468 247.418 286.468C248.775 286.468 249.834 286.869 249.834 287.371C249.825 287.451 249.798 287.529 249.755 287.597C249.711 287.666 249.652 287.723 249.583 287.764C265.307 288.368 276.315 282.932 279.661 281.025C279.476 280.923 279.32 280.775 279.207 280.596C279.094 280.417 279.029 280.212 279.016 280.001ZM263.455 283.787C261.052 284.269 258.948 283.862 258.751 282.885C258.555 281.908 260.339 280.713 262.742 280.231C265.144 279.749 267.248 280.163 267.445 281.141C267.642 282.118 265.857 283.312 263.455 283.787Z" fill="white" stroke="#263238" stroke-miterlimit="10"/>
<path d="M109.302 16.3108C109.302 16.3108 121.898 12.1641 129.275 7.24374L137.114 20.1384C137.114 20.1384 118.369 34.7502 113.449 30.9089L109.302 16.3108Z" fill="#FFC725" stroke="#263238" stroke-linejoin="round"/>
<path d="M131.732 19.3851C131.749 19.0126 131.887 18.6559 132.124 18.3683C132.362 18.0808 132.686 17.8779 133.048 17.7903L129.56 12.0148C129.272 12.1145 128.969 12.165 128.664 12.1641C128.291 12.1841 127.919 12.113 127.58 11.9569C127.24 11.8008 126.944 11.5645 126.716 11.2682C120.208 15.8221 110.225 18.1567 110.225 18.1567L112.22 25.9954C112.22 25.9954 111.915 30.2981 117.29 29.219C121.45 28.3843 129.289 23.111 132.628 20.8103C132.365 20.6745 132.143 20.4707 131.985 20.22C131.828 19.9694 131.74 19.6811 131.732 19.3851ZM118.308 25.1538C115.953 25.69 113.754 24.8891 113.408 23.3621C113.062 21.8351 114.684 20.152 117.039 19.6091C119.394 19.0661 121.593 19.8738 121.945 21.4076C122.298 22.9413 120.676 24.6109 118.308 25.1538Z" fill="white" stroke="#263238" stroke-miterlimit="10"/>
<path d="M107.456 10.4742L116.061 27.5291C116.061 27.5291 113.143 29.0629 113.449 30.9225L105.148 14.6344C105.148 14.6344 104.076 12.008 107.456 10.4742Z" fill="#FFC725" stroke="#263238" stroke-linejoin="round"/>
<path d="M105.888 16.0664L112.274 28.6082C112.546 28.0056 113.029 27.5229 113.632 27.2509L106.533 14.777L105.888 16.0664Z" fill="white" stroke="#263238" stroke-miterlimit="10"/>
<path d="M214.679 91.9551L190.885 115.749L203.304 128.162L227.73 104.029L214.679 91.9551Z" fill="#FFC725" stroke="#263238" stroke-miterlimit="10"/>
<path d="M202.89 123.16C203.08 122.991 203.301 122.862 203.541 122.78C203.782 122.698 204.036 122.665 204.289 122.683C204.543 122.702 204.79 122.771 205.016 122.886C205.242 123.002 205.442 123.162 205.605 123.357C205.654 123.434 205.695 123.516 205.727 123.601L223.902 105.535C223.692 105.526 223.488 105.469 223.304 105.368C223.12 105.267 222.962 105.124 222.843 104.952C222.679 104.68 222.598 104.366 222.61 104.049C222.623 103.732 222.727 103.425 222.911 103.167L215.12 95.9525C214.988 96.1293 214.83 96.285 214.652 96.414C214.345 96.672 213.961 96.8191 213.561 96.8315C213.16 96.8438 212.767 96.7206 212.446 96.4818L195.567 113.17C195.821 113.278 196.039 113.455 196.199 113.679C196.422 114.077 196.498 114.54 196.413 114.988C196.329 115.436 196.089 115.84 195.737 116.129L202.795 123.221L202.89 123.16ZM205.055 112.79C203.935 111.148 204.607 108.678 206.555 107.259C208.503 105.841 210.994 106.031 212.113 107.666C213.233 109.302 212.568 111.779 210.613 113.197C208.659 114.616 206.189 114.426 205.055 112.79Z" fill="white" stroke="#263238" stroke-miterlimit="10"/>
<path d="M258.175 150.008L290.69 153.402L292.454 136.435L259.301 132.777L258.175 150.008Z" fill="#FFC725" stroke="#263238" stroke-miterlimit="10"/>
<path d="M288.932 139.808C288.691 139.767 288.461 139.679 288.255 139.548C288.049 139.417 287.871 139.247 287.731 139.047C287.591 138.846 287.493 138.62 287.442 138.382C287.39 138.143 287.387 137.897 287.432 137.657C287.461 137.572 287.497 137.491 287.541 137.412L262.789 134.759C262.91 134.924 262.991 135.114 263.027 135.315C263.064 135.516 263.054 135.722 263 135.919C262.897 136.204 262.715 136.453 262.474 136.636C262.233 136.819 261.944 136.928 261.643 136.951L260.964 147.246C261.179 147.239 261.393 147.262 261.602 147.314C261.983 147.391 262.328 147.593 262.581 147.888C262.834 148.183 262.982 148.554 263 148.943L285.919 151.461C285.844 151.204 285.844 150.931 285.919 150.673C286.082 150.262 286.385 149.92 286.774 149.709C287.164 149.498 287.615 149.431 288.05 149.52L289.054 139.828L288.932 139.808ZM279.783 144.559C279.234 146.405 276.96 147.416 274.7 146.812C272.44 146.208 271.049 144.213 271.599 142.367C272.148 140.521 274.429 139.509 276.689 140.113C278.949 140.717 280.333 142.672 279.783 144.525V144.559Z" fill="white" stroke="#263238" stroke-miterlimit="10"/>
<path d="M295.216 180.732C295.216 180.732 297.252 181.268 299.872 187.518C302.492 193.769 304.996 201.94 304.996 201.94C304.996 201.94 299.18 199.456 295.902 199.286C292.298 199.103 287.079 200.644 287.079 200.644C287.079 200.644 285.043 179.354 270.866 172.262C271.856 171.136 273.116 170.281 274.527 169.775C275.939 169.269 277.455 169.13 278.935 169.371C284.134 170.124 295.216 180.732 295.216 180.732Z" fill="#FFC725" stroke="#263238" stroke-linejoin="round"/>
<path d="M275.949 172.975C275.949 172.975 285.688 182.87 287.988 193.206C288.337 193.302 288.661 193.475 288.935 193.711C289.208 193.948 289.426 194.243 289.572 194.575C289.717 194.906 289.787 195.266 289.776 195.628C289.765 195.99 289.674 196.345 289.509 196.667C292.902 195.925 296.445 196.326 299.587 197.807C299.587 197.807 300.191 196.368 300.978 196.328C300.978 196.328 296.709 183.283 292.155 179.3C289.032 176.478 285.519 174.119 281.724 172.296C280.07 171.54 278.217 171.335 276.437 171.712C276.437 171.712 278.127 173.239 275.949 172.975ZM286.59 179.883C287.608 179.116 289.739 180.216 291.341 182.347C292.943 184.478 293.445 186.826 292.427 187.6C291.409 188.373 289.278 187.267 287.676 185.136C286.075 183.005 285.593 180.664 286.59 179.89V179.883Z" fill="white" stroke="#263238" stroke-miterlimit="10"/>
<path d="M296.777 182.082C296.777 182.082 292.284 176.09 287.595 173.294C284.861 171.649 281.946 170.326 278.908 169.35C278.908 169.35 281.039 169.432 282.641 172.656C283.564 174.502 283.251 177.196 283.251 177.196C287.964 178.191 292.516 179.836 296.777 182.082Z" fill="#FFC725" stroke="#263238" stroke-linejoin="round"/>
<path d="M279.485 102.278C279.485 102.278 268.497 109.709 262.742 116.455L251.659 106.18C251.659 106.18 265.701 87.0144 271.483 89.3694L279.485 102.278Z" fill="#FFC725" stroke="#263238" stroke-linejoin="round"/>
<path d="M257.089 105.454C257.174 105.816 257.14 106.195 256.991 106.536C256.841 106.876 256.585 107.159 256.261 107.341L261.188 111.949C261.441 111.775 261.721 111.645 262.016 111.562C262.369 111.44 262.746 111.406 263.115 111.463C263.484 111.52 263.833 111.666 264.133 111.888C269.155 105.732 278.121 100.757 278.121 100.757L274.049 93.7604C274.049 93.7604 273.166 89.5391 268.287 92.0433C264.513 93.9843 258.405 101.171 255.833 104.327C256.124 104.385 256.395 104.52 256.616 104.718C256.837 104.916 257 105.17 257.089 105.454ZM268.429 96.2375C270.547 95.0702 272.881 95.2467 273.635 96.6176C274.388 97.9885 273.282 100.058 271.164 101.219C269.047 102.379 266.712 102.21 265.952 100.832C265.192 99.4544 266.285 97.398 268.409 96.2375H268.429Z" fill="white" stroke="#263238" stroke-miterlimit="10"/>
<path d="M282.878 107.388L269.943 93.3328C269.943 93.3328 272.332 91.0593 271.531 89.3694L283.964 102.766C283.964 102.766 285.688 104.986 282.878 107.388Z" fill="#FFC725" stroke="#263238" stroke-linejoin="round"/>
<path d="M282.837 101.579L273.268 91.2629C273.181 91.9184 272.86 92.5206 272.365 92.9595L282.546 102.997L282.837 101.579Z" fill="white" stroke="#263238" stroke-miterlimit="10"/>
<path d="M1 293.9H325.634" stroke="#263238" stroke-linecap="round" stroke-linejoin="round"/>
</svg>
