<svg width="25" height="25" viewBox="0 0 25 25" fill="none" xmlns="http://www.w3.org/2000/svg">
<rect width="25" height="25" rx="8" fill="#6FE5FF"/>
<path d="M12.0002 6.66675H7.3335C6.80306 6.66675 6.29436 6.87746 5.91928 7.25253C5.54421 7.62761 5.3335 8.13631 5.3335 8.66675V14.0001C5.3335 14.5305 5.54421 15.0392 5.91928 15.4143C6.29436 15.7894 6.80306 16.0001 7.3335 16.0001L6.66683 16.6667V17.3334H7.3335L8.66683 15.9801L10.0002 16.0001V12.6667H6.66683V8.00008H12.6668V9.33341H14.0002V8.66675C14.0002 8.13631 13.7894 7.62761 13.4144 7.25253C13.0393 6.87746 12.5306 6.66675 12.0002 6.66675ZM7.3335 13.3334C7.51031 13.3334 7.67988 13.4037 7.8049 13.5287C7.92992 13.6537 8.00016 13.8233 8.00016 14.0001C8.00016 14.1769 7.92992 14.3465 7.8049 14.4715C7.67988 14.5965 7.51031 14.6667 7.3335 14.6667C7.15669 14.6667 6.98712 14.5965 6.86209 14.4715C6.73707 14.3465 6.66683 14.1769 6.66683 14.0001C6.66683 13.8233 6.73707 13.6537 6.86209 13.5287C6.98712 13.4037 7.15669 13.3334 7.3335 13.3334ZM17.7135 10.4401C17.6202 10.1734 17.3668 10.0001 17.0668 10.0001H12.2735C11.9668 10.0001 11.7202 10.1734 11.6202 10.4401L10.6668 13.1801V16.8534C10.6668 17.1067 10.8802 17.3334 11.1335 17.3334H11.5468C11.8002 17.3334 12.0002 17.0801 12.0002 16.8267V16.0001H17.3335V16.8267C17.3335 17.0801 17.5402 17.3334 17.7935 17.3334H18.2002C18.4535 17.3334 18.6668 17.1067 18.6668 16.8534V13.1801L17.7135 10.4401ZM12.2735 10.6667H17.0668L17.7535 12.6667H11.5868L12.2735 10.6667ZM12.0002 14.6667C11.8234 14.6667 11.6538 14.5965 11.5288 14.4715C11.4037 14.3465 11.3335 14.1769 11.3335 14.0001C11.3335 13.8233 11.4037 13.6537 11.5288 13.5287C11.6538 13.4037 11.8234 13.3334 12.0002 13.3334C12.177 13.3334 12.3465 13.4037 12.4716 13.5287C12.5966 13.6537 12.6668 13.8233 12.6668 14.0001C12.6668 14.1769 12.5966 14.3465 12.4716 14.4715C12.3465 14.5965 12.177 14.6667 12.0002 14.6667ZM17.3335 14.6667C17.1567 14.6667 16.9871 14.5965 16.8621 14.4715C16.7371 14.3465 16.6668 14.1769 16.6668 14.0001C16.6668 13.8233 16.7371 13.6537 16.8621 13.5287C16.9871 13.4037 17.1567 13.3334 17.3335 13.3334C17.5103 13.3334 17.6799 13.4037 17.8049 13.5287C17.9299 13.6537 18.0002 13.8233 18.0002 14.0001C18.0002 14.1769 17.9299 14.3465 17.8049 14.4715C17.6799 14.5965 17.5103 14.6667 17.3335 14.6667Z" fill="#222121"/>
</svg>
