<svg width="25" height="25" viewBox="0 0 25 25" fill="none" xmlns="http://www.w3.org/2000/svg">
<rect width="25" height="25" rx="8" fill="#FFB73E"/>
<g clip-path="url(#clip0_2015_1474)">
<path fill-rule="evenodd" clip-rule="evenodd" d="M18.0643 9.95585C18.0302 9.95337 17.9924 9.95337 17.9528 9.95337H16.3894C15.109 9.95337 14.0137 10.9614 14.0137 12.2752C14.0137 13.5891 15.1096 14.5971 16.3894 14.5971H17.9528C17.9924 14.5971 18.0302 14.5971 18.0655 14.5946C18.3287 14.5788 18.5771 14.4678 18.7645 14.2823C18.9519 14.0969 19.0654 13.8496 19.084 13.5866C19.0865 13.5495 19.0865 13.5092 19.0865 13.4721V11.0784C19.0865 11.0412 19.0865 11.001 19.084 10.9638C19.0654 10.7009 18.9519 10.4536 18.7645 10.2682C18.5771 10.0827 18.3287 9.97171 18.0655 9.95585H18.0643ZM16.2513 12.8944C16.5807 12.8944 16.8476 12.617 16.8476 12.2752C16.8476 11.9335 16.5807 11.6561 16.2513 11.6561C15.9213 11.6561 15.6545 11.9335 15.6545 12.2752C15.6545 12.617 15.9213 12.8944 16.2513 12.8944Z" fill="black"/>
<path fill-rule="evenodd" clip-rule="evenodd" d="M17.9517 15.5258C17.9731 15.5249 17.9944 15.5291 18.0139 15.538C18.0333 15.5469 18.0504 15.5603 18.0638 15.5771C18.0771 15.5939 18.0863 15.6135 18.0906 15.6345C18.0949 15.6555 18.0942 15.6772 18.0885 15.6979C17.9647 16.1387 17.7672 16.5152 17.4508 16.831C16.987 17.2953 16.3994 17.5003 15.6738 17.5981C14.9679 17.6928 14.067 17.6928 12.929 17.6928H11.6213C10.4833 17.6928 9.58178 17.6928 8.87655 17.5981C8.15089 17.5003 7.5633 17.2947 7.09954 16.8316C6.63641 16.3678 6.43084 15.7802 6.33301 15.0546C6.23828 14.3487 6.23828 13.4478 6.23828 12.3098V12.2405C6.23828 11.1024 6.23828 10.2009 6.33301 9.49507C6.43084 8.76941 6.63641 8.18182 7.09954 7.71806C7.5633 7.25493 8.15089 7.04936 8.87655 6.95154C9.5824 6.85742 10.4833 6.85742 11.6213 6.85742H12.929C14.067 6.85742 14.9685 6.85742 15.6738 6.95215C16.3994 7.04998 16.987 7.25555 17.4508 7.71868C17.7672 8.0357 17.9647 8.41153 18.0885 8.85238C18.0942 8.87304 18.0949 8.89474 18.0906 8.91573C18.0863 8.93672 18.0771 8.95639 18.0638 8.97316C18.0504 8.98993 18.0333 9.00332 18.0139 9.01224C17.9944 9.02116 17.9731 9.02537 17.9517 9.02451H16.3889C14.6323 9.02451 13.0844 10.4114 13.0844 12.2751C13.0844 14.1388 14.6323 15.5258 16.3889 15.5258H17.9517ZM8.56016 9.33409C8.437 9.33409 8.31888 9.38301 8.23179 9.4701C8.14471 9.55719 8.09578 9.6753 8.09578 9.79846C8.09578 9.92162 8.14471 10.0397 8.23179 10.1268C8.31888 10.2139 8.437 10.2628 8.56016 10.2628H11.0368C11.16 10.2628 11.2781 10.2139 11.3652 10.1268C11.4523 10.0397 11.5012 9.92162 11.5012 9.79846C11.5012 9.6753 11.4523 9.55719 11.3652 9.4701C11.2781 9.38301 11.16 9.33409 11.0368 9.33409H8.56016Z" fill="black"/>
</g>
<defs>
<clipPath id="clip0_2015_1474">
<rect width="14.86" height="14.86" fill="white" transform="translate(5 5)"/>
</clipPath>
</defs>
</svg>
