<svg width="158" height="158" viewBox="0 0 158 158" fill="none" xmlns="http://www.w3.org/2000/svg">
<g clip-path="url(#clip0_644_1473)" filter="url(#filter0_d_644_1473)">
<path d="M152.684 57.363C152.63 57.3631 152.578 57.3447 152.534 57.3105L79.7552 0.847836C79.5337 0.67681 79.2705 0.58541 79.001 0.585922C78.7315 0.586434 78.4686 0.678832 78.2477 0.850699L5.99327 57.3099C5.93612 57.3546 5.86539 57.3721 5.79663 57.3587C5.72788 57.3452 5.66673 57.3019 5.62664 57.2383C5.58656 57.1746 5.57081 57.0958 5.58288 57.0192C5.59495 56.9426 5.63384 56.8745 5.69099 56.8298L77.9455 0.370601C78.2548 0.130023 78.6229 0.000701123 79.0002 1.04107e-05C79.3775 -0.000680302 79.7459 0.127292 80.056 0.366736L152.835 56.8293C152.881 56.8649 152.915 56.9161 152.933 56.9751C152.951 57.0342 152.952 57.0982 152.935 57.1577C152.918 57.2173 152.885 57.2693 152.84 57.3062C152.795 57.3432 152.74 57.3631 152.684 57.363Z" fill="#3F3D56"/>
<path d="M10.1221 59.3645L79.0726 2.43876L148.546 63.415L82.6253 106.948L46.8358 97.8607L10.1221 59.3645Z" fill="#E6E6E6"/>
<path d="M49.8567 133.837H15.7935C15.5843 133.838 15.3771 133.792 15.1838 133.703C14.9905 133.614 14.8148 133.483 14.6669 133.319C14.5189 133.154 14.4015 132.959 14.3214 132.743C14.2412 132.528 14.2 132.297 14.2 132.064C14.2 131.831 14.2412 131.601 14.3214 131.385C14.4015 131.17 14.5189 130.975 14.6669 130.81C14.8148 130.645 14.9905 130.515 15.1838 130.426C15.3771 130.337 15.5843 130.291 15.7935 130.292H49.8567C50.0659 130.291 50.273 130.337 50.4663 130.426C50.6597 130.515 50.8353 130.645 50.9833 130.81C51.1313 130.975 51.2487 131.17 51.3288 131.385C51.4089 131.601 51.4502 131.831 51.4502 132.064C51.4502 132.297 51.4089 132.528 51.3288 132.743C51.2487 132.959 51.1313 133.154 50.9833 133.319C50.8353 133.483 50.6597 133.614 50.4663 133.703C50.273 133.792 50.0659 133.838 49.8567 133.837Z" fill="#938C02"/>
<path d="M28.0146 126.215H15.7935C15.5843 126.216 15.3772 126.17 15.1838 126.081C14.9905 125.992 14.8148 125.861 14.6669 125.697C14.5189 125.532 14.4015 125.337 14.3214 125.121C14.2412 124.906 14.2 124.675 14.2 124.442C14.2 124.209 14.2412 123.979 14.3214 123.763C14.4015 123.548 14.5189 123.353 14.6669 123.188C14.8148 123.023 14.9905 122.893 15.1838 122.804C15.3772 122.715 15.5843 122.669 15.7935 122.67H28.0146C28.2238 122.669 28.4309 122.715 28.6242 122.804C28.8176 122.893 28.9932 123.023 29.1412 123.188C29.2892 123.353 29.4066 123.548 29.4867 123.763C29.5668 123.979 29.6081 124.209 29.6081 124.442C29.6081 124.675 29.5668 124.906 29.4867 125.121C29.4066 125.337 29.2892 125.532 29.1412 125.697C28.9932 125.861 28.8176 125.992 28.6242 126.081C28.4309 126.17 28.2238 126.216 28.0146 126.215Z" fill="#938C02"/>
<path d="M80.0421 91.0714C79.7832 91.0717 79.5267 91.0157 79.2871 90.9066L36.7632 71.2509V9.72531C36.7638 9.18126 36.958 8.65967 37.3033 8.27497C37.6487 7.89026 38.1169 7.67386 38.6053 7.67323H120.184C120.673 7.67386 121.141 7.89026 121.486 8.27497C121.832 8.65967 122.026 9.18126 122.026 9.72531V71.2938L121.946 71.3319L80.82 90.897C80.5737 91.0123 80.3093 91.0716 80.0421 91.0714Z" fill="white"/>
<path d="M80.0422 91.2178C79.7661 91.2181 79.4926 91.1585 79.237 91.0423L36.6317 71.3488V9.7253C36.6322 9.14239 36.8404 8.58353 37.2104 8.17134C37.5804 7.75916 38.0821 7.5273 38.6053 7.52664H120.184C120.708 7.5273 121.209 7.75916 121.579 8.17134C121.949 8.58353 122.157 9.14239 122.158 9.7253V71.3906L80.8717 91.0317C80.6091 91.1548 80.3271 91.2181 80.0422 91.2178ZM37.158 70.9572L79.4377 90.5002C79.8321 90.6785 80.2737 90.6755 80.6661 90.4921L121.632 71.0036V9.7253C121.631 9.29784 121.479 8.88802 121.207 8.58576C120.936 8.28349 120.568 8.11346 120.184 8.11295H38.6053C38.2216 8.11346 37.8537 8.28349 37.5824 8.58576C37.3111 8.88802 37.1584 9.29784 37.158 9.7253L37.158 70.9572Z" fill="#3F3D56"/>
<path d="M152.158 56.7767H152.105L121.895 71.1472L80.5606 90.8091C80.3991 90.8848 80.2257 90.9243 80.0505 90.9253C79.8753 90.9263 79.7016 90.8888 79.5394 90.815L36.8947 71.1061L5.94207 56.8002L5.89479 56.7767H5.84211C5.35371 56.7773 4.88548 56.9937 4.54014 57.3784C4.19479 57.7631 4.00054 58.2848 4 58.8288V147.948C4.00054 148.492 4.19479 149.014 4.54014 149.398C4.88548 149.783 5.35372 149.999 5.84211 150H152.158C152.646 149.999 153.115 149.783 153.46 149.398C153.805 149.014 153.999 148.492 154 147.948V58.8288C153.999 58.2848 153.805 57.7631 153.46 57.3784C153.115 56.9937 152.646 56.7773 152.158 56.7767ZM153.474 147.948C153.474 148.337 153.335 148.709 153.088 148.984C152.841 149.259 152.507 149.414 152.158 149.414H5.84211C5.49318 149.414 5.15859 149.259 4.91186 148.984C4.66513 148.709 4.52646 148.337 4.52632 147.948V58.8288C4.52679 58.4498 4.65878 58.0856 4.89468 57.8124C5.13058 57.5393 5.45213 57.3782 5.79212 57.363L36.8947 71.7394L79.3369 91.3573C79.7963 91.5655 80.3111 91.5624 80.7685 91.3485L121.895 71.7833L152.211 57.363C152.55 57.3794 152.871 57.5408 153.106 57.8138C153.341 58.0868 153.473 58.4504 153.474 58.8288V147.948Z" fill="#3F3D56"/>
<path d="M79.6171 73.625C78.0472 73.6283 76.519 73.0627 75.2629 72.0138L75.185 71.9486L58.7874 57.9629C58.028 57.3148 57.3906 56.5063 56.9117 55.5837C56.4328 54.6611 56.1216 53.6425 55.9961 52.586C55.8706 51.5294 55.9331 50.4557 56.18 49.4261C56.427 48.3965 56.8535 47.4311 57.4354 46.5851C58.0173 45.7391 58.743 45.0291 59.5712 44.4956C60.3994 43.9621 61.3138 43.6155 62.2622 43.4756C63.2106 43.3358 64.1745 43.4054 65.0987 43.6805C66.023 43.9556 66.8896 44.4308 67.649 45.079L78.2701 54.1515L103.37 17.6869C103.952 16.8412 104.678 16.1314 105.506 15.5982C106.334 15.065 107.249 14.7188 108.197 14.5793C109.146 14.4398 110.11 14.5098 111.034 14.7853C111.958 15.0608 112.824 15.5364 113.584 16.1849L113.428 16.421L113.588 16.1884C115.119 17.4995 116.121 19.4339 116.374 21.567C116.627 23.7001 116.11 25.8578 114.936 27.5667L85.413 70.4578C84.7302 71.4462 83.8521 72.246 82.847 72.7953C81.8419 73.3445 80.7366 73.6284 79.6171 73.625Z" fill="#938C02"/>
</g>
<defs>
<filter id="filter0_d_644_1473" x="0" y="0" width="158" height="158" filterUnits="userSpaceOnUse" color-interpolation-filters="sRGB">
<feFlood flood-opacity="0" result="BackgroundImageFix"/>
<feColorMatrix in="SourceAlpha" type="matrix" values="0 0 0 0 0 0 0 0 0 0 0 0 0 0 0 0 0 0 127 0" result="hardAlpha"/>
<feOffset dy="4"/>
<feGaussianBlur stdDeviation="2"/>
<feComposite in2="hardAlpha" operator="out"/>
<feColorMatrix type="matrix" values="0 0 0 0 0 0 0 0 0 0 0 0 0 0 0 0 0 0 0.25 0"/>
<feBlend mode="normal" in2="BackgroundImageFix" result="effect1_dropShadow_644_1473"/>
<feBlend mode="normal" in="SourceGraphic" in2="effect1_dropShadow_644_1473" result="shape"/>
</filter>
<clipPath id="clip0_644_1473">
<rect width="150" height="150" fill="white" transform="translate(4)"/>
</clipPath>
</defs>
</svg>
