<svg width="25" height="30" viewBox="0 0 25 30" fill="none" xmlns="http://www.w3.org/2000/svg">
<path d="M16.3336 4.75466H11.3326C11.1582 4.75466 11.0351 4.60004 11.0938 4.4518C11.7722 2.74128 12.6111 1.95331 14.3521 1.05955C14.5387 0.963791 14.7509 0.915504 14.9655 0.915504H17.6782C17.7413 0.915504 17.8047 0.919657 17.867 0.928491C21.1937 1.40011 23.7032 3.06348 24.987 6.55052C25.0413 6.698 24.9184 6.84874 24.7463 6.84874H20.1426C20.0592 6.84874 19.9812 6.81184 19.9322 6.75087C19.2 5.83966 18.4765 5.3852 16.7601 4.82165C16.6236 4.77682 16.4789 4.75466 16.3336 4.75466Z" fill="black"/>
<path d="M5.48942 6.28903C5.39874 4.84069 6.18545 4.29114 7.9703 4.19917C8.69779 4.16169 9.38731 3.86772 9.77357 3.33726L12.1987 0.00677392L5.48942 0.00676254C0.681285 -0.086864 0.186057 0.765696 0 4.19494V16.1566C0.186057 19.5858 0.681285 20.4384 5.48942 20.3448L12.1987 20.3448L9.77357 17.0143C9.38731 16.4838 8.69779 16.1898 7.9703 16.1524C6.18545 16.0604 5.39874 15.5108 5.48942 14.0625V6.28903Z" fill="url(#paint0_linear_397_1469)"/>
<path d="M24.319 8.59378H20.6195V11.7349H24.3029C24.5299 11.7349 24.7321 11.6001 24.7819 11.4001C25.0485 10.328 24.8961 9.38542 24.7797 8.91381C24.732 8.72049 24.5383 8.59378 24.319 8.59378Z" fill="black"/>
<path d="M17.2061 12.2155H8.79515C8.65374 12.2155 8.5391 12.112 8.5391 11.9842V8.37636H17.2753C17.6321 8.37636 17.9791 8.50758 18.2014 8.75972C19.2399 9.93774 19.0393 10.6979 18.2105 11.7592C17.982 12.0519 17.6027 12.2155 17.2061 12.2155Z" fill="url(#paint1_linear_397_1469)"/>
<path d="M20.4106 13.8291H24.7202C24.8997 13.8291 25.0233 13.992 24.9576 14.1428C23.4501 17.6057 22.1035 19.028 18.7047 20.1113H14.5839C14.4919 20.1113 14.407 20.0667 14.3615 19.9945L12.0103 16.2689C11.913 16.1147 12.0363 15.9231 12.2328 15.9231H16.8749C19.1936 15.83 19.7618 15.2766 20.1609 14.0019C20.1926 13.9006 20.2941 13.8291 20.4106 13.8291Z" fill="black"/>
<path d="M3.22794 25.3077C3.28845 25.3173 3.36271 25.327 3.45071 25.3366C3.53872 25.3414 3.62123 25.3439 3.69824 25.3439C3.88525 25.3439 4.05577 25.3197 4.20978 25.2715C4.3693 25.2232 4.50406 25.1484 4.61407 25.0471C4.72958 24.9457 4.81759 24.8155 4.8781 24.6562C4.9441 24.4921 4.97711 24.2967 4.97711 24.0699C4.97711 23.6356 4.86159 23.3099 4.63057 23.0927C4.39955 22.8707 4.09152 22.7597 3.70649 22.7597C3.62948 22.7597 3.54972 22.7622 3.46722 22.767C3.39021 22.7718 3.31045 22.779 3.22794 22.7887V25.3077ZM3.68999 26.3645C3.59648 26.3645 3.48922 26.3621 3.36821 26.3572C3.2472 26.3524 3.12068 26.3428 2.98867 26.3283C2.86216 26.3138 2.7329 26.2945 2.60089 26.2704C2.47437 26.2511 2.35611 26.2221 2.2461 26.1835C1.94358 26.0822 1.79231 25.906 1.79231 25.6551V22.2748C1.79231 22.1734 1.82256 22.0962 1.88307 22.0431C1.94908 21.9852 2.03708 21.9394 2.14709 21.9056C2.38362 21.8381 2.63389 21.7946 2.89791 21.7753C3.16194 21.7512 3.39846 21.7391 3.60748 21.7391C4.03652 21.7391 4.4243 21.785 4.77084 21.8767C5.12287 21.9683 5.42265 22.1107 5.67017 22.3037C5.92319 22.4919 6.11846 22.7308 6.25597 23.0203C6.39349 23.3099 6.46224 23.6525 6.46224 24.0482C6.46224 24.4342 6.39624 24.772 6.26422 25.0616C6.13221 25.3463 5.94244 25.5876 5.69492 25.7854C5.4529 25.9784 5.16137 26.1232 4.82034 26.2197C4.47931 26.3162 4.10252 26.3645 3.68999 26.3645Z" fill="#D6D443"/>
<path d="M7.18019 22.7815C7.23519 22.767 7.32045 22.7525 7.43596 22.738C7.55697 22.7236 7.68073 22.7163 7.80724 22.7163C7.92826 22.7163 8.03551 22.7236 8.12902 22.738C8.22803 22.7525 8.31054 22.7815 8.37655 22.8249C8.44255 22.8683 8.49206 22.9286 8.52506 23.0059C8.56356 23.0782 8.58282 23.1747 8.58282 23.2954V24.8516C8.58282 25.0495 8.63782 25.1919 8.74783 25.2787C8.85784 25.3608 9.01736 25.4018 9.22637 25.4018C9.35289 25.4018 9.45465 25.3921 9.53165 25.3728C9.61416 25.3535 9.67742 25.3342 9.72142 25.3149V22.7815C9.77643 22.767 9.86168 22.7525 9.97719 22.738C10.0982 22.7236 10.222 22.7163 10.3485 22.7163C10.4695 22.7163 10.5767 22.7236 10.6703 22.738C10.7693 22.7525 10.8518 22.7815 10.9178 22.8249C10.9838 22.8683 11.0333 22.9286 11.0663 23.0059C11.1048 23.0782 11.1241 23.1747 11.1241 23.2954V25.4959C11.1241 25.7371 11.0085 25.9181 10.7775 26.0387C10.585 26.1449 10.354 26.2245 10.0845 26.2776C9.82043 26.3355 9.53165 26.3645 9.21812 26.3645C8.9211 26.3645 8.64607 26.3355 8.39305 26.2776C8.14553 26.2197 7.93101 26.1304 7.74949 26.0098C7.56797 25.8892 7.42771 25.7347 7.3287 25.5465C7.22969 25.3535 7.18019 25.1219 7.18019 24.8516V22.7815Z" fill="#D6D443"/>
<path d="M14.1028 26.3645C13.7783 26.3645 13.4758 26.3259 13.1952 26.2487C12.9202 26.1666 12.6782 26.046 12.4692 25.8867C12.2657 25.7275 12.1034 25.5272 11.9824 25.286C11.8669 25.0447 11.8091 24.7624 11.8091 24.4391C11.8091 24.1206 11.8669 23.8479 11.9824 23.6211C12.1034 23.3895 12.2602 23.2013 12.4527 23.0565C12.6452 22.9069 12.8652 22.7984 13.1127 22.7308C13.3603 22.6584 13.6133 22.6222 13.8718 22.6222C14.1633 22.6222 14.4274 22.6608 14.6639 22.738C14.9059 22.8152 15.1122 22.9214 15.2827 23.0565C15.4587 23.1916 15.5935 23.3533 15.687 23.5415C15.786 23.7297 15.8355 23.9348 15.8355 24.1568C15.8355 24.3208 15.7832 24.4463 15.6787 24.5332C15.5742 24.62 15.4285 24.6755 15.2414 24.6996L13.2035 24.9675C13.264 25.1267 13.3878 25.2473 13.5748 25.3294C13.7618 25.4066 13.9763 25.4452 14.2183 25.4452C14.4439 25.4452 14.6556 25.4211 14.8537 25.3728C15.0572 25.3197 15.2222 25.2594 15.3487 25.1919C15.4367 25.2401 15.511 25.3077 15.5715 25.3945C15.632 25.4814 15.6622 25.5731 15.6622 25.6696C15.6622 25.8867 15.5467 26.0484 15.3157 26.1546C15.1397 26.2366 14.9417 26.2921 14.7216 26.321C14.5016 26.35 14.2954 26.3645 14.1028 26.3645ZM13.8718 23.5198C13.7398 23.5198 13.6243 23.5391 13.5253 23.5777C13.4318 23.6163 13.3548 23.667 13.2943 23.7297C13.2338 23.7876 13.187 23.8552 13.154 23.9324C13.1265 24.0048 13.11 24.0796 13.1045 24.1568L14.5154 23.9541C14.4989 23.8576 14.4384 23.7611 14.3339 23.6645C14.2293 23.568 14.0753 23.5198 13.8718 23.5198Z" fill="#D6D443"/>
<path d="M19.7135 26.2197C19.653 26.2342 19.5568 26.2487 19.4248 26.2631C19.2983 26.2776 19.1717 26.2849 19.0452 26.2849C18.9187 26.2849 18.806 26.2752 18.707 26.2559C18.6134 26.2414 18.5337 26.2125 18.4677 26.169C18.4017 26.1256 18.3522 26.0653 18.3192 25.9881C18.2862 25.9109 18.2697 25.8095 18.2697 25.6841V21.8622C18.3302 21.8525 18.4264 21.8405 18.5584 21.826C18.6904 21.8067 18.817 21.797 18.938 21.797C19.0645 21.797 19.1745 21.8067 19.268 21.826C19.367 21.8405 19.4495 21.8694 19.5155 21.9129C19.5815 21.9563 19.631 22.0166 19.664 22.0938C19.697 22.171 19.7135 22.2724 19.7135 22.3978V26.2197Z" fill="black"/>
<path d="M22.0789 25.0398C22.0789 25.1653 22.1229 25.2546 22.2109 25.3077C22.3045 25.3608 22.4337 25.3873 22.5987 25.3873C22.6812 25.3873 22.7665 25.3825 22.8545 25.3728C22.9425 25.3583 23.0195 25.3414 23.0855 25.3221C23.135 25.3752 23.1763 25.4355 23.2093 25.5031C23.2478 25.5658 23.267 25.643 23.267 25.7347C23.267 25.9181 23.1873 26.0677 23.0278 26.1835C22.8738 26.2993 22.5987 26.3572 22.2027 26.3572C21.7186 26.3572 21.3446 26.2607 21.0806 26.0677C20.8221 25.8747 20.6928 25.561 20.6928 25.1267V22.0287C20.7533 22.0142 20.8386 21.9997 20.9486 21.9852C21.0641 21.9659 21.1851 21.9563 21.3116 21.9563C21.5536 21.9563 21.7407 21.9949 21.8727 22.0721C22.0102 22.1445 22.0789 22.3013 22.0789 22.5426V23.0059H23.1598C23.1928 23.0589 23.223 23.1265 23.2505 23.2085C23.2835 23.2857 23.3 23.3726 23.3 23.4691C23.3 23.638 23.256 23.7611 23.168 23.8383C23.0855 23.9107 22.9728 23.9468 22.8298 23.9468H22.0789V25.0398Z" fill="black"/>
<path d="M1.53371 28.8876V27.7544H1.89473V28.8876C1.89473 29.2068 1.66941 29.3848 1.33911 29.3848C1.00369 29.3848 0.768133 29.2021 0.768133 28.876H1.1266C1.12916 29.0125 1.19829 29.0957 1.33399 29.0957C1.46713 29.0957 1.53371 29.0148 1.53371 28.8876Z" fill="#636161"/>
<path d="M2.22071 28.7234C2.22071 28.3233 2.50748 28.0666 2.8685 28.0666C3.09638 28.0666 3.25256 28.1637 3.33706 28.2701V28.0874H3.69808V29.3686H3.33706V29.1813C3.25256 29.2923 3.09126 29.3895 2.86594 29.3895C2.50748 29.3895 2.22071 29.1235 2.22071 28.7234ZM3.33706 28.728C3.33706 28.4852 3.15783 28.3511 2.96067 28.3511C2.76864 28.3511 2.58685 28.4806 2.58685 28.7234C2.58685 28.9662 2.76864 29.105 2.96067 29.105C3.15783 29.105 3.33706 28.9709 3.33706 28.728Z" fill="#636161"/>
<path d="M5.14917 29.0032C5.14917 29.2229 4.93666 29.3895 4.591 29.3895C4.2351 29.3895 3.98673 29.2021 3.97137 28.9639H4.33239C4.34519 29.0611 4.44505 29.1351 4.58844 29.1351C4.72926 29.1351 4.80607 29.0772 4.80607 29.0032C4.80607 28.7743 4.00466 28.92 4.00466 28.4505C4.00466 28.2377 4.21461 28.0666 4.56539 28.0666C4.90849 28.0666 5.11589 28.2354 5.13637 28.4898H4.79327C4.78303 28.3904 4.69598 28.3233 4.55515 28.3233C4.42201 28.3233 4.35288 28.3719 4.35288 28.4459C4.35288 28.6795 5.13893 28.5338 5.14917 29.0032Z" fill="#636161"/>
<path d="M5.35125 28.7234C5.35125 28.3233 5.63802 28.0666 5.99904 28.0666C6.22692 28.0666 6.38311 28.1637 6.4676 28.2701V28.0874H6.82863V29.3686H6.4676V29.1813C6.38311 29.2923 6.2218 29.3895 5.99648 29.3895C5.63802 29.3895 5.35125 29.1235 5.35125 28.7234ZM6.4676 28.728C6.4676 28.4852 6.28837 28.3511 6.09122 28.3511C5.89918 28.3511 5.71739 28.4806 5.71739 28.7234C5.71739 28.9662 5.89918 29.105 6.09122 29.105C6.28837 29.105 6.4676 28.9709 6.4676 28.728Z" fill="#636161"/>
<path d="M8.17218 29.3686V28.661C8.17218 28.4551 8.04672 28.3441 7.85724 28.3441C7.66265 28.3441 7.53719 28.4551 7.53719 28.661V29.3686H7.17873V28.0874H7.53719V28.247C7.62936 28.1383 7.78299 28.0689 7.96478 28.0689C8.29508 28.0689 8.53064 28.2632 8.53064 28.617V29.3686H8.17218Z" fill="#636161"/>
<path d="M9.47578 28.9824L9.84705 28.0874H10.2286L9.35032 29.9746H8.96882L9.27607 29.3363L8.70765 28.0874H9.10964L9.47578 28.9824Z" fill="#636161"/>
<path d="M10.3296 28.7234C10.3296 28.3233 10.6164 28.0666 10.9774 28.0666C11.2053 28.0666 11.3615 28.1637 11.446 28.2701V28.0874H11.807V29.3686H11.446V29.1813C11.3615 29.2923 11.2002 29.3895 10.9748 29.3895C10.6164 29.3895 10.3296 29.1235 10.3296 28.7234ZM11.446 28.728C11.446 28.4852 11.2667 28.3511 11.0696 28.3511C10.8775 28.3511 10.6958 28.4806 10.6958 28.7234C10.6958 28.9662 10.8775 29.105 11.0696 29.105C11.2667 29.105 11.446 28.9709 11.446 28.728Z" fill="#636161"/>
<path d="M13.3707 29.3686L13.253 29.0611H12.5412L12.4234 29.3686H12.047L12.6897 27.7521H13.107L13.7497 29.3686H13.3707ZM13.1557 28.802L12.8971 28.1267L12.6385 28.802H13.1557Z" fill="#636161"/>
<path d="M14.0462 28.9709V28.3534H13.8772V28.0874H14.0462V27.7706H14.4073V28.0874H14.7248V28.3534H14.4073V28.9732C14.4073 29.0587 14.4457 29.0957 14.5583 29.0957H14.7248V29.3686H14.4994C14.228 29.3686 14.0462 29.2646 14.0462 28.9709Z" fill="#636161"/>
<path d="M16.3217 28.0874V29.3686H15.9607V29.2068C15.8711 29.3154 15.7149 29.3848 15.5382 29.3848C15.2079 29.3848 14.9698 29.1906 14.9698 28.839V28.0874H15.3282V28.7928C15.3282 28.9986 15.4537 29.1096 15.6432 29.1096C15.8378 29.1096 15.9607 28.9986 15.9607 28.7928V28.0874H16.3217Z" fill="#636161"/>
<path d="M17.0338 28.7303V29.3686H16.6754V28.0874H17.0338V28.2863C17.1235 28.1545 17.272 28.0689 17.4691 28.0689V28.4089H17.3744C17.1619 28.4089 17.0338 28.4829 17.0338 28.7303Z" fill="#636161"/>
<path d="M19.0497 28.0874V29.3686H18.6886V29.2068C18.599 29.3154 18.4428 29.3848 18.2662 29.3848C17.9359 29.3848 17.6978 29.1906 17.6978 28.839V28.0874H18.0562V28.7928C18.0562 28.9986 18.1817 29.1096 18.3712 29.1096C18.5657 29.1096 18.6886 28.9986 18.6886 28.7928V28.0874H19.0497Z" fill="#636161"/>
<path d="M19.3112 28.7234C19.3112 28.3233 19.5979 28.0666 19.959 28.0666C20.1868 28.0666 20.343 28.1637 20.4275 28.2701V28.0874H20.7885V29.3686H20.4275V29.1813C20.343 29.2923 20.1817 29.3895 19.9564 29.3895C19.5979 29.3895 19.3112 29.1235 19.3112 28.7234ZM20.4275 28.728C20.4275 28.4852 20.2483 28.3511 20.0511 28.3511C19.8591 28.3511 19.6773 28.4806 19.6773 28.7234C19.6773 28.9662 19.8591 29.105 20.0511 29.105C20.2483 29.105 20.4275 28.9709 20.4275 28.728Z" fill="#636161"/>
<path d="M22.1321 29.3686V28.661C22.1321 28.4551 22.0066 28.3441 21.8172 28.3441C21.6226 28.3441 21.4971 28.4551 21.4971 28.661V29.3686H21.1387V28.0874H21.4971V28.247C21.5893 28.1383 21.7429 28.0689 21.9247 28.0689C22.255 28.0689 22.4906 28.2632 22.4906 28.617V29.3686H22.1321Z" fill="#636161"/>
<path d="M22.7393 28.7234C22.7393 28.3233 23.026 28.0666 23.3871 28.0666C23.6098 28.0666 23.7711 28.1591 23.8556 28.2701V28.0874H24.2166V29.3779C24.2166 29.7248 23.9811 30 23.5151 30C23.1157 30 22.8366 29.8196 22.8007 29.5259H23.1566C23.1925 29.6415 23.3256 29.7179 23.5048 29.7179C23.702 29.7179 23.8556 29.6161 23.8556 29.3779V29.179C23.7711 29.29 23.6098 29.3895 23.3871 29.3895C23.026 29.3895 22.7393 29.1235 22.7393 28.7234ZM23.8556 28.728C23.8556 28.4852 23.6764 28.3511 23.4792 28.3511C23.2872 28.3511 23.1054 28.4806 23.1054 28.7234C23.1054 28.9662 23.2872 29.105 23.4792 29.105C23.6764 29.105 23.8556 28.9709 23.8556 28.728Z" fill="#636161"/>
<defs>
<linearGradient id="paint0_linear_397_1469" x1="12.5" y1="0" x2="12.5" y2="30" gradientUnits="userSpaceOnUse">
<stop stop-color="#D5D340"/>
<stop offset="0.494792" stop-color="#EDEC8B"/>
<stop offset="1" stop-color="#D7D545"/>
</linearGradient>
<linearGradient id="paint1_linear_397_1469" x1="25.0947" y1="15.8679" x2="-0.216119" y2="15.8679" gradientUnits="userSpaceOnUse">
<stop stop-color="#D9D74A"/>
<stop offset="1" stop-color="#E4E26C"/>
</linearGradient>
</defs>
</svg>
