<svg width="25" height="25" viewBox="0 0 25 25" fill="none" xmlns="http://www.w3.org/2000/svg">
<path d="M10.4167 13.5833H9.41671V14.5833V19.7917C9.41671 19.7974 9.41572 19.8014 9.41413 19.8051C9.41224 19.8096 9.40885 19.815 9.40361 19.8202C9.39837 19.8255 9.39294 19.8289 9.38849 19.8308C9.38474 19.8323 9.38079 19.8333 9.37504 19.8333H6.25004C6.2443 19.8333 6.24035 19.8323 6.2366 19.8308C6.23215 19.8289 6.22671 19.8255 6.22147 19.8202C6.21624 19.815 6.21284 19.8096 6.21095 19.8051C6.20936 19.8014 6.20837 19.7974 6.20837 19.7917V12.5V11.5H5.20837H4.69206L12.4689 4.49524C12.4691 4.49512 12.4692 4.49499 12.4693 4.49487C12.4761 4.48898 12.4857 4.48438 12.5 4.48438C12.5143 4.48438 12.524 4.48898 12.5307 4.49487C12.5309 4.49499 12.531 4.49512 12.5312 4.49524L20.308 11.5H19.7917H18.7917V12.5V19.7917C18.7917 19.7974 18.7907 19.8014 18.7891 19.8051C18.7872 19.8096 18.7838 19.815 18.7786 19.8202C18.7734 19.8255 18.7679 19.8289 18.7635 19.8308C18.7597 19.8323 18.7558 19.8333 18.75 19.8333H15.625C15.6193 19.8333 15.6153 19.8323 15.6116 19.8308C15.6071 19.8289 15.6017 19.8255 15.5965 19.8202C15.5912 19.815 15.5878 19.8096 15.586 19.8051C15.5844 19.8014 15.5834 19.7974 15.5834 19.7917V14.5833V13.5833H14.5834H10.4167Z" fill="url(#paint0_linear_972_836)" stroke="url(#paint1_linear_972_836)" stroke-width="2"/>
<defs>
<linearGradient id="paint0_linear_972_836" x1="25.1047" y1="12.1589" x2="2.91894" y2="12.1589" gradientUnits="userSpaceOnUse">
<stop stop-color="#C7B407"/>
<stop offset="0.0001" stop-color="#C7B407"/>
<stop offset="1" stop-color="#E3D909"/>
</linearGradient>
<linearGradient id="paint1_linear_972_836" x1="25.1047" y1="12.1589" x2="2.91894" y2="12.1589" gradientUnits="userSpaceOnUse">
<stop stop-color="#C7B407"/>
<stop offset="0.0001" stop-color="#C7B407"/>
<stop offset="1" stop-color="#E3D909"/>
</linearGradient>
</defs>
</svg>
