<?xml version="1.0" standalone="no"?>
<!DOCTYPE svg PUBLIC "-//W3C//DTD SVG 20010904//EN"
 "http://www.w3.org/TR/2001/REC-SVG-20010904/DTD/svg10.dtd">
<svg version="1.0" xmlns="http://www.w3.org/2000/svg"
 width="77.000000pt" height="122.000000pt" viewBox="0 0 77.000000 122.000000"
 preserveAspectRatio="xMidYMid meet">

<g transform="translate(0.000000,122.000000) scale(0.100000,-0.100000)"
fill="#000000" stroke="none">
<path d="M242 706 c-45 -46 -82 -90 -82 -97 0 -21 162 -179 183 -179 32 0 17
35 -38 90 -68 67 -66 68 103 69 115 1 122 2 122 21 0 19 -7 20 -122 21 -169 1
-171 2 -103 69 30 30 55 62 55 72 0 37 -39 16 -118 -66z"/>
</g>
</svg>
